<?xml version="1.0" standalone="no"?>
<!DOCTYPE svg PUBLIC "-//W3C//DTD SVG 1.1//EN" "http://www.w3.org/Graphics/SVG/1.1/DTD/svg11.dtd" >
<svg xmlns="http://www.w3.org/2000/svg" xmlns:xlink="http://www.w3.org/1999/xlink" version="1.1">
<metadata>
Created by FontForge 20150824 at Fri Jun 10 10:43:00 2016
 By Everything Fonts
Copyright (c) 2015 by Emily Spadoni. All rights reserved.
</metadata>
<defs>
<font id="Smoothie_Shoppe" horiz-adv-x="878" >
  <font-face 
    font-family="Smoothie Shoppe"
    font-weight="400"
    font-stretch="normal"
    units-per-em="1024"
    panose-1="0 0 0 0 0 0 0 0 0 0"
    ascent="819"
    descent="-205"
    x-height="396.999"
    cap-height="799"
    bbox="-57.0029 -458.005 1416 976.993"
    underline-thickness="1"
    underline-position="-2"
    unicode-range="U+000D-FFAD"
  />
<missing-glyph horiz-adv-x="676" 
d="M184 102h308v624h-308v-157v-467zM133 777h410v-726h-410v726z" />
    <glyph glyph-name=".notdef" horiz-adv-x="676" 
d="M184 102h308v624h-308v-157v-467zM133 777h410v-726h-410v726z" />
    <glyph glyph-name="NULL" horiz-adv-x="0" 
 />
    <glyph glyph-name="NULL" horiz-adv-x="0" 
 />
    <glyph glyph-name="nonmarkingreturn" unicode="&#xd;" horiz-adv-x="0" 
 />
    <glyph glyph-name="space" unicode=" " horiz-adv-x="210" 
 />
    <glyph glyph-name="exclam" unicode="!" horiz-adv-x="170" 
d="M33 -12c2 10 0.331055 19 -5.00195 27c-4 6 -6 13.667 -6 23c0 4 0.333008 8.33301 1 13c2.66699 14.667 12.334 24 29.001 28c8.66699 1.33301 16 2 22 2s10.667 -0.666992 14 -2c10.667 -4.66699 18.667 -13.667 24 -27c5.33301 -10.667 7.33301 -21.334 6 -32.001
c-0.666992 -2.66699 -1 -5 -1 -7c-3.33301 -13.333 -16.666 -22.666 -39.999 -27.999c-9.33301 -2.66699 -17.333 -4 -24 -4c-10 0 -16.667 2.33301 -20 7zM120.998 766c2 -5.33301 3.66602 -14.333 4.99902 -27c0.666992 -12.667 0.666992 -28 0 -46
c0 -34 -1.66699 -74.667 -5 -122c-2.66699 -47.333 -5.66699 -93.666 -9 -138.999c-4 -47.333 -7.33301 -90 -10 -128s-4 -63.667 -4 -77c-4.66699 -2.66699 -10 -4 -16 -4c-5.33301 0 -11.333 1.33301 -18 4c-13.333 5.33301 -22 13.666 -26 24.999c-0.666992 4 0 26 2 66
c2.66699 40.667 4.33398 86.334 5.00098 137.001c0.666992 22 1 44 1 66s-0.333008 43.333 -1 64c-1.33301 37.333 -4 69.666 -8 96.999s-10.333 43 -19 47c5.33301 22 23 38.333 53 49c10.667 3.33301 19.667 5 27 5c13.333 0 21 -5.66699 23 -17z" />
    <glyph glyph-name="quotedbl" unicode="&#x22;" horiz-adv-x="193" 
d="M102 796c-0.666992 1.33301 -1.00195 2.66895 -1.00195 4.00195c0 6.66699 3.33301 15 10 25c8 11.333 17 17 27 17c4.66699 0 9.33398 -1.33301 14.001 -4c4.66699 -3.33301 9 -8.33301 13 -15c13.333 -24.667 17 -51.334 11 -80.001
c-6.66699 -28.667 -15.667 -52.334 -27 -71.001c-2 -2 -3.66699 -3 -5 -3h-2c-1.33301 0 -2.66602 0.333008 -3.99902 1c-4 1.33301 -7.66699 4.33301 -11 9c5.33301 18.667 4 40.334 -4 65.001c-8.66699 25.333 -15.667 42.666 -21 51.999zM14.998 784.003
c-0.666992 1.33301 -1.00098 2.66895 -1.00098 4.00195c0 6.66699 3.33301 15 10 25c8 10.667 17.333 16.334 28 17.001c4 0 8.33301 -1.33301 13 -4c4.66699 -3.33301 9 -8.33301 13 -15c13.333 -24.667 17 -51.334 11 -80.001
c-6.66699 -28.667 -15.667 -52.334 -27 -71.001c-1.33301 -1.33301 -3 -2.33301 -5 -3h-2c-1.33301 0 -2.66602 0.333008 -3.99902 1c-3.33301 1.33301 -7 4.33301 -11 9c5.33301 18 4 39.667 -4 65c-8.66699 25.333 -15.667 42.666 -21 51.999z" />
    <glyph glyph-name="numbersign" unicode="#" horiz-adv-x="537" 
d="M28 369c8 -0.666992 31.666 -0.669922 70.999 -0.00292969h73c0 1.33301 0.333008 2.66602 1 3.99902c4 24 8 48.333 12 73l1 4c-29.333 -0.666992 -54.666 -1.33398 -75.999 -2.00098c-26 -1.33301 -41.667 -3 -47 -5c-4.66699 6 -8.33398 13.333 -11.001 22
c-0.666992 2 -1 4 -1 6c0 6.66699 2.33301 13 7 19c8 -0.666992 31.667 -0.666992 71 0h62l4 28c6 42.667 11 79.667 15 111c3.33301 30.667 5 48.334 5 53.001c6 8.66699 15.333 14.667 28 18c3.33301 1.33301 6.33301 2 9 2c8.66699 0 15.667 -3.33301 21 -10
c-2 -6.66699 -6.66699 -33 -14 -79c-6.66699 -37.333 -13.667 -78 -21 -122l23 1c27.333 0 54.333 0.333008 81 1l4 24c6 42.667 11 79.334 15 110.001c3.33301 31.333 5 49.333 5 54c6 8.66699 15 14.667 27 18c3.33301 1.33301 6.66602 2 9.99902 2
c8 0 15 -3.33301 21 -10c-2 -6.66699 -7 -33.334 -15 -80.001c-6 -35.333 -12.333 -74.333 -19 -117c32 0.666992 59.667 1.33398 83 2.00098c14 0.666992 25.667 1 35 1c9.33301 0.666992 15.333 1 18 1c4.66699 -5.33301 7 -11 7 -17
c0 -4.66699 -1.33301 -9.33398 -4 -14.001c-5.33301 -12 -12.666 -20 -21.999 -24c-6 0.666992 -27.333 1.66699 -64 3c-19.333 0.666992 -39.666 1.33398 -60.999 2.00098l-13 -75c30 0.666992 56.333 1.33398 79 2.00098c26.667 0.666992 42.667 1.33398 48 2.00098
c4 -5.33301 6 -11 6 -17c0 -4.66699 -1 -9.33398 -3 -14.001c-5.33301 -12 -13 -20 -23 -24c-5.33301 0.666992 -26.333 1.66699 -63 3c-16 0.666992 -33.333 1 -52 1c0 -4 -0.333008 -7.66699 -1 -11c-7.33301 -46 -14 -85.333 -20 -118
c-2.66699 -17.333 -5 -31.666 -7 -42.999c-2.66699 -11.333 -4.33398 -19 -5.00098 -23c-8 -6.66699 -15.333 -10 -22 -10s-12.667 2.66699 -18 8c-11.333 10.667 -18 21.334 -20 32.001c8 -0.666992 17 20.333 27 63c7.33301 30.667 14.333 65 21 103
c-9.33301 0.666992 -18.666 1 -27.999 1c-20 0 -40 0.333008 -60 1h-17l-3 -23c-7.33301 -44 -14 -82.333 -20 -115c-5.33301 -32.667 -9 -52.334 -11 -59.001c-8 -6.66699 -15.333 -10 -22 -10c-6 0 -11.667 2.66699 -17 8c-12 10.667 -19 21.334 -21 32.001
c8 -0.666992 17 20.333 27 63c7.33301 30.667 14.333 65.334 21 104.001c-32.667 -0.666992 -61 -1.33398 -85 -2.00098c-26 -1.33301 -42 -3 -48 -5c-4.66699 6 -8 13.333 -10 22c-0.666992 2 -1 4 -1 6c0 6.66699 2.33301 13 7 19zM217.999 368.997
c4 0.666992 8.33301 1 13 1c20.667 0.666992 41.667 1 63 1h30v1c4 24 8 48.333 12 73v4h-18c-19.333 0.666992 -39 1 -59 1h-28l-11 -71z" />
    <glyph glyph-name="dollar" unicode="$" horiz-adv-x="332" 
d="M76 328c12.667 10.667 26.6641 12.667 41.9971 6c15.333 -6 23.666 -15.667 24.999 -29c-10.667 -2.66699 -19.667 -6.66699 -27 -12c-6.66699 -6 -11.667 -12.333 -15 -19c-8.66699 -16 -9 -32.667 -1 -50c8 -18 21.667 -28.667 41 -32c24 -4 43.333 2.33301 58 19
c14.667 16 21.334 41 20.001 75c-1.33301 15.333 -6.66602 28.666 -15.999 39.999c-10 11.333 -22 21.666 -36 30.999c-25.333 18 -52 37.333 -80 58s-42 53 -42 97c0.666992 48.667 17 84 49 106c23.333 16 48 24.667 74 26c-1.33301 18 -2.66602 33.333 -3.99902 46
c-1.33301 15.333 -2 29 -2 41v3c0 11.333 5.33301 17 16 17c2 0 4.33301 -0.333008 7 -1c16 -2 25.667 -8.33301 29 -19c-2 -12.667 -5 -27.334 -9 -44.001c-4 -16 -7.66699 -30.333 -11 -43c2 -0.666992 4 -1 6 -1c11.333 -1.33301 22 -4.33301 32 -9
c10 -5.33301 18.667 -11.333 26 -18c24 -22 37.667 -49.333 41 -82v-9c0 -28 -13 -49 -39 -63c-16 -6.66699 -27.667 -3 -35 11s-8.66602 28.333 -3.99902 43c22.667 -4 34.334 5.66699 35.001 29c0 23.333 -9 42.666 -27 57.999c-4 3.33301 -9 6.33301 -15 9
c-5.33301 2.66699 -11.333 4.33398 -18 5.00098c-25.333 2.66699 -46.666 -6.66602 -63.999 -27.999c-18 -21.333 -25.333 -46.333 -22 -75c1.33301 -16.667 6.66602 -30.667 15.999 -42s20.333 -22.333 33 -33c24 -18.667 48.667 -38 74 -58
c25.333 -20.667 38.666 -52 39.999 -94c0.666992 -38.667 -13.333 -68 -42 -88c-19.333 -14 -39.666 -22.333 -60.999 -25c1.33301 -17.333 3 -32.666 5 -45.999c1.33301 -15.333 2 -29 2 -41v-2c0 -11.333 -5.33301 -17 -16 -17h-7c-16 2.66699 -25.667 9.33398 -29 20.001
c2 12 5 26.667 9 44c3.33301 14.667 6.33301 28.667 9 42l-6 1c-14 2 -26 6 -36 12c-10.667 6.66699 -19.334 14.667 -26.001 24c-12.667 17.333 -19 37 -19 59c0 22.667 6.66699 42 20 58z" />
    <glyph glyph-name="percent" unicode="%" horiz-adv-x="533" 
d="M158 798c9.33301 -2 14.3271 -6.66602 14.9941 -13.999c0.666992 -6.66699 -1.33301 -13.334 -6 -20.001c-19.333 1.33301 -35.333 -10 -48 -34c-12.667 -23.333 -21.334 -51 -26.001 -83c-5.33301 -38 -3.66602 -75 5.00098 -111s25.667 -54.333 51 -55
c14.667 0 27 10.333 37 31c9.33301 20.667 16 44.334 20 71.001c2 11.333 3.33301 22.666 4 33.999c-9.33301 4.66699 -17.666 10 -24.999 16c-17.333 14 -29.666 30.333 -36.999 49c-8 19.333 -8.66699 36 -2 50c3.33301 7.33301 9 13.333 17 18
c8 5.33301 18 8.66602 30 9.99902c25.333 2.66699 44 -9 56 -35c10.667 -24 15.667 -52 15 -84c10.667 1.33301 23.334 9 38.001 23c17.333 15.333 33.333 32.333 48 51c10 12.667 18.667 24.667 26 36c6.66699 12 11 21.667 13 29c11.333 7.33301 27 8.33301 47 3
c20 -6 29.667 -17.333 29 -34c-9.33301 -20.667 -26 -57.334 -50 -110.001s-50.667 -111 -80 -175c-15.333 -33.333 -30.666 -67.333 -45.999 -102c-16 -34.667 -31.333 -68 -46 -100c-27.333 -60.667 -51.333 -113.667 -72 -159c-21.333 -45.333 -35 -74 -41 -86
c-7.33301 -10.667 -15.666 -16.334 -24.999 -17.001c-6.66699 0 -14 2.66699 -22 8c-18.667 12.667 -26.667 28.334 -24 47.001c16.667 9.33301 40 41.333 70 96c30 54 60.667 114.667 92 182c24.667 53.333 48.334 106 71.001 158c22 52.667 40 96.334 54 131.001
c7.33301 18.667 13 34 17 46c4.66699 12 7 19 7 21c-4 -6 -12.667 -15.667 -26 -29s-27.666 -25.333 -42.999 -36c-8.66699 -5.33301 -17 -9.66602 -25 -12.999c-5.33301 -2 -10.333 -3.33301 -15 -4c-4.66699 -32 -14.334 -62.667 -29.001 -92
c-20 -38.667 -47.667 -57.334 -83 -56.001c-20 0.666992 -37.333 4.33398 -52 11.001c-15.333 6.66699 -28 15.667 -38 27c-17.333 17.333 -29 39.333 -35 66c-3.33301 16 -5 32.333 -5 49c0 10 0.666992 20 2 30c5.33301 40.667 20 77 44 109c23.333 31.333 53 47 89 47h4z
M404.994 348.001c9.33301 -2 14.0029 -6.33301 14.0029 -13c0.666992 -7.33301 -1.33301 -14.333 -6 -21c-23.333 2 -42 -14.333 -56 -49c-13.333 -34.667 -20 -71.334 -20 -110.001c-0.666992 -32 3.66602 -60.333 12.999 -85c9.33301 -25.333 24.333 -38 45 -38
c15.333 -0.666992 27.666 9 36.999 29c8.66699 20 15 42.667 19 68c4 31.333 4.33301 60.666 1 87.999c-4 27.333 -11.667 39.666 -23 36.999c-10.667 6 -14.667 15.667 -12 29c3.33301 12.667 11 21.667 23 27c25.333 2.66699 43.666 -9 54.999 -35
c10 -22.667 15 -49 15 -79v-10c-1.33301 -42 -12 -82.333 -32 -121c-19.333 -37.333 -46.333 -56 -81 -56h-2c-19.333 0.666992 -36.666 4.33398 -51.999 11.001c-14.667 6.66699 -27.334 15.667 -38.001 27c-16.667 18 -28 40 -34 66c-4 16.667 -6 33.334 -6 50.001
c0 9.33301 0.666992 19 2 29c5.33301 40.667 20 77.334 44 110.001c23.333 30.667 53 46 89 46h5zM208.997 675.001c-3.33301 28.667 -10.667 41.666 -22 38.999c-9.33301 -2.66699 -12 -9.66699 -8 -21s12.667 -22 26 -32c2 -1.33301 3.66699 -2.66602 5 -3.99902
c0 6 -0.333008 12 -1 18z" />
    <glyph glyph-name="ampersand" unicode="&#x26;" horiz-adv-x="728" 
d="M653 534c23.333 -1.33301 41.6631 -12.3369 54.9961 -33.0039c7.33301 -10.667 11.333 -21 12 -31c0 -9.33301 -3 -18.333 -9 -27c-12.667 -19.333 -28.667 -33.333 -48 -42s-40.666 -14 -63.999 -16c-14.667 -2 -29.667 -3.33301 -45 -4c6 -32.667 9 -63 9 -91
c0 -16 -1 -31 -3 -45c-6.66699 -49.333 -20.667 -90.666 -42 -123.999c-16 -25.333 -35 -46.666 -57 -63.999c-22.667 -16.667 -46.667 -30 -72 -40c-32.667 -12 -66.334 -18 -101.001 -18c-15.333 0 -31.333 1.33301 -48 4c-52 8 -96.667 28.333 -134 61
c-24.667 22 -44.667 49 -60 81s-23 69 -23 111v4c0 42 6 77.667 18 107c13.333 31.333 30 56.666 50 75.999c16 16.667 34 30 54 40c12.667 6.66699 25.334 12 38.001 16l-5 5c-14 12.667 -26 26.667 -36 42c-9.33301 14.667 -16.333 31 -21 49s-5.66699 37 -3 57
c8 58 32.333 100 73 126c38.667 24.667 79.334 37 122.001 37h6c29.333 -0.666992 55.333 -7.66699 78 -21c22.667 -12.667 41 -28.667 55 -48c20.667 -29.333 30 -61 28 -95c-2.66699 -34.667 -20.334 -62 -53.001 -82c-8.66699 -5.33301 -17 -8.33301 -25 -9
c-7.33301 0 -13.666 1.33301 -18.999 4c-13.333 6 -21.666 17.667 -24.999 35c-3.33301 16.667 0 29.334 10 38.001c7.33301 -4.66699 14 -7 20 -7c6 -0.666992 11 0.333008 15 3c12 8 16.667 25.667 14 53c-3.33301 26.667 -14.333 50 -33 70
c-8 9.33301 -17.667 16.666 -29 21.999c-11.333 6 -24 9.33301 -38 10c-28.667 0.666992 -55 -10.666 -79 -33.999s-38.333 -56.333 -43 -99c-2.66699 -26.667 -2 -50 2 -70c4.66699 -20.667 11.334 -38.334 20.001 -53.001
c4.66699 -8.66699 9.33398 -16.334 14.001 -23.001c24.667 3.33301 47 2.66602 67 -2.00098c28 -7.33301 41.333 -18.666 40 -33.999c-2 -18 -15 -26.333 -39 -25c-24 0.666992 -50 8.66699 -78 24l-2 1c-6.66699 -3.33301 -13.667 -7.33301 -21 -12
c-10.667 -7.33301 -21 -16.666 -31 -27.999c-15.333 -18 -28.333 -41.333 -39 -70s-16 -64.667 -16 -108c0 -39.333 6.33301 -73.333 19 -102c12.667 -29.333 29 -53 49 -71c36.667 -34 80.667 -49 132 -45s94.333 29 129 75c22.667 30 39 69.667 49 119
c8.66699 43.333 8.66699 94.333 0 153c-37.333 3.33301 -70 1 -98 -7c-14.667 -3.33301 -27.334 -9.66602 -38.001 -18.999c-11.333 -8.66699 -19.333 -21.667 -24 -39c-2.66699 0.666992 -6 3.33398 -10 8.00098s-6 10.334 -6 17.001c3.33301 16.667 10.333 30 21 40
c10 10.667 22.333 19 37 25c26.667 12 58 20 94 24s69.333 11.333 100 22c20.667 6.66699 38.667 16 54 28c15.333 12.667 26.333 29.667 33 51zM269.997 477.996c20 -8 30.666 -7.66797 31.999 0.999023c0.666992 4.66699 -6 7.33398 -20 8.00098
c-8 0.666992 -16.667 0 -26 -2c4.66699 -2.66699 9.33398 -5 14.001 -7z" />
    <glyph glyph-name="quotesingle" unicode="'" horiz-adv-x="104" 
d="M17 794c-0.666992 1.33301 -0.999023 2.66895 -0.999023 4.00195c0 6.66699 3.33301 14.667 10 24c8 11.333 17 17 27 17c4.66699 0 9.33398 -1.33301 14.001 -4s9 -7.66699 13 -15c13.333 -24 16.666 -50.333 9.99902 -79c-6 -28.667 -14.667 -52.334 -26 -71.001
c-1.33301 -2 -3 -3 -5 -3c-0.666992 -0.666992 -1.66699 -1 -3 -1c-0.666992 0 -1.66699 0.333008 -3 1c-4 2 -7.66699 5 -11 9c5.33301 18.667 3.66602 40.667 -5.00098 66c-8 25.333 -14.667 42.666 -20 51.999z" />
    <glyph glyph-name="parenleft" unicode="(" horiz-adv-x="317" 
d="M271 907c8 0 15 -6.00098 21 -18.001s9.33301 -22.667 10 -32c-52 -22 -93.667 -63 -125 -123c-30.667 -60 -51 -128.333 -61 -205c-6 -41.333 -8.66699 -83.666 -8 -126.999c0 -43.333 2.66699 -86.333 8 -129c10.667 -80 31.334 -153.667 62.001 -221s70 -116 118 -146
c5.33301 -8.66699 4 -19 -4 -31c-6 -8.66699 -13 -13 -21 -13c-2.66699 0 -5.33398 0.666992 -8.00098 2c-32.667 17.333 -61.667 40.333 -87 69c-26 28.667 -48.333 61 -67 97c-36 66.667 -59.667 142.334 -71 227.001c-6 42 -9 83.333 -9 124c0 42.667 3.33301 85 10 127
c12.667 85.333 38 164 76 236c38.667 71.333 90.667 125.666 156 162.999z" />
    <glyph glyph-name="parenright" unicode=")" horiz-adv-x="307" 
d="M53 -138c-3.33301 -0.666992 -6.33203 -1 -8.99902 -1c-7.33301 0 -14 4.33301 -20 13c-8.66699 12 -10.334 22 -5.00098 30c48.667 30.667 88.334 79.667 119.001 147c30 67.333 50.333 141 61 221c6 42.667 9 85.667 9 129s-2.66699 85.666 -8 126.999
c-10.667 76.667 -31.334 145 -62.001 205s-72.334 101 -125.001 123c0.666992 9.33301 4 20 10 32s13.333 18 22 18c65.333 -37.333 117 -91.666 155 -162.999c38.667 -72 64.334 -150.667 77.001 -236c6.66699 -42 10 -84.333 10 -127c0 -41.333 -3 -82.666 -9 -123.999
c-12 -84.667 -35.667 -160.334 -71 -227.001c-18.667 -36 -41 -68.333 -67 -97s-55 -52 -87 -70z" />
    <glyph glyph-name="asterisk" unicode="*" horiz-adv-x="312" 
d="M282 641c1.33301 -4.66699 1.99805 -9 1.99805 -13c0 -9.33301 -4 -18 -12 -26c-11.333 -10.667 -23.666 -16 -36.999 -16c-14 11.333 -27 25 -39 41c-12 16.667 -22.667 33 -32 49c-0.666992 -20 -2.33398 -40.333 -5.00098 -61
c-3.33301 -20.667 -8.66602 -39.334 -15.999 -56.001c-4 -4 -9 -6 -15 -6c-5.33301 0 -11.666 1.66699 -18.999 5c-14.667 6.66699 -24.667 16.334 -30 29.001c7.33301 16.667 17.666 33 30.999 49c12.667 16 27 30.667 43 44c-16.667 -5.33301 -36 -11.333 -58 -18
s-40.333 -10.334 -55 -11.001c-10 4.66699 -16.333 14.334 -19 29.001c-0.666992 3.33301 -1 6.66602 -1 9.99902c0 10 3 18.333 9 25c22.667 0 44 -2 64 -6s39 -9 57 -15c-15.333 14.667 -29.333 29.667 -42 45c-12.667 14.667 -23.667 30.334 -33 47.001
c0 13.333 5.66699 23 17 29c5.33301 3.33301 11.333 5 18 5s14 -1.66699 22 -5c7.33301 -17.333 14 -36 20 -56c6 -19.333 9.66699 -40 11 -62c8.66699 18 18.334 36 29.001 54c11.333 18.667 24.333 35 39 49c12.667 3.33301 24 -2.33398 34 -17.001
c9.33301 -14 14 -27.667 14 -41c-16.667 -14 -34 -25 -52 -33s-35.667 -15.667 -53 -23c19.333 -5.33301 38 -11.666 56 -18.999s35.333 -16 52 -26z" />
    <glyph glyph-name="plus" unicode="+" horiz-adv-x="318" 
d="M131 465c9.33301 12.667 17.999 19.6621 25.999 20.9951h4c6.66699 0 13.667 -2.66699 21 -8c-3.33301 -38 -3.66602 -73.333 -0.999023 -106h1c19.333 0.666992 38 1.33398 56 2.00098h52c8.66699 -6.66699 13.334 -13.667 14.001 -21
c0 -2.66699 -0.666992 -5.33398 -2 -8.00098c-4.66699 -9.33301 -7.33398 -16 -8.00098 -20c-39.333 4 -75.333 4.66699 -108 2c2 -20.667 3 -42 3 -64c0 -16.667 -0.333008 -34 -1 -52c-6.66699 -16.667 -15 -25 -25 -25c-1.33301 0 -2.66602 0.333008 -3.99902 1
c-11.333 2 -20.666 11.667 -27.999 29c4.66699 4.66699 7.66699 12 9 22c2 10.667 2.66699 23.334 2 38.001c0 14 -0.666992 29.333 -2 46c-12.667 -0.666992 -26.334 -1 -41.001 -1c-20 0 -41.333 0.666992 -64 2c-9.33301 4.66699 -14 11.334 -14 20.001
c0 2 0.333008 4 1 6c2.66699 12 7.66699 18.667 15 20c5.33301 -1.33301 22 -1.66602 50 -0.999023c15.333 0.666992 31.666 1.33398 48.999 2.00098c-3.33301 34.667 -5 66.334 -5 95.001z" />
    <glyph glyph-name="comma" unicode="," horiz-adv-x="124" 
d="M55 -105c-2 0.666992 -4.33203 2.33105 -6.99902 4.99805s-3.66699 5.66699 -3 9c6 4.66699 12.667 15 20 31c8 16.667 10.333 30.667 7 42c-13.333 -6 -26.333 -4.33301 -39 5c-11.333 8 -17 18.667 -17 32c0 2.66699 0.333008 5.33398 1 8.00098
c2.66699 19.333 11.667 32.333 27 39c11.333 4.66699 20.333 7 27 7c2.66699 0 5 -0.333008 7 -1c9.33301 -2.66699 17.666 -8.66699 24.999 -18c6.66699 -10 9.66699 -25 9 -45v-1c-0.666992 -12.667 -6.33398 -33 -17.001 -61
c-11.333 -27.333 -24.666 -44.666 -39.999 -51.999z" />
    <glyph glyph-name="hyphen" unicode="-" horiz-adv-x="353" 
d="M327 265c13.333 -10 20.665 -20.666 21.998 -31.999v-5c0 -10 -3 -19 -9 -27c-50 6 -100 6.33301 -150 1c-27.333 -2.66699 -55.333 -4 -84 -4c-24.667 0 -49.667 1 -75 3c-17.333 7.33301 -26.333 17.333 -27 30c0 2 0.333008 4 1 6
c2.66699 15.333 13.334 26.666 32.001 33.999c8.66699 -9.33301 29.667 -14 63 -14c33.333 0.666992 69.666 2 108.999 4c20.667 1.33301 41.334 2.33301 62.001 3s39.334 1 56.001 1z" />
    <glyph glyph-name="period" unicode="." horiz-adv-x="126" 
d="M112 43c1.33301 -6.66699 1.66797 -13.668 1.00098 -21.001c-0.666992 -6 -2.66699 -12 -6 -18c-5.33301 -13.333 -13.333 -22.333 -24 -27c-3.33301 -2 -8 -3 -14 -3s-13.333 1 -22 3c-17.333 4 -27 13.333 -29 28c-0.666992 4.66699 -1 9 -1 13c0 9.33301 2 17 6 23
c5.33301 8 7 17 5 27c3.33301 4.66699 10 7 20 7c6.66699 0 14.667 -1.33301 24 -4c23.333 -5.33301 36.666 -14.666 39.999 -27.999z" />
    <glyph glyph-name="slash" unicode="/" horiz-adv-x="536" 
d="M25 57c8 -3.33301 24.6689 14.665 50.002 53.998s54 88.666 86 147.999c18 32 36 66 54 102c18.667 35.333 37 70.666 55 105.999c27.333 54 52.666 105.667 75.999 155c24 48.667 43.333 89 58 121c8 17.333 14.333 31.333 19 42s7.66699 17.334 9 20.001
c7.33301 4.66699 18.666 8 33.999 10c3.33301 0.666992 6.33301 1 9 1c12.667 0 26 -4 40 -12c-4.66699 -5.33301 -19 -30.333 -43 -75c-24 -45.333 -52.333 -99.666 -85 -162.999c-18 -34.667 -36.667 -70.667 -56 -108c-18.667 -36.667 -37.334 -73.667 -56.001 -111
c-16 -30 -31.333 -59.333 -46 -88c-14.667 -29.333 -28.667 -57 -42 -83c-24.667 -48 -45.667 -88.667 -63 -122s-28 -53.666 -32 -60.999c-13.333 -6.66699 -25.333 -10 -36 -10c-9.33301 0 -17.666 2.33301 -24.999 7c-9.33301 6 -14 15.667 -14 29
c0 10.667 2.66699 23.334 8 38.001z" />
    <glyph glyph-name="zero" unicode="0" horiz-adv-x="574" 
d="M305 736c31.333 -0.666992 59 -7.33301 83 -20c23.333 -12.667 44 -29.667 62 -51c32 -39.333 54.333 -88.333 67 -147c12 -53.333 18 -104.333 18 -153v-13c-1.33301 -52.667 -12.666 -107 -33.999 -163c-20.667 -56 -49.334 -102.333 -86.001 -139
c-20 -19.333 -42 -34.666 -66 -45.999c-22.667 -11.333 -47 -17 -73 -17h-4c-51.333 1.33301 -95 19.333 -131 54c-36.667 34 -64 76.667 -82 128c-10 28 -17.333 57.333 -22 88c-4 24 -5.66699 48 -5 72v21c2.66699 58 13.667 116.667 33 176s48 107.666 86 144.999
c20 20.667 43 36.667 69 48c24 11.333 51 17 81 17h4zM453 363.001c0.666992 4 0.999023 8 0.999023 12c0 40.667 -4.33301 84.334 -13 131.001c-9.33301 52 -24.333 95.667 -45 131c-11.333 19.333 -24.333 35 -39 47s-31.334 18.333 -50.001 19h-4
c-32.667 0 -62 -17.333 -88 -52c-27.333 -36 -49.333 -79.333 -66 -130c-9.33301 -27.333 -16.666 -55 -21.999 -83c-5.33301 -28.667 -8.33301 -56.334 -9 -83.001c-0.666992 -7.33301 -1 -14.666 -1 -21.999c0 -41.333 5 -83.333 15 -126
c12 -50.667 29.333 -92.334 52 -125.001c12.667 -18 26.667 -32.667 42 -44c15.333 -10.667 32 -16.667 50 -18h5c31.333 -0.666992 59 17 83 53c26 37.333 46.667 81 62 131c8.66699 26.667 15.334 54 20.001 82c4.66699 27.333 7 53 7 77z" />
    <glyph glyph-name="one" unicode="1" horiz-adv-x="232" 
d="M82 20c2 2.66699 3.66504 10.3311 4.99805 22.998c2 12.667 4 29 6 49c3.33301 36.667 7.33301 82.334 12 137.001c4 55.333 8 111.333 12 168c4 58.667 7.66699 113.667 11 165c3.33301 52 6 92 8 120c-5.33301 -8.66699 -16.333 -22.667 -33 -42
c-17.333 -18.667 -35 -32 -53 -40c-6.66699 3.33301 -11.334 9 -14.001 17c-1.33301 4.66699 -2 9.33398 -2 14.001s0.666992 9.33398 2 14.001c21.333 -1.33301 43 10 65 34s38.667 45.667 50 65c4.66699 2.66699 9.33398 4 14.001 4c8 0 15.667 -3 23 -9
c12.667 -10.667 20.334 -19.667 23.001 -27c-2 -0.666992 -4 -7 -6 -19c-2.66699 -11.333 -5 -27 -7 -47c-3.33301 -36 -6.33301 -82 -9 -138c-3.33301 -56.667 -5.33301 -113.667 -6 -171c-1.33301 -72.667 -0.666016 -138.334 2.00098 -197.001c2.66699 -58 8 -91 16 -99
c-21.333 -28 -44.333 -42 -69 -42c-24 0 -40.667 7 -50 21z" />
    <glyph glyph-name="two" unicode="2" horiz-adv-x="520" 
d="M43 549c3.33301 21.333 9.32715 41.999 17.9941 61.999s19.667 38.333 33 55c26 30.667 59.333 53.667 100 69c26.667 10 55.334 15 86.001 15c17.333 0 35.333 -1.66699 54 -5c48 -8 84 -24.667 108 -50s39.333 -56.333 46 -93c2 -14.667 3 -30 3 -46
c0 -30 -4.33301 -62 -13 -96c-14 -52.667 -34.333 -104.667 -61 -156c-14 -28 -29.667 -55 -47 -81c-16.667 -26.667 -34.334 -51.667 -53.001 -75c-23.333 -29.333 -47 -55 -71 -77c16.667 -10.667 32.334 -21.667 47.001 -33c23.333 -17.333 44 -25.666 62 -24.999
c22 0.666992 37.667 14.334 47 41.001c8.66699 26.667 3 44 -17 52c10 16.667 24.667 30.334 44 41.001c19.333 11.333 36.333 7.33301 51 -12c12.667 -22.667 13.667 -45.334 3 -68.001c-10.667 -22 -27 -40.333 -49 -55c-12 -7.33301 -24.667 -13.333 -38 -18
s-26.333 -7 -39 -7h-4c-34.667 0 -64.667 7.33301 -90 22c-18.667 10.667 -36.667 21.334 -54 32.001l-1 -1c-37.333 -28.667 -71 -43.334 -101 -44.001c-13.333 0 -24.666 1.66699 -33.999 5s-17 8 -23 14c-11.333 11.333 -17 25 -17 41v3
c0.666992 16.667 7 31.334 19 44.001c6.66699 6 15 11 25 15s21.667 5.66699 35 5c19.333 0 37.666 -3.33301 54.999 -10c10 -4 20 -8.33301 30 -13c16 20.667 32.667 44.667 50 72c26.667 41.333 51 86 73 134c27.333 58.667 49 117.667 65 177
c16 58.667 20.667 108.334 14 149.001c-4 21.333 -11.667 39.333 -23 54c-11.333 14 -27.333 23 -48 27c-34 6 -66.667 1.66699 -98 -13c-32 -14.667 -58.667 -34.334 -80 -59.001c-11.333 -14 -20.666 -28.667 -27.999 -44c-7.33301 -16 -12 -32 -14 -48
c-4 -33.333 -0.333008 -62 11 -86c11.333 -24.667 27 -38.667 47 -42c10.667 -2.66699 22.334 -1.33398 35.001 3.99902s25.667 15 39 29c10.667 -8 14.334 -22.333 11.001 -43c-4 -20 -9.66699 -34.333 -17 -43c-17.333 -10 -34.666 -15.333 -51.999 -16
s-33.666 2.66602 -48.999 9.99902c-29.333 12.667 -53.333 36 -72 70c-18 34 -24 73 -18 117zM148.994 73.999c-13.333 5.33301 -27.667 8.33301 -43 9c-22.667 1.33301 -35 -7 -37 -25c-2.66699 -18.667 8.33301 -28.334 33 -29.001c9.33301 0 20 3.66699 32 11
c10 6.66699 20.333 15.334 31 26.001z" />
    <glyph glyph-name="three" unicode="3" horiz-adv-x="507" 
d="M243 759c3.33301 0.666992 7.00684 0.999023 11.0068 0.999023c48.667 0 90 -14.667 124 -44c36.667 -31.333 54.334 -74.666 53.001 -129.999c-0.666992 -17.333 -4.33398 -33.666 -11.001 -48.999c-6 -16 -14 -30.667 -24 -44c-10.667 -14 -22.667 -26.333 -36 -37
l-2 -2c1.33301 -0.666992 2.66602 -1 3.99902 -1c16.667 -7.33301 32 -17 46 -29c22 -18.667 40 -44.667 54 -78c10.667 -26.667 16 -59.334 16 -98.001c0 -9.33301 -0.333008 -18.666 -1 -27.999c-1.33301 -28.667 -6.66602 -55 -15.999 -79s-21 -45.667 -35 -65
c-27.333 -36 -61 -62.667 -101 -80c-29.333 -12.667 -59 -19 -89 -19c-10 0 -20.333 0.666992 -31 2c-37.333 6 -68.333 16.667 -93 32c-24.667 16 -44 34.333 -58 55c-12 17.333 -20.333 35.666 -25 54.999c-4 15.333 -6 30.333 -6 45v10c2 34 13 63.333 33 88
s46.333 36 79 34c14 -5.33301 20 -15.666 18 -30.999c-2.66699 -14.667 -8.33398 -23.334 -17.001 -26.001c-17.333 4.66699 -29 -4.33301 -35 -27c-6 -22 -5.66699 -47.667 1 -77c2.66699 -12 6.66699 -24.333 12 -37c5.33301 -12 11.666 -23.333 18.999 -34
c8.66699 -11.333 18.667 -21.333 30 -30c11.333 -8 24.666 -13.333 39.999 -16c46.667 -8.66699 89 6 127 44c38.667 38 59 93 61 165c1.33301 37.333 -2 69 -10 95c-7.33301 25.333 -17 46.333 -29 63c-12.667 16 -25.334 28.667 -38.001 38
c-24.667 -12 -47 -18.333 -67 -19c-22 -0.666992 -34.333 7 -37 23c-2 14 7.66699 25 29 33s46.666 9.66699 75.999 5c1.33301 -0.666992 2.66602 -1 3.99902 -1c3.33301 4 6.66602 8.33301 9.99902 13c9.33301 12.667 17.333 28.334 24 47.001
c7.33301 18 11.333 39.333 12 64c1.33301 39.333 -9.33398 74 -32.001 104c-22.667 29.333 -53 42.666 -91 39.999c-13.333 -0.666992 -25.333 -3.66699 -36 -9c-10.667 -6 -20 -13 -28 -21c-17.333 -18 -28 -38.667 -32 -62s-0.666992 -38.333 10 -45
c3.33301 -2 7.33301 -2.66699 12 -2c5.33301 0.666992 11.333 3 18 7c10 -8 13.667 -19.667 11 -35c-3.33301 -14.667 -11.666 -24.667 -24.999 -30c-6 -2 -12.667 -2.66699 -20 -2s-15.666 3.33398 -24.999 8.00098c-30 15.333 -43.667 41.666 -41 78.999
c3.33301 37.333 20.333 69.333 51 96c13.333 11.333 28.666 21 45.999 29c18 7.33301 38 11.333 60 12zM279.007 439.999c-25.333 4 -37.667 2.33203 -37 -5.00098c0.666992 -8 11 -8.66699 31 -2c4 1.33301 8.33301 3 13 5c-2.66699 0.666992 -5 1.33398 -7 2.00098z" />
    <glyph glyph-name="four" unicode="4" horiz-adv-x="537" 
d="M280 5c-1.33301 5.33301 -2.00098 13.999 -2.00098 25.999v1c0 13.333 0.666992 29 2 47c2.66699 34 6.66699 74.667 12 122c2.66699 24.667 5.66699 49 9 73c-4.66699 1.33301 -9.66699 3 -15 5c-16.667 4.66699 -34 9.66699 -52 15c-32.667 10 -64.667 19.667 -96 29
h-2c-21.333 -20.667 -44.333 -29.667 -69 -27c-18 1.33301 -29.667 10.333 -35 27c-2 5.33301 -3 10 -3 14c0 10.667 4.33301 19.334 13 26.001c4 3.33301 9 6 15 8c6 1.33301 13 2 21 2c7.33301 -0.666992 16 -2 26 -4c2.66699 5.33301 5.33398 11.666 8.00098 18.999
c17.333 43.333 35 93.666 53 150.999c11.333 38.667 22 77 32 115s17.333 71.667 22 101c14 10 28.333 15 43 15c9.33301 0 18.666 -2 27.999 -6c24 -10.667 33 -23.667 27 -39c-9.33301 -22 -20 -51.333 -32 -88s-25 -74.667 -39 -114c-8 -20.667 -16.333 -41 -25 -61
c-8 -20 -17 -39 -27 -57c-10 -19.333 -20.667 -36.666 -32 -51.999c4 -0.666992 8 -1.66699 12 -3c33.333 -11.333 66.333 -23.333 99 -36c12 -4.66699 22.667 -9 32 -13c1.33301 13.333 3 26.333 5 39c6.66699 47.333 12.334 89.666 17.001 126.999
c5.33301 38 8.66602 63.667 9.99902 77c4 2 8.33301 3 13 3c6.66699 0 13.667 -1.66699 21 -5c12.667 -6.66699 20.667 -16 24 -28c-0.666992 -3.33301 -2.66699 -18.666 -6 -45.999c-3.33301 -28 -7 -61.333 -11 -100c-2.66699 -21.333 -5 -43.333 -7 -66l-1 -6
c10.667 3.33301 20 8.66602 28 15.999c12.667 10.667 21.667 23 27 37c4.66699 14 2 26 -8 36c6.66699 14 21 21.333 43 22s34.667 -9.33301 38 -30c1.33301 -5.33301 2 -10.333 2 -15c0 -8 -1.33301 -15.667 -4 -23c-4.66699 -12 -11.334 -22.667 -20.001 -32
c-16.667 -17.333 -38.667 -29.666 -66 -36.999c-14 -4 -28.333 -6 -43 -6l-2 -30c-4 -52.667 -5.66699 -100 -5 -142c0.666992 -42.667 6.33398 -66.667 17.001 -72c-7.33301 -21.333 -24.666 -33.666 -51.999 -36.999c-4 -0.666992 -8 -1 -12 -1c-20 0 -31 7.66699 -33 23z
M67.999 336.999c-9.33301 0 -13.668 -2 -13.001 -6c0.666992 -4.66699 6.33398 -7.33398 17.001 -8.00098c3.33301 -0.666992 8 3.33301 14 12c-7.33301 0.666992 -13.333 1.33398 -18 2.00098z" />
    <glyph glyph-name="five" unicode="5" horiz-adv-x="506" 
d="M241 42c43.333 8.66699 74.3398 33.6631 93.0068 74.9961c19.333 41.333 26.666 85 21.999 131c-2.66699 31.333 -10.334 61 -23.001 89s-30.334 50.333 -53.001 67c-19.333 14.667 -42 24 -68 28c-25.333 4 -54.333 0.666992 -87 -10
c-6 0.666992 -11 3.33398 -15 8.00098c-3.33301 5.33301 -5.66602 9.33301 -6.99902 12c6.66699 17.333 12 35.333 16 54c4 19.333 7 37.666 9 54.999c2 28 2 52.667 0 74c-8 0 -15 0.333008 -21 1c-7.33301 0.666992 -13.666 2.33398 -18.999 5.00098
c-5.33301 2 -9.33301 4.66699 -12 8c-10 10.667 -11.667 23.667 -5 39s18 23 34 23c20.667 0 37.334 -12 50.001 -36l22 6c38 10 77 18.333 117 25c27.333 4.66699 53 7.66699 77 9h7c20.667 0 37.667 -3.33301 51 -10c5.33301 -2.66699 9.66602 -6.33398 12.999 -11.001
c3.33301 -4 5.66602 -9 6.99902 -15c4 -16 1 -32.333 -9 -49c-10 -17.333 -20.333 -24 -31 -20c-8.66699 10 -22.667 17.333 -42 22c-19.333 4 -41 6.66699 -65 8c-36 2 -72.667 1.66699 -110 -1c-8.66699 -0.666992 -16.334 -1.33398 -23.001 -2.00098
c10 -43.333 6.66699 -98.333 -10 -165c46 14 86.667 18.667 122 14c36 -4 66.333 -14.667 91 -32c17.333 -11.333 32.333 -25 45 -41c12 -16.667 21.667 -34.667 29 -54c10.667 -28 16 -57.667 16 -89c0 -8.66699 -0.333008 -17.334 -1 -26.001
c-4 -41.333 -16.667 -79.666 -38 -114.999c-18 -29.333 -42.333 -54.666 -73 -75.999s-67.334 -35.333 -110.001 -42c-12.667 -2 -24.667 -3 -36 -3c-14.667 0 -28.334 1.66699 -41.001 5c-22.667 6 -42.334 15.667 -59.001 29c-14.667 11.333 -27 25.333 -37 42
c-10 16 -17.667 33 -23 51c-6 21.333 -9 42.333 -9 63c0 20 3 40 9 60c12 40 35.333 62.667 70 68c6.66699 0.666992 12.334 0.333984 17.001 -0.999023c5.33301 -1.33301 9.66602 -3.66602 12.999 -6.99902c11.333 -8.66699 17 -21 17 -37
c-0.666992 -16 -7.66699 -24.333 -21 -25c-10 6.66699 -19 10.334 -27 11.001s-14.667 -1 -20 -5c-10.667 -8.66699 -16.667 -24 -18 -46c-0.666992 -22 3.33301 -45 12 -69c5.33301 -12.667 11.666 -25 18.999 -37c8 -12 17 -22.333 27 -31c13.333 -12 29 -20.667 47 -26
s38.333 -5.66602 61 -0.999023zM107.007 675.996c-9.33301 0.666992 -15.333 -2.00098 -18 -8.00098c-2 -5.33301 2.33301 -8.66602 13 -9.99902c4.66699 -0.666992 11 -0.666992 19 0c-4 11.333 -8.66699 17.333 -14 18z" />
    <glyph glyph-name="six" unicode="6" horiz-adv-x="475" 
d="M313 476c-28.667 -4.66699 -48.333 -0.666016 -59 12.001c-11.333 13.333 -10.333 30.333 3 51c10 -0.666992 19.333 0 28 2c8 2.66699 15.333 6.66699 22 12c20 15.333 31 38.333 33 69c2.66699 30 -4.66602 54.333 -21.999 73c-6 6 -13 11 -21 15s-17.333 6 -28 6
c-28.667 1.33301 -53.667 -11 -75 -37c-20.667 -25.333 -38 -58.333 -52 -99c-7.33301 -22 -13.333 -45.333 -18 -70c-5.33301 -25.333 -9.33301 -51 -12 -77c-3.33301 -31.333 -5 -62.333 -5 -93c6 10.667 12.667 20.334 20 29.001c17.333 20.667 36.333 36 57 46
c17.333 8.66699 35.333 14 54 16c19.333 2 38 1.33301 56 -2c33.333 -7.33301 63 -24.666 89 -51.999c26.667 -26.667 43 -61.667 49 -105c1.33301 -13.333 2 -27 2 -41v-20c-1.33301 -22 -5 -44 -11 -66c-11.333 -40 -32 -75.333 -62 -106
c-27.333 -27.333 -65.333 -41 -114 -41c-6 0 -11.667 0.333008 -17 1c-30.667 1.33301 -57.334 9 -80.001 23c-23.333 14 -43.333 32.667 -60 56c-30.667 42.667 -50.667 96.334 -60 161.001c-3.33301 28.667 -5 57.667 -5 87c0 36 2.66699 71.667 8 107
c4.66699 28 11.334 55.667 20.001 83c8 26.667 18 52 30 76c21.333 43.333 48.666 78.666 81.999 105.999c31.333 26 67 39 107 39h6c16 -0.666992 30.667 -4.33398 44 -11.001c14 -6.66699 26 -15.334 36 -26.001c23.333 -25.333 37.333 -57 42 -95
c4 -38.667 -4 -70.334 -24 -95.001c-7.33301 -9.33301 -16 -17 -26 -23c-10.667 -6 -23 -9.66699 -37 -11zM113.001 240.001c6.66699 -56.667 19.6689 -104.667 39.002 -144c20 -39.333 46.333 -60 79 -62c34 -2 61.667 9.33301 83 34c20.667 25.333 35 55 43 89
c4.66699 18.667 7.66699 37.667 9 57c0.666992 19.333 0 37.333 -2 54c-6.66699 45.333 -26.667 80 -60 104c-32.667 24 -67.334 28.333 -104.001 13c-19.333 -8.66699 -38.333 -24 -57 -46c-12.667 -14.667 -24.334 -33.667 -35.001 -57c1.33301 -14.667 3 -28.667 5 -42z
" />
    <glyph glyph-name="seven" unicode="7" horiz-adv-x="486" 
d="M171 5c3.33301 27.333 10.668 69.001 22.001 125.001c11.333 56.667 25.666 116.667 42.999 180c8.66699 33.333 18 66.666 28 99.999s20.667 64.666 32 93.999c18.667 49.333 38 91 58 125c-9.33301 0.666992 -19.666 2 -30.999 4c-42 6 -84 10.333 -126 13
c-28 2 -53.667 2.66699 -77 2c-23.333 -1.33301 -40.333 -4.66602 -51 -9.99902c-9.33301 -2 -18 5.66699 -26 23c-4.66699 10.667 -7 20.334 -7 29.001c0 6 1 12 3 18c1.33301 4.66699 4 9 8 13c3.33301 3.33301 8 5.66602 14 6.99902c8.66699 2.66699 19 4 31 4
c10 0 21.333 -1 34 -3c27.333 -4 56 -10.333 86 -19c45.333 -12 89 -25.333 131 -40c11.333 -4 21.666 -7.66699 30.999 -11c18 22.667 36.333 32.667 55 30c16 -2.66699 26 -11.334 30 -26.001c1.33301 -4.66699 2 -8.66699 2 -12c0 -10 -4.33301 -18 -13 -24
c-3.33301 -2.66699 -7.66602 -4.66699 -12.999 -6c-6 -1.33301 -12.667 -1.66602 -20 -0.999023c-6 0.666992 -12.667 1.33398 -20 2.00098c-5.33301 -12 -11.333 -26.333 -18 -43c-22.667 -58.667 -42.334 -134 -59.001 -226
c-9.33301 -49.333 -16.666 -102.333 -21.999 -159c-4.66699 -56.667 -6 -114.667 -4 -174c-12.667 -14.667 -31.334 -25.334 -56.001 -32.001c-6 -2 -12.333 -3 -19 -3c-16.667 0 -32 6.66699 -46 20zM425.002 647.001c10.667 -1.33301 15.332 0.999023 13.999 6.99902
s-6.66602 9.66699 -15.999 11c-3.33301 0.666992 -8.33301 -4.66602 -15 -15.999c7.33301 -1.33301 13 -2 17 -2z" />
    <glyph glyph-name="eight" unicode="8" horiz-adv-x="457" 
d="M298 631c-0.666992 16 -3.33301 29.3379 -8 40.0049c-4.66699 10 -10.667 17.667 -18 23c-14.667 10.667 -32.334 12.667 -53.001 6c-20 -6.66699 -37.333 -19.334 -52 -38.001c-8 -10 -14.333 -21.333 -19 -34s-7 -26.334 -7 -41.001
c0.666992 -16 4.66699 -31.667 12 -47c6.66699 -15.333 15.667 -30 27 -44c12 -15.333 25.333 -30.333 40 -45c2 2 4 3.66699 6 5c48.667 39.333 86.334 75.333 113.001 108c14.667 18 24 34.667 28 50c4.66699 15.333 1.66699 29 -9 41c5.33301 21.333 15 35.333 29 42
c14 7.33301 28.333 2.33301 43 -15v-3c0 -32.667 -8.66699 -63.334 -26 -92.001c-18.667 -29.333 -41.667 -58 -69 -86c-26 -26 -54 -51.667 -84 -77l8 -6c31.333 -25.333 59.666 -51.666 84.999 -78.999c21.333 -23.333 38.333 -47.666 51 -72.999
c12.667 -26 16.667 -54.333 12 -85c-4.66699 -34 -14 -63.333 -28 -88s-30.667 -44.334 -50 -59.001c-34 -26.667 -72.333 -40 -115 -40c-4.66699 0 -9.66699 0.333008 -15 1c-48 3.33301 -88 21.333 -120 54c-17.333 17.333 -30.666 38.666 -39.999 63.999
c-7.33301 20 -11 42 -11 66c0 6.66699 0.333008 13.667 1 21c2 22 9.33301 44.333 22 67c12 22 27.667 44 47 66c20 23.333 42 46.333 66 69l-17 18c-21.333 21.333 -39.333 44.333 -54 69s-21.667 52.667 -21 84c0 31.333 5.33301 57.666 16 78.999
c11.333 21.333 25.333 38 42 50c13.333 10 28.333 17.333 45 22c15.333 4 30.666 6 45.999 6h3c30.667 -0.666992 58.334 -8.33398 83.001 -23.001c24 -14.667 37.667 -34 41 -58c-3.33301 -9.33301 -11 -16.666 -23 -21.999c-12 -4.66699 -21 -3.33398 -27 3.99902z
M235.001 340.005c-12.667 12 -26.001 23.665 -40.001 34.998c-25.333 -22.667 -47.333 -46 -66 -70c-14 -17.333 -25.667 -35.666 -35 -54.999c-9.33301 -18.667 -14.333 -38 -15 -58c-1.33301 -22.667 1 -43 7 -61c6.66699 -17.333 15.334 -32.333 26.001 -45
c20 -23.333 45 -36.666 75 -39.999s57 5 81 25c12.667 10 23.667 23.667 33 41c8.66699 16.667 15 37 19 61c6 34 0 64.333 -18 91s-40.333 52 -67 76z" />
    <glyph glyph-name="nine" unicode="9" horiz-adv-x="463" 
d="M145 263c28.667 4.66699 48.667 0.333008 60 -13c10.667 -12.667 9.33398 -29.667 -3.99902 -51c-10 1.33301 -19.333 0.666016 -28 -2.00098c-8 -2.66699 -15.333 -6.66699 -22 -12c-20 -15.333 -31.333 -38.666 -34 -69.999c-2.66699 -30.667 5 -55 23 -73
c6 -6.66699 13 -11.667 21 -15c8 -4 17.333 -6 28 -6c15.333 0 29.666 3.66699 42.999 11c12.667 8 24.667 19 36 33c20.667 26 37.334 60.667 50.001 104c13.333 43.333 22.666 89.666 27.999 138.999c3.33301 30 5 60 5 90c-6 -10 -12.333 -19 -19 -27
c-17.333 -21.333 -36.666 -37 -57.999 -47c-17.333 -8.66699 -35.333 -14 -54 -16c-19.333 -2 -38 -1 -56 3c-33.333 7.33301 -63.333 24.333 -90 51c-26.667 27.333 -43 63 -49 107c-1.33301 12.667 -2 26.334 -2 41.001v19c1.33301 22.667 5 45 11 67
c11.333 40.667 32.333 76.334 63 107.001c27.333 27.333 65.666 41 114.999 41h17c30 -2 56.667 -10 80 -24c24 -14.667 44.333 -33.334 61 -56.001c31.333 -42.667 51.666 -96.667 60.999 -162c4 -30 6 -60.333 6 -91c0 -34.667 -2.66699 -69.334 -8 -104.001
c-4.66699 -28.667 -11 -56.667 -19 -84c-8.66699 -26.667 -18.667 -52 -30 -76c-22 -44 -49.667 -80 -83 -108c-32 -26.667 -69 -40 -111 -40h-3c-14 0 -27 2.33301 -39 7s-23 11 -33 19c-27.333 22.667 -44.333 53.334 -51 92.001c-7.33301 38.667 -2.66602 72 14.001 100
c6.66699 12 16 22.333 28 31c12 8 26.333 13 43 15zM347 487.999c-5.33301 60 -17.333 109.667 -36 149c-10 20.667 -22 37.334 -36 50.001s-30 19.667 -48 21s-34.333 -1.66699 -49 -9c-14.667 -8 -27.334 -18.333 -38.001 -31
c-20.667 -24.667 -34.667 -55.334 -42 -92.001c-7.33301 -37.333 -8.66602 -72 -3.99902 -104c6.66699 -45.333 26.334 -80.333 59.001 -105c33.333 -24 68.333 -28 105 -12c20 8 39.333 23 58 45c12 14.667 23 33.667 33 57c-0.666992 10 -1.33398 20.333 -2.00098 31z" />
    <glyph glyph-name="colon" unicode=":" horiz-adv-x="129" 
d="M22 -7c2 10.667 0.332031 20 -5.00098 28c-4 6 -6 13.667 -6 23c0 4.66699 0.333008 9.66699 1 15c2.66699 15.333 12.667 25 30 29c8.66699 2 16.334 3 23.001 3s11.667 -1 15 -3c11.333 -4.66699 20 -14 26 -28c5.33301 -12 7 -23.667 5 -35c0 -2 -0.333008 -4 -1 -6
c-3.33301 -14 -17 -24 -41 -30c-10 -2 -18.667 -3 -26 -3c-10 0 -17 2.33301 -21 7zM8.99902 299c-0.666992 4.66699 -1.00098 9.33496 -1.00098 14.002c0 9.33301 2 18.666 6 27.999c6 13.333 14.333 22.333 25 27c4 2 9 3 15 3c6.66699 0 14.667 -1 24 -3
c17.333 -4 27 -13.667 29 -29c2.66699 -16 1.33398 -28.333 -3.99902 -37c-6 -8.66699 -8 -18.334 -6 -29.001l-2 -2c-4.66699 -3.33301 -11 -5 -19 -5c-6.66699 0 -15 1.33301 -25 4c-24.667 5.33301 -38.667 15 -42 29z" />
    <glyph glyph-name="semicolon" unicode=";" horiz-adv-x="120" 
d="M42 -106c-2 0.666992 -4.33203 2.33301 -6.99902 5s-3.66699 5.66699 -3 9c6 4 12.667 14.333 20 31c8 16 10.333 30 7 42c-13.333 -6.66699 -26.333 -5 -39 5c-11.333 8 -17 18.667 -17 32c0 2 0.333008 4.33301 1 7c2.66699 20 11.667 33 27 39
c11.333 4.66699 20.333 7 27 7h7c9.33301 -2.66699 17.666 -9 24.999 -19c6.66699 -9.33301 9.66699 -24 9 -44v-2c-0.666992 -12.667 -6.66699 -32.667 -18 -60c-10.667 -28 -23.667 -45.333 -39 -52zM5.00098 305.999c-0.666992 4.66699 -1 9.33203 -1 13.999
c0 8.66699 2 17.334 6 26.001c5.33301 13.333 13.333 22 24 26c3.33301 2 8 3 14 3s13.333 -1 22 -3c17.333 -3.33301 27 -12.666 29 -27.999s0.333008 -27 -5 -35s-7 -17 -5 -27c-0.666992 -1.33301 -1.33398 -2.33301 -2.00098 -3c-4 -2.66699 -10 -4 -18 -4
c-6.66699 0 -14.667 1 -24 3c-23.333 5.33301 -36.666 14.666 -39.999 27.999z" />
    <glyph glyph-name="less" unicode="&#x3c;" horiz-adv-x="341" 
d="M261 600c10 0 20.332 -12.333 30.999 -37c11.333 -24 11 -42.667 -1 -56c-49.333 -36 -123 -90 -221 -162l216 -141c10 -10.667 15 -22 15 -34c0 -9.33301 -2.66699 -19.333 -8 -30c-11.333 -21.333 -24.666 -32 -39.999 -32c-2 0 -4 0.333008 -6 1
c-50.667 52.667 -127 131.667 -229 237c14.667 15.333 29.667 31 45 47c16 16 32 32.333 48 49c30 30 58.667 59.333 86 88c26.667 28 48 51.333 64 70z" />
    <glyph glyph-name="equal" unicode="=" horiz-adv-x="341" 
d="M304 372c13.333 -10.667 20.6689 -19.9971 22.002 -27.9971v-4c0 -6.66699 -3 -14.334 -9 -23.001c-50 6 -96.333 6.33301 -139 1c-22.667 -2.66699 -47.334 -4 -74.001 -4c-22.667 0 -47 1 -73 3c-17.333 7.33301 -26 16.333 -26 27v4
c2.66699 12.667 13.667 22.667 33 30c4.66699 -5.33301 12.334 -9 23.001 -11c11.333 -2 24.666 -3 39.999 -3c28.667 -0.666992 62 0.666016 100 3.99902c37.333 3.33301 71.666 4.66602 102.999 3.99902zM306.003 273.003c14 -10 21.667 -18.9971 23 -26.9971v-4
c0 -6.66699 -3.33301 -14.334 -10 -23.001c-49.333 5.33301 -95.333 5.66602 -138 0.999023c-22.667 -2.66699 -47.334 -4 -74.001 -4c-22.667 0 -47 1 -73 3c-17.333 7.33301 -26 16.333 -26 27v4c2.66699 12.667 13.334 22.667 32.001 30
c8.66699 -9.33301 27.667 -14 57 -14s62 1 98 3c18.667 1.33301 37.667 2.66602 57 3.99902c19.333 0.666992 37.333 0.666992 54 0z" />
    <glyph glyph-name="greater" unicode="&#x3e;" horiz-adv-x="305" 
d="M294 319c-50.667 -52.667 -126.667 -132 -228 -238h-7c-14.667 0 -27.667 10.667 -39 32c-6 10 -9 20 -9 30c0 12 5 23 15 33c48 31.333 120 78.666 216 141.999c-48.667 36 -122.334 89.667 -221.001 161c-12 14 -12.333 33 -1 57c11.333 24.667 22 37 32 37
c8 -10 18 -21.667 30 -35s25.333 -27.333 40 -42c26.667 -28 55.334 -57.667 86.001 -89c31.333 -31.333 60 -60.666 86 -87.999z" />
    <glyph glyph-name="question" unicode="?" horiz-adv-x="398" 
d="M227 773c30 -4 55.3281 -12.335 75.9951 -25.002s37.334 -28 50.001 -46c23.333 -33.333 35 -70.333 35 -111v-3c-0.666992 -42 -9.66699 -76.667 -27 -104c-27.333 -42 -54.666 -73 -81.999 -93c-28 -19.333 -50 -39.333 -66 -60c-8 -10.667 -13.667 -22.667 -17 -36
c-3.33301 -14 -3 -30.667 1 -50c-4.66699 -7.33301 -14 -12.333 -28 -15c-4 -0.666992 -8 -1 -12 -1c-8 0.666992 -15.333 3 -22 7c-4.66699 43.333 1.66602 79 18.999 107c16.667 28.667 37.334 56.334 62.001 83.001c13.333 14 27 28.333 41 43c14 15.333 27 32 39 50
c14 20 21.333 46.667 22 80s-6 63.333 -20 90c-7.33301 14 -17 26 -29 36s-26 16.333 -42 19c-13.333 2.66699 -25.666 2.66699 -36.999 0s-22 -6.66699 -32 -12c-29.333 -17.333 -50.333 -43 -63 -77c-12.667 -34.667 -13.334 -60 -2.00098 -76
c4 -5.33301 9.33301 -9 16 -11c7.33301 -2 16 -1.33301 26 2c12 -14 17.333 -31 16 -51c-1.33301 -19.333 -14.333 -27.333 -39 -24c-23.333 4 -41.666 12 -54.999 24c-14 12 -24 26 -30 42c-4 12 -6 25 -6 39c0 18.667 4 38.334 12 59.001c15.333 36 39.333 65 72 87
c16.667 10.667 35.334 18.667 56.001 24c12.667 3.33301 26 5 40 5c8.66699 0 17.334 -0.666992 26.001 -2zM132.995 45.998l-0.00292969 8.00098c0 10 2.66699 19.667 8 29c6.66699 12 15 19.667 25 23c2.66699 1.33301 5.66699 2 9 2c6.66699 0 15.334 -1.66699 26.001 -5
c15.333 -5.33301 23.333 -15 24 -29v-5c0.666992 -12.667 -1.66602 -22.334 -6.99902 -29.001c-6 -6.66699 -8.33301 -15 -7 -25c-3.33301 -3.33301 -8.33301 -5 -15 -5c-7.33301 0 -16.666 2 -27.999 6c-21.333 6.66699 -33 16.667 -35 30z" />
    <glyph glyph-name="at" unicode="@" horiz-adv-x="610" 
d="M405 425c-2.66699 -20 -10.3369 -29.6641 -23.0039 -28.9971c-13.333 0.666992 -22.333 5 -27 13c6 4.66699 7.66699 13.667 5 27c-2 12.667 -10.333 19.667 -25 21c-12 0.666992 -24.667 -8.33301 -38 -27c-12.667 -18.667 -23.667 -40.334 -33 -65.001
c-12 -30 -19 -59 -21 -87c-2.66699 -28 3.66602 -43.333 18.999 -46c18 -2.66699 37 9.33301 57 36c20.667 26 32.667 53.667 36 83c10 13.333 21 15.333 33 6c12 -8.66699 18.333 -18 19 -28c-4 -6 -7.33301 -14.667 -10 -26
c-3.33301 -10.667 -5.66602 -22.334 -6.99902 -35.001c-2 -19.333 -1.33301 -37.666 2 -54.999c2.66699 -17.333 10.334 -28.333 23.001 -33c4.66699 -2 11 0 19 6c7.33301 5.33301 15.333 13.666 24 24.999c15.333 20.667 29.666 49.334 42.999 86.001
c14 36.667 21.333 75.667 22 117c0 34 -9 66.667 -27 98c-18.667 31.333 -42 56.333 -70 75c-15.333 10.667 -31.666 19 -48.999 25s-34.666 9 -51.999 9c-15.333 0 -32.333 -2.66699 -51 -8s-37 -13.333 -55 -24c-34.667 -20.667 -65.667 -50.334 -93 -89.001
c-26.667 -38.667 -40.667 -85.667 -42 -141c-1.33301 -44 5.33398 -83.333 20.001 -118s33.667 -64.334 57 -89.001c20 -20 41.667 -37 65 -51c23.333 -13.333 47 -23.666 71 -30.999c45.333 -12.667 87 -14 125 -4s61.333 31.667 70 65
c11.333 10.667 22.333 11.334 33 2.00098c10.667 -10 14 -20.667 10 -32c-14 -18 -31 -33 -51 -45c-20 -12.667 -42 -22.334 -66 -29.001c-24.667 -6.66699 -50.334 -10 -77.001 -10c-21.333 0 -43.333 2 -66 6c-51.333 10 -97.333 31.667 -138 65
c-33.333 27.333 -60.666 63.333 -81.999 108c-21.333 44 -32 96.333 -32 157v6c0.666992 57.333 16.334 107.666 47.001 150.999c30 43.333 66.333 77 109 101c23.333 12.667 47.666 22.334 72.999 29.001c24 6.66699 47.333 10 70 10h3
c85.333 -1.33301 150.333 -26 195 -74c43.333 -48 65 -101 65 -159v-4c-1.33301 -59.333 -13 -108.666 -35 -147.999c-21.333 -40 -45 -69 -71 -87c-14 -10 -27.667 -16.667 -41 -20s-25.333 -3.33301 -36 0c-10.667 4 -19.667 9 -27 15c-7.33301 6.66699 -13 13.667 -17 21
c-8.66699 13.333 -13.667 27.333 -15 42c-1.33301 13.333 -2.66602 23.333 -3.99902 30c-2.66699 -6.66699 -8.33398 -16 -17.001 -28c-10 -12.667 -21.667 -23.334 -35 -32.001c-7.33301 -5.33301 -14.666 -9 -21.999 -11c-8 -2.66699 -16 -3.33398 -24 -2.00098
c-26.667 4 -43.667 21 -51 51c-8 29.333 -7.66699 61.333 1 96c5.33301 23.333 14 45.666 26 66.999c12 20.667 26.667 37.667 44 51c11.333 8.66699 23.666 15.334 36.999 20.001c13.333 4 27.333 5.33301 42 4c23.333 -2 40.333 -9 51 -21s15.334 -24 14.001 -36z" />
    <glyph glyph-name="A" unicode="A" 
d="M635 743c-1.33301 -27.333 -1.66309 -69.6719 -0.996094 -127.005c0 -58 2 -120.333 6 -187c0.666992 -13.333 1.33398 -26.333 2.00098 -39c24.667 6 41 11.333 49 16c14.667 -2 22 -10.667 22 -26v-7c-2 -19.333 -8 -29 -18 -29c-14.667 -3.33301 -30.667 -6 -48 -8
c2.66699 -33.333 6 -66 10 -98c7.33301 -62.667 17.333 -114 30 -154c6.66699 -22 14 -39.333 22 -52c8.66699 -12.667 18 -19.667 28 -21c16 -1.33301 31 12 45 40c14 27.333 26.333 57 37 89c6.66699 21.333 12.334 41 17.001 59l10 40c5.33301 1.33301 11.666 2 18.999 2
c6.66699 0.666992 12.334 0 17.001 -2c-0.666992 -6 -2.33398 -14.667 -5.00098 -26s-6 -24 -10 -38c-7.33301 -26.667 -17 -55.667 -29 -87s-26.667 -56.666 -44 -75.999c-9.33301 -10.667 -19 -18.667 -29 -24c-8.66699 -4.66699 -18 -7 -28 -7c-2 0.666992 -4 1 -6 1
c-24 2.66699 -45.333 12 -64 28s-34.667 37 -48 63c-22 41.333 -38.333 92 -49 152c-6.66699 34.667 -12.667 70.334 -18 107.001c-22 0 -44.333 1 -67 3c-20.667 2 -40.334 4.66699 -59.001 8c-3.33301 0.666992 -6.66602 1 -9.99902 1
c-6.66699 -26.667 -13.334 -53.667 -20.001 -81c-10.667 -44 -22.667 -86 -36 -126c-24 -74.667 -52 -137.667 -84 -189c-32.667 -52 -72.334 -78.667 -119.001 -80c-1.33301 -0.666992 -2.66602 -1 -3.99902 -1c-32 0.666992 -60 16.334 -84 47.001
c-24.667 32 -41.334 69 -50.001 111c-4 19.333 -6 38.666 -6 57.999c0 9.33301 0.333008 18.666 1 27.999c2.66699 28.667 10.667 54 24 76c11.333 18.667 26.333 34 45 46c19.333 12 43 19 71 21c19.333 -4 30.333 -18.667 33 -44
c2.66699 -26 -2.66602 -42.667 -15.999 -50c-21.333 8 -39.333 10.333 -54 7s-26.334 -10.666 -35.001 -21.999c-10.667 -13.333 -17.334 -30.666 -20.001 -51.999c-2.66699 -22 -2.33398 -44.333 0.999023 -67c4.66699 -34 15.667 -65 33 -93c16.667 -28 37 -41.333 61 -40
c12.667 0 24.334 5.66699 35.001 17c10.667 10.667 21 25.667 31 45c18 36 34.333 82.667 49 140c14.667 58 29.667 119.667 45 185c9.33301 42.667 19.333 85.667 30 129c10 43.333 21 85 33 125c21.333 74 46.333 136 75 186c19.333 34.667 41.666 57.334 66.999 68.001
c-0.666992 2 -1.33398 3.66699 -2.00098 5c2.66699 12.667 14 19.334 34 20.001c1.33301 0.666992 3 0.666992 5 0c18 0 34.333 -6 49 -18c7.33301 -5.33301 13.333 -12.333 18 -21s7.66699 -19 9 -31zM511.003 721.994c-13.333 -34 -26.668 -78.334 -40.001 -133.001
c-7.33301 -28.667 -14.333 -59.667 -21 -93c-7.33301 -33.333 -15 -67.666 -23 -102.999c-1.33301 -5.33301 -2.66602 -10.333 -3.99902 -15c3.33301 -0.666992 6.33301 -1 9 -1c21.333 -2.66699 43.333 -4 66 -4c16.667 0 33.334 0.666992 50.001 2l-3 33
c-2.66699 32.667 -5 65 -7 97c-1.33301 32 -2.33301 62.333 -3 91c-2 52.667 -3.66699 97.334 -5 134.001c-0.666992 9.33301 -1.33398 17.666 -2.00098 24.999c-6 -8 -11.667 -19 -17 -33z" />
    <glyph glyph-name="B" unicode="B" horiz-adv-x="650" 
d="M333 674c0.666992 -4.66699 0.329102 -14.3311 -1.00391 -28.998c-0.666992 -14 -2.33398 -31.667 -5.00098 -53c-3.33301 -39.333 -8.33301 -87.666 -15 -144.999l-2 -16c21.333 2.66699 45 12 71 28c28.667 17.333 52.334 39 71.001 65c10.667 13.333 18.667 28 24 44
s7.33301 32 6 48c-4 46 -25.667 81 -65 105c-39.333 23.333 -82 28 -128 14c-24.667 -8 -48.667 -22 -72 -42s-43.666 -47.667 -60.999 -83c-20.667 -9.33301 -35 -5.33301 -43 12s-3.33301 37.666 14 60.999c28.667 28.667 60 50.667 94 66c34 16 68 26.333 102 31
c15.333 2 30 3 44 3c46 0 88.333 -10.333 127 -31c50.667 -27.333 78.667 -69.333 84 -126c2 -21.333 -0.333008 -41 -7 -59c-6.66699 -18.667 -16 -35.334 -28 -50.001c-22.667 -27.333 -49.667 -48.666 -81 -63.999c-31.333 -16 -54.666 -27 -69.999 -33
c18.667 -3.33301 48.334 -12.333 89.001 -27c40 -14.667 73.667 -40.667 101 -78c15.333 -20 26.666 -43.667 33.999 -71c4 -16.667 6 -35 6 -55c0 -13.333 -1 -27.666 -3 -42.999c-4.66699 -36 -15.334 -68.333 -32.001 -97s-37 -53.334 -61 -74.001
c-26 -22 -54.667 -39.667 -86 -53c-32 -13.333 -64.667 -22 -98 -26c-14.667 -1.33301 -29 -2 -43 -2c-46.667 -0.666992 -91.667 8.66602 -135 27.999c-57.333 24 -97.333 65.333 -120 124c-14.667 36.667 -22 70.667 -22 102c0.666992 24 5 46 13 66
c19.333 48 44.333 78.333 75 91c14.667 4 26.667 5 36 3s16.333 -6 21 -12c9.33301 -10 13.333 -24.333 12 -43s-3.33301 -35.334 -6 -50.001c-18 9.33301 -34.667 9.33301 -50 0c-15.333 -10 -25.666 -25.667 -30.999 -47c-2.66699 -11.333 -3.33398 -24 -2.00098 -38
c0.666992 -14 3.66699 -28.333 9 -43c10 -26 22 -48.667 36 -68c14.667 -19.333 31 -35.333 49 -48c32.667 -24.667 68.667 -37.667 108 -39c38.667 -2 75.334 8 110.001 30c28 18.667 52.667 45.667 74 81s36 79.333 44 132c5.33301 34.667 4.66602 64.667 -2.00098 90
c-7.33301 24.667 -17.666 45.667 -30.999 63c-26 32.667 -58.333 54 -97 64c-36 10 -64 15.333 -84 16l-12 -119c-7.33301 -71.333 -13 -135 -17 -191c-4 -55.333 -3.33301 -85.333 2 -90c-8.66699 -12 -23 -18 -43 -18h-6c-23.333 1.33301 -36.666 13 -39.999 35
c2 8.66699 6 40 12 94c5.33301 54.667 10.666 115.334 15.999 182.001c4 53.333 7.33301 106 10 158c2.66699 51.333 3.66699 94 3 128c0 18 -1 32.667 -3 44c-1.33301 11.333 -3.66602 17.666 -6.99902 18.999c6.66699 29.333 23 47.333 49 54c6.66699 2 13.334 3 20.001 3
c16.667 -0.666992 31 -7.66699 43 -21z" />
    <glyph glyph-name="C" unicode="C" horiz-adv-x="656" 
d="M390 482c-34 -7.33301 -57.667 -3.66797 -71 10.999s-13 35 1 61c18.667 -1.33301 35.667 2.66699 51 12c15.333 8.66699 28 20.667 38 36c14.667 22 23.334 46.667 26.001 74c2 28 -4.33301 50.333 -19 67c-6 7.33301 -13.667 13 -23 17
c-9.33301 3.33301 -20.333 5 -33 5c-26 0 -50 -7.33301 -72 -22c-21.333 -14 -40.666 -33 -57.999 -57c-31.333 -45.333 -54.666 -103 -69.999 -173c-15.333 -70.667 -22 -142 -20 -214c0.666992 -31.333 3 -62.333 7 -93c4 -30 10 -58.667 18 -86
c13.333 -50 33 -91.333 59 -124c25.333 -33.333 57 -51.666 95 -54.999c36 -3.33301 68.333 1 97 13c28 12 53.333 28 76 48c14 12.667 27 27 39 43c11.333 15.333 21.666 31 30.999 47c17.333 30 31 59 41 87c9.33301 28 15.666 49.667 18.999 65
c8.66699 -0.666992 21 -1.33398 37 -2.00098c-4 -15.333 -11 -38.666 -21 -69.999c-10.667 -30.667 -25.667 -62.667 -45 -96c-10 -18 -21.667 -35.667 -35 -53s-28 -33.333 -44 -48c-25.333 -22.667 -54.333 -40.667 -87 -54c-26.667 -10.667 -56 -16 -88 -16
c-8 0 -16 0.333008 -24 1c-45.333 3.33301 -85 14.333 -119 33s-63 43 -87 73c-38.667 47.333 -65 104.666 -79 171.999c-8.66699 42 -13 84.667 -13 128c0.666992 26 2.33398 52 5.00098 78c4.66699 36.667 12 72.667 22 108c10.667 34.667 23.667 67.667 39 99
c29.333 57.333 67.666 104.666 114.999 141.999c46.667 36 101 54 163 54h3c16.667 0 31.667 -2.66699 45 -8s25.333 -12.666 36 -21.999c27.333 -23.333 44.666 -55.666 51.999 -96.999c6.66699 -40.667 2 -77.667 -14 -111c-8.66699 -18 -20.667 -33.667 -36 -47
s-34.333 -22 -57 -26z" />
    <glyph glyph-name="D" unicode="D" horiz-adv-x="738" 
d="M702 362c-2 -64.667 -13.3281 -122.666 -33.9951 -173.999s-47.334 -95.666 -80.001 -132.999c-26.667 -30.667 -56 -56.334 -88 -77.001c-32.667 -21.333 -66.334 -37.333 -101.001 -48s-68.667 -16 -102 -16c-28.667 0 -56.667 3.66699 -84 11
c-60.667 16.667 -107.334 53.334 -140.001 110.001c-12.667 22 -21.334 43.333 -26.001 64c-2.66699 15.333 -4 30 -4 44v15c3.33301 34.667 14 64.667 32 90s37 42 57 50c14.667 4 26.667 5 36 3s16.333 -5.66699 21 -11c9.33301 -10 13.333 -24.667 12 -44
c-1.33301 -18.667 -3.33301 -35.667 -6 -51c-19.333 13.333 -38.333 14.666 -57 3.99902c-18.667 -11.333 -31.334 -28.666 -38.001 -51.999c-4 -12.667 -5.33301 -26.667 -4 -42s6 -30.666 14 -45.999c13.333 -27.333 29.333 -49.333 48 -66s39.334 -28.667 62.001 -36
c40.667 -13.333 84.667 -11 132 7c47.333 17.333 90 47.666 128 90.999c32 36 59 80 81 132c21.333 51.333 33.333 109.333 36 174c3.33301 67.333 -7.66699 129.666 -33 186.999c-24.667 56.667 -57.334 101.334 -98.001 134.001c-22 18 -45.333 31.333 -70 40
c-24.667 9.33301 -50 13 -76 11c-31.333 -2 -62.666 -13 -93.999 -33s-60.333 -51.333 -87 -94c-21.333 -9.33301 -36 -5 -44 13c-7.33301 17.333 -2.66602 37.666 14.001 60.999c23.333 22 48.666 40.333 75.999 55c27.333 14 56 24.333 86 31
c24.667 5.33301 49.667 8 75 8c30.667 0 61.667 -4 93 -12c56 -14.667 105.667 -42.667 149 -84c35.333 -34.667 63.666 -78.334 84.999 -131.001c19.333 -48.667 29 -105 29 -169v-16zM325.005 668.001c1.33301 -2 1.99805 -9.33496 1.99805 -22.002v-47
c-1.33301 -36.667 -3.66602 -82.667 -6.99902 -138c-3.33301 -54.667 -7 -110 -11 -166c-4.66699 -70 -8.66699 -132.333 -12 -187c-3.33301 -55.333 -3.66602 -85 -0.999023 -89c-8 -10.667 -19.333 -16 -34 -16c-3.33301 0 -7 0.333008 -11 1
c-20.667 3.33301 -32.334 16 -35.001 38c1.33301 4.66699 3 13.667 5 27c1.33301 12.667 3 28.334 5 47.001c2.66699 35.333 5 77 7 125c2 48.667 3.33301 97 4 145c0.666992 60.667 0 114.334 -2 161.001c-2 46 -6.33301 70.667 -13 74c6.66699 29.333 21.334 49 44.001 59
c8 4 15.667 6 23 6c13.333 0 25.333 -6 36 -18z" />
    <glyph glyph-name="E" unicode="E" horiz-adv-x="668" 
d="M417 571c-11.333 -4.66699 -21.6709 -7.00391 -31.0039 -7.00391c-8.66699 -0.666992 -16.334 0.666016 -23.001 3.99902c-16 7.33301 -25.667 20 -29 38c-2.66699 18 2 32 14 42c8.66699 -5.33301 16.334 -9 23.001 -11c6.66699 -1.33301 12.334 -1 17.001 1
c15.333 5.33301 23 20.333 23 45s-9 46.334 -27 65.001c-8 8 -18 14.667 -30 20s-26 7.66602 -42 6.99902c-32.667 0 -60 -13.667 -82 -41c-21.333 -27.333 -33.666 -61 -36.999 -101c-2 -25.333 -0.333008 -48.333 5 -69c4.66699 -20 11.334 -37.333 20.001 -52
c4.66699 -9.33301 9.66699 -17.333 15 -24c29.333 4 54.666 2.66699 75.999 -4c24.667 -8.66699 35.334 -21.334 32.001 -38.001c-4.66699 -20 -19 -29.333 -43 -28c-21.333 1.33301 -44 8.66602 -68 21.999c-9.33301 -5.33301 -18.666 -12 -27.999 -20
c-10.667 -8 -20.667 -18.333 -30 -31c-14.667 -19.333 -26.667 -44 -36 -74c-10 -29.333 -14.667 -65.666 -14 -108.999c0.666992 -37.333 7 -71 19 -101c12 -30.667 28 -57 48 -79c36.667 -40.667 82.667 -65 138 -73c56 -7.33301 109 6 159 40
c34 22.667 64.333 55.334 91 98.001c27.333 42.667 48 96.334 62 161.001c4.66699 1.33301 10 2.33301 16 3s12.333 0.333984 19 -0.999023c-13.333 -74 -36 -135.667 -68 -185c-32.667 -49.333 -69.667 -87.666 -111 -114.999c-34 -22 -69.667 -37 -107 -45
c-24.667 -5.33301 -49 -8 -73 -8c-12.667 0 -25.334 0.666992 -38.001 2c-67.333 8 -126.666 36.333 -177.999 85c-50.667 49.333 -77 114.333 -79 195v15c0 54 8 99.333 24 136c17.333 40.667 39.333 72.667 66 96c17.333 15.333 35.666 27.666 54.999 36.999
c6 2.66699 12 5 18 7c-1.33301 1.33301 -2.66602 3 -3.99902 5c-14 13.333 -26.333 28 -37 44c-9.33301 15.333 -16.666 32 -21.999 50c-6 18 -8.33301 37 -7 57c2.66699 51.333 24.667 93.333 66 126c42 32.667 87.667 49.334 137 50.001h3c18 0 34.667 -2.33301 50 -7
c16 -5.33301 30.333 -12.666 43 -21.999c25.333 -17.333 43 -39.666 53 -66.999c10.667 -28 12.667 -54 6 -78c-4 -13.333 -10.333 -25.333 -19 -36c-8.66699 -10 -20.334 -18.333 -35.001 -25zM300.995 452.996c0.666992 3.33301 -6.00098 4.66699 -20.001 4
c-3.33301 0 -6.66602 -0.666992 -9.99902 -2c19.333 -9.33301 29.333 -10 30 -2z" />
    <glyph glyph-name="F" unicode="F" horiz-adv-x="739" 
d="M345 431c5.33301 0 9.99902 -1.33203 13.999 -3.99902c3.33301 -2 6 -4.66699 8 -8c3.33301 -5.33301 5 -11.333 5 -18c0 -6 -1.33301 -12.667 -4 -20c-5.33301 -14.667 -12 -23.667 -20 -27c-40.667 -8.66699 -80.667 -13 -120 -13h-4c0 -52 0.666992 -104 2 -156
c0.666992 -58.667 1 -108.334 1 -149.001v-36c-0.666992 -7.33301 -1 -14 -1 -20c0 -15.333 -0.666992 -25.333 -2 -30c-11.333 -8 -25.333 -11.667 -42 -11h-9c-20.667 1.33301 -38 7.66602 -52 18.999c-6 4.66699 -11 10 -15 16s-6.33301 13 -7 21
c7.33301 4 14 32.667 20 86c5.33301 52.667 10 112.667 14 180l4 88v3l-24 8c-6.66699 2.66699 -10 9.33398 -10 20.001v1c0 11.333 4.33301 19.333 13 24c6 -2.66699 13.333 -5 22 -7l2 36c1.33301 50.667 2 94 2 130c0.666992 36.667 0.333984 57.667 -0.999023 63
c12 10.667 27.333 18 46 22c5.33301 0.666992 10.333 1 15 1c12 0 22.333 -3 31 -9c-4.66699 -2.66699 -7.66699 -32 -9 -88c-0.666992 -46 -1 -97.667 -1 -155c24 2 47.667 6 71 12c27.333 6 44.333 13 51 21zM701.999 730.001c-16 15.333 -41.666 21.999 -76.999 19.999
c-36 -1.33301 -76.667 -7 -122 -17c-24 -5.33301 -49 -11 -75 -17c-26.667 -6.66699 -53 -13 -79 -19c-40.667 -10 -80 -18.667 -118 -26c-37.333 -7.33301 -71.333 -11 -102 -11h-3c-29.333 0.666992 -54.333 5.66699 -75 15c-20 9.33301 -33.333 25.333 -40 48
c-1.33301 4 -2 8.33301 -2 13c0 10.667 3.33301 21.667 10 33c9.33301 16.667 26.666 24 51.999 22c9.33301 0 12.666 -4 9.99902 -12c-2.66699 -7.33301 -7.66699 -12.333 -15 -15c-8 4 -16.333 2.66699 -25 -4c-8 -6.66699 -7.33301 -15.667 2 -27
c4.66699 -6 13.667 -9.33301 27 -10c12.667 -1.33301 28.334 -0.666016 47.001 2.00098c35.333 4.66699 78 13.667 128 27c50.667 14 102 28.333 154 43c53.333 15.333 103.666 29.333 150.999 42c47.333 12 84.333 18.667 111 20h2c8 0 15 -1.33301 21 -4
c6.66699 -2.66699 12.667 -6.66699 18 -12c14.667 -14.667 22 -34 22 -58v-3c-1.33301 -26 -8.66602 -42.667 -21.999 -50z" />
    <glyph glyph-name="G" unicode="G" horiz-adv-x="729" 
d="M392 485c-31.333 -5.33301 -52.9961 -0.99707 -64.9961 13.0029c-12.667 14.667 -12 33.667 2 57c18 -2 34.333 1 49 9c14 8 26 18.667 36 32c14.667 20 23.667 42.667 27 68c2.66699 25.333 -2.66602 46 -15.999 62c-5.33301 6.66699 -12.333 12 -21 16
c-8 4 -18 6 -30 6c-36.667 0.666992 -68.667 -11 -96 -35s-50 -55.333 -68 -94c-10 -20.667 -18.667 -42.667 -26 -66c-6.66699 -24 -12.334 -48.667 -17.001 -74c-6 -30 -10 -60.667 -12 -92c-1.33301 -31.333 -1.33301 -61.333 0 -90c3.33301 -54 13 -100 29 -138
c15.333 -38 36.666 -59 63.999 -63c28.667 -3.33301 56.334 14 83.001 52c27.333 38 49.333 81.667 66 131c8.66699 26.667 15.667 53.334 21 80.001c5.33301 26 8 50 8 72c10 18 27.667 23.667 53 17c25.333 -6 40 -19 44 -39
c-2.66699 -1.33301 -4.33398 -9.33301 -5.00098 -24c-1.33301 -14.667 -2 -34.334 -2 -59.001c-1.33301 -46 -2.66602 -104.333 -3.99902 -175c-1.33301 -32 -3 -64 -5 -96c20.667 8.66699 40.334 18.667 59.001 30c28 16.667 52.667 37 74 61s36.666 54.333 45.999 91
c6 3.33301 11.667 4.66602 17 3.99902c5.33301 0 12 -1.33301 20 -4c-9.33301 -40 -25.666 -74 -48.999 -102c-22.667 -28 -48.667 -52 -78 -72c-29.333 -19.333 -60 -36 -92 -50c-2 -25.333 -4.33301 -51 -7 -77c-6.66699 -58.667 -16.334 -113.667 -29.001 -165
c-13.333 -52 -31 -93.667 -53 -125c-12 -17.333 -25.667 -30.666 -41 -39.999c-15.333 -10 -32.333 -15 -51 -15h-1c-24.667 0 -47 10 -67 30c-20.667 20.667 -36.334 46 -47.001 76c-6 16.667 -10 34 -12 52c-2.66699 18.667 -3 37 -1 55
c2 23.333 7.33301 45.666 16 66.999c9.33301 22 22.666 41.667 39.999 59c12 13.333 26.333 24.666 43 33.999c16 10 33.333 19 52 27c21.333 10 43.333 19.333 66 28v26c1.33301 50 1.66602 92.667 0.999023 128s-0.666992 54.666 0 57.999
c-4.66699 -8.66699 -13.667 -27 -27 -55s-31.333 -52.667 -54 -74c-12 -11.333 -25.333 -20.333 -40 -27s-30.667 -9.33398 -48 -8.00098c-28.667 2.66699 -54.334 9.66699 -77.001 21c-22.667 12 -42.334 26.667 -59.001 44c-31.333 33.333 -53 75.333 -65 126
c-7.33301 33.333 -11 67 -11 101c0 18.667 1 37.334 3 56.001c6.66699 56 22.334 110 47.001 162s58.334 95 101.001 129c26 21.333 55.333 38 88 50c30.667 10.667 63.667 16 99 16h9c15.333 0 29.333 -2.66699 42 -8s24 -12.333 34 -21
c25.333 -22.667 40.333 -52.667 45 -90c5.33301 -38 -0.333984 -72.333 -17.001 -103c-8.66699 -16 -20.667 -30 -36 -42c-14.667 -11.333 -33 -19 -55 -23zM369.004 -42.9971c-18 -8 -34.667 -16.335 -50 -25.002c-14.667 -8.66699 -27 -18 -37 -28
c-18.667 -18.667 -31.667 -39 -39 -61c-8 -22 -11.667 -44 -11 -66c1.33301 -40 12.333 -75.667 33 -107s41.667 -47 63 -47c22.667 0 39.667 25.333 51 76c12 50.667 20.667 109.334 26 176.001c2 28.667 3.66699 57.334 5 86.001v14c-14 -6 -27.667 -12 -41 -18z" />
    <glyph glyph-name="H" unicode="H" horiz-adv-x="836" 
d="M701 775c-6 -1.33301 -12.0039 -7.00586 -18.0039 -17.0059c-5.33301 -10 -10.666 -23 -15.999 -39c-8.66699 -30 -16.334 -69 -23.001 -117s-11.667 -99 -15 -153c-0.666992 -6.66699 -1 -13.334 -1 -20.001c33.333 6 55 14.333 65 25c16 -2 23.667 -11.333 23 -28v-4
c-1.33301 -18.667 -7.66602 -30.667 -18.999 -36c-15.333 -8.66699 -39.333 -15 -72 -19v-25c-0.666992 -36 -0.333984 -70.333 0.999023 -103c2 -61.333 7.66699 -113 17 -155c8.66699 -42 21.667 -63.667 39 -65c16 -1.33301 31 11.334 45 38.001
c14.667 26.667 27 55.334 37 86.001c6.66699 20 12.334 39 17.001 57s8 31 10 39c5.33301 0.666992 11.666 1.33398 18.999 2.00098c6.66699 0.666992 12.667 0 18 -2c-1.33301 -6 -3.33301 -14.667 -6 -26s-6 -24 -10 -38c-6.66699 -26.667 -16.334 -55.667 -29.001 -87
c-12 -31.333 -26.667 -57 -44 -77c-9.33301 -10 -19 -17.667 -29 -23c-8.66699 -4.66699 -18 -7 -28 -7c-2 0 -4 0.333008 -6 1c-43.333 4.66699 -75.333 30.334 -96 77.001c-21.333 46.667 -34.666 103 -39.999 169c-2 29.333 -3 59.666 -3 90.999v21v23h-22
c-17.333 0 -34.666 0.333008 -51.999 1c-24 0.666992 -46.333 2.33398 -67 5.00098c-10 1.33301 -19 2.33301 -27 3c-4 -52 -10 -103.667 -18 -155c-5.33301 -33.333 -11.666 -65.666 -18.999 -96.999c-6.66699 -31.333 -14.667 -60.333 -24 -87
c-17.333 -50.667 -38.666 -92 -63.999 -124c-24.667 -31.333 -54 -47 -88 -47h-2c-33.333 0.666992 -62 17.667 -86 51c-24 34 -39.333 72.667 -46 116c-2.66699 16.667 -4 33.334 -4 50.001c0 12.667 0.666992 25 2 37c4 29.333 13 55 27 77
c11.333 18.667 26.666 34 45.999 46c20 11.333 44 17.333 72 18c19.333 -4 29.666 -19 30.999 -45s-4.66699 -42.333 -18 -49c-20.667 8.66699 -38.334 11.334 -53.001 8.00098s-26.667 -10.333 -36 -21c-10.667 -14 -18 -32 -22 -54c-3.33301 -21.333 -4 -44 -2 -68
c4 -35.333 14 -67.666 30 -96.999c16 -28.667 36 -43.334 60 -44.001c9.33301 0 18.333 5 27 15c8.66699 9.33301 16.334 22.666 23.001 39.999c13.333 32 24.666 74 33.999 126c8.66699 52.667 15.667 109 21 169c6.66699 72.667 10.334 145.334 11.001 218.001
s-0.666016 132.667 -3.99902 180c-2 26 -4.66699 46.667 -8 62s-7.33301 24 -12 26c10.667 30.667 29.667 50 57 58c7.33301 2 14.333 3 21 3c16.667 0.666992 29.334 -5.66602 38.001 -18.999c3.33301 -8 6 -22.333 8 -43c2.66699 -20.667 4.33398 -46 5.00098 -76
c0.666992 -20 1 -41.667 1 -65c0 -40 -1 -84.667 -3 -134l-2 -34h26c24.667 -0.666992 52 -0.333984 82 0.999023c20 0.666992 40 2 60 4l3 39c2.66699 32 6 63 10 93c3.33301 30.667 7.33301 59.667 12 87c9.33301 50.667 18.666 93.667 27.999 129
c10 34.667 18.333 56 25 64c7.33301 8 16.666 11.667 27.999 11c6.66699 0 14.334 -1.33301 23.001 -4c22.667 -8 33.334 -28.667 32.001 -62z" />
    <glyph glyph-name="I" unicode="I" horiz-adv-x="211" 
d="M20 20c3.33301 0.666992 6.66699 5.66699 10 15s6.33301 21.666 9 36.999c5.33301 28.667 10.333 66.334 15 113.001c4 46 7.66699 95.333 11 148c2.66699 34.667 5 69.667 7 105c1.33301 34.667 3 68.667 5 102c2 60.667 3.66699 112.667 5 156
c0.666992 44 0.666992 68.667 0 74c0.666992 16 13 25.333 37 28c5.33301 0.666992 10.666 1 15.999 1c15.333 0 28.333 -3.33301 39 -10c-3.33301 -2 -5.66602 -18 -6.99902 -48c-2 -30.667 -3.66699 -69.334 -5 -116.001c-0.666992 -25.333 -1 -52.333 -1 -81
c0 -29.333 -0.333008 -59 -1 -89v-223c0.666992 -66 0.666992 -123.333 0 -172c0 -49.333 -0.666992 -78.666 -2 -87.999c-7.33301 -14 -23.333 -22 -48 -24h-7c-21.333 0 -40 6 -56 18c-7.33301 6 -13.666 13.333 -18.999 22c-4.66699 9.33301 -7.33398 20 -8.00098 32z
" />
    <glyph glyph-name="J" unicode="J" horiz-adv-x="726" 
d="M456 705c0 -8 2.33105 -31.667 6.99805 -71s9 -87 13 -143c2.66699 -30 4.66699 -61.667 6 -95c0.666992 -26.667 1 -53.334 1 -80.001v-20c-0.666992 -64 -5.66699 -126 -15 -186c-8.66699 -60.667 -25 -111 -49 -151c-14.667 -24.667 -33 -44.334 -55 -59.001
c-20.667 -14 -45.667 -21 -75 -21h-1c-34 0 -64.333 9.66699 -91 29c-26.667 18.667 -48.334 42.667 -65.001 72c-25.333 42.667 -38.666 90.334 -39.999 143.001v6c0.666992 48.667 15 87.667 43 117c12 12 27 21.333 45 28c17.333 6.66699 38 9.33398 62 8.00098
c6 -1.33301 11.333 -3.66602 16 -6.99902c4 -3.33301 7.66699 -7 11 -11c8 -13.333 10 -29.333 6 -48c-4 -18 -11 -29.333 -21 -34c-21.333 13.333 -39 19.666 -53 18.999s-25 -6 -33 -16c-13.333 -18.667 -17.666 -48 -12.999 -88c4.66699 -39.333 16 -76.333 34 -111
c12 -22.667 26.333 -42 43 -58c16.667 -15.333 35 -23.333 55 -24c12 0 22.667 4 32 12c10 8.66699 18.333 20.334 25 35.001c14 28 24 65 30 111c6.66699 46 11 95.333 13 148c1.33301 34.667 1.66602 70 0.999023 106c-0.666992 35.333 -1.66699 69.666 -3 102.999
c-3.33301 62 -7.66602 115.667 -12.999 161c-5.33301 46 -9.66602 72.667 -12.999 80c2 12 16 24 42 36c16.667 8 30 12 40 12c6 0 11 -1 15 -3zM744.998 747c-17.333 16 -44.668 22.665 -82.001 19.998c-36.667 -2 -78.334 -8.66699 -125.001 -20
c-24.667 -5.33301 -50.334 -11.666 -77.001 -18.999l-80 -22c-41.333 -10.667 -81.666 -20.334 -120.999 -29.001s-74.666 -13.334 -105.999 -14.001c-2.66699 -0.666992 -5 -1 -7 -1c-27.333 0 -50.666 4 -69.999 12c-20.667 8.66699 -34 24.334 -40 47.001
c-1.33301 4.66699 -2 9.33398 -2 14.001c0 10 3.33301 21 10 33c9.33301 16.667 26.333 24 51 22c9.33301 -0.666992 13 -4.66699 11 -12c-2.66699 -7.33301 -7.66699 -12.333 -15 -15c-8 4 -16.333 2.66699 -25 -4c-8 -6.66699 -7.33301 -16 2 -28
c8.66699 -10.667 31.334 -12.667 68.001 -6c36 6 78.667 16 128 30c26.667 8 54.667 16.333 84 25c28.667 9.33301 57.334 18.333 86.001 27c54.667 17.333 106 32.333 154 45c45.333 12 80.666 18 105.999 18h5c9.33301 0 17.666 -1.66699 24.999 -5
c6.66699 -3.33301 13 -7.66602 19 -12.999c15.333 -15.333 23 -35 23 -59v-1c0 -24 -7.33301 -39 -22 -45z" />
    <glyph glyph-name="K" unicode="K" horiz-adv-x="723" 
d="M25 49c12.667 5.33301 22.999 37.3291 30.999 95.9961c8.66699 57.333 15 124 19 200c-19.333 4.66699 -30.666 16 -33.999 34c-0.666992 4.66699 -1 9 -1 13c0 18 8 33 24 45c4 2.66699 9 5.33398 15 8.00098c0.666992 27.333 1 54.666 1 81.999
c0.666992 60 -0.333008 111.333 -3 154c-1.33301 22.667 -3.33301 41.667 -6 57c-2 15.333 -4.66699 25.666 -8 30.999c12.667 19.333 26.667 28.666 42 27.999h1c16 0 29 -2.66699 39 -8c2.66699 -6.66699 5 -31.667 7 -75c2.66699 -44 4.33398 -96.333 5.00098 -157
c0.666992 -32.667 1.33398 -67 2.00098 -103v-13c9.33301 -4 18.333 -8.66699 27 -14c2 -2 4 -3.66699 6 -5c24 30.667 47.667 69.667 71 117c24.667 49.333 49 98.333 73 147c24.667 50.667 49.667 95.667 75 135s51.333 63 78 71c2.66699 0.666992 5.33398 1 8.00098 1
c9.33301 0 20 -3.66699 32 -11c16 -9.33301 28.333 -21.666 37 -36.999c3.33301 -6.66699 5.66602 -13.334 6.99902 -20.001c1.33301 -7.33301 1 -14.333 -1 -21c-12.667 0.666992 -26.667 -6 -42 -20c-14.667 -14 -31 -33 -49 -57
c-32.667 -43.333 -69.334 -96 -110.001 -158c-40.667 -61.333 -84 -113.333 -130 -156c-6 -6 -12.333 -11.667 -19 -17c8 -7.33301 16 -15.666 24 -24.999c26 -32 50.667 -71 74 -117c23.333 -45.333 45.333 -92.333 66 -141c13.333 -32 26.333 -63.667 39 -95
c12 -32 24 -62 36 -90c22 -52.667 43.333 -96.667 64 -132c20.667 -34.667 41.334 -52 62.001 -52c16.667 0 32 10 46 30c14 20.667 19.333 40.334 16 59.001c-0.666992 6 -3 11.667 -7 17c-3.33301 5.33301 -8 9.66602 -14 12.999c3.33301 12.667 9.33301 24.334 18 35.001
s19.667 13.667 33 9c10.667 -12 17 -26 19 -42c0.666992 -4 1 -8 1 -12c0 -12.667 -2 -25 -6 -37c-8 -25.333 -22 -47.666 -42 -66.999c-20 -20 -42.333 -30 -67 -30h-3c-34.667 0 -65.667 9.33301 -93 28c-28 20 -53.333 46.333 -76 79c-23.333 34.667 -44.333 74 -63 118
c-18.667 44.667 -36 90.334 -52 137.001c-10 30 -20 59.667 -30 89c-9.33301 28.667 -19 56.334 -29 83.001c-16.667 46.667 -34.667 85.334 -54 116.001c-5.33301 -2.66699 -10.333 -5.33398 -15 -8.00098l-10 -5v-8c0.666992 -29.333 1 -57.666 1 -84.999
c-0.666992 -28 -1 -54.667 -1 -80c0 -46.667 -0.666992 -86.334 -2 -119.001c0 -26 -0.666992 -44.333 -2 -55c0 -2.66699 -0.333008 -5 -1 -7c-6.66699 -9.33301 -14.334 -15.666 -23.001 -18.999c-8.66699 -4 -17 -6 -25 -6c-20.667 0 -39.334 7.66699 -56.001 23
c-16.667 16 -25 32.333 -25 49zM68.999 396.996c0 -8.66699 2.33301 -15.667 7 -21l2 40c-6.66699 -4 -9.66699 -10.333 -9 -19zM158.999 402.996v-16c2.66699 2 5.33398 4.33301 8.00098 7c-2.66699 3.33301 -5.33398 6.33301 -8.00098 9z" />
    <glyph glyph-name="L" unicode="L" horiz-adv-x="676" 
d="M495 541c-19.333 -1.33301 -37 2.66309 -53 11.9961c-16 10 -21.667 27 -17 51c18.667 -2 35.334 1 50.001 9c15.333 8.66699 28.333 20.334 39 35.001c15.333 21.333 25 46 29 74c3.33301 28 -1.66699 50.667 -15 68c-6 6.66699 -13.333 12.334 -22 17.001
c-8.66699 4 -19.334 6 -32.001 6c-29.333 0.666992 -51.666 -16.666 -66.999 -51.999c-15.333 -36 -27.333 -81.333 -36 -136c-5.33301 -30 -10 -61.667 -14 -95s-8 -67.333 -12 -102c-6.66699 -53.333 -14.667 -106 -24 -158c-9.33301 -52.667 -22.333 -99.667 -39 -141
c-3.33301 -9.33301 -7 -18 -11 -26c34.667 -23.333 69.667 -48.333 105 -75c19.333 -15.333 38.666 -30.333 57.999 -45c20 -15.333 39 -29 57 -41c34 -22.667 65.667 -38 95 -46c28.667 -8 53 -1.66699 73 19c8 -7.33301 13.667 -15.333 17 -24
c4 -9.33301 6.33301 -18.333 7 -27v-3c0 -20 -7.33301 -38.333 -22 -55s-33.667 -25 -57 -25h-3c-28 0.666992 -56 10 -84 28s-55.667 40 -83 66c-18 17.333 -35.667 35.666 -53 54.999s-34.666 38.333 -51.999 57c-26.667 28.667 -53 55 -79 79
c-8 -13.333 -17 -25.666 -27 -36.999c-24 -26.667 -54.333 -42.334 -91 -47.001c-23.333 -2.66699 -43 -2 -59 2c-16.667 4 -30.334 10 -41.001 18c-16.667 14.667 -25 32.667 -25 54v11c3.33301 26.667 17 48.334 41 65.001c12.667 9.33301 28.334 16 47.001 20
c18 4.66699 39 5 63 1c12.667 -2 26 -5.66699 40 -11c8 33.333 14.333 72.333 19 117c5.33301 58.667 11.333 119.334 18 182.001c6 51.333 13.667 101.666 23 150.999c10 49.333 24.333 93 43 131c17.333 36 40.333 64.667 69 86c27.333 20 61.333 30 102 30h6
c24 -0.666992 44.333 -5.33398 61 -14.001c17.333 -8.66699 31.333 -19.667 42 -33c23.333 -28.667 33.666 -64 30.999 -106c-2.66699 -41.333 -15.667 -75.666 -39 -102.999c-10 -12 -21.333 -21.667 -34 -29c-13.333 -7.33301 -28 -11.666 -44 -12.999zM142 127.996
c-11.333 1.33301 -21.667 0.666016 -31 -2.00098c-9.33301 -3.33301 -17.666 -7.66602 -24.999 -12.999c-12.667 -10 -20.334 -22.333 -23.001 -37c-3.33301 -15.333 -0.333008 -27 9 -35c5.33301 -4.66699 12.333 -7.66699 21 -9c8 -1.33301 18.333 -0.666016 31 2.00098
c15.333 4 28 12.667 38 26c10.667 13.333 19.667 30.666 27 51.999c-16 8.66699 -31.667 14 -47 16z" />
    <glyph glyph-name="M" unicode="M" horiz-adv-x="1207" 
d="M554 726c-1.33301 -27.333 -1.33203 -66.0029 0.000976562 -116.003s4.33301 -102.333 9 -157c2.66699 -28.667 5.66699 -57.334 9 -86.001c3.33301 -28 7.33301 -54.667 12 -80c8 -47.333 17.667 -86 29 -116s24.666 -43.667 39.999 -41c4 0.666992 9.33301 6 16 16
c6 10.667 12.667 24.667 20 42c14 32 29.333 73.333 46 124c16.667 51.333 32.667 105 48 161c15.333 56.667 28.666 112 39.999 166s18.333 98.667 21 134c8 6.66699 23.333 10.334 46 11.001c22 0.666992 41.667 -3.66602 59 -12.999c8 -4.66699 15 -10 21 -16
c5.33301 -6 9.33301 -13 12 -21c-0.666992 -6 -2 -17 -4 -33c-1.33301 -15.333 -2.66602 -34.333 -3.99902 -57c-2.66699 -42 -5 -92.333 -7 -151c-2 -59.333 -2.33301 -118.333 -1 -177c0.666992 -73.333 5 -138.333 13 -195c7.33301 -56.667 20 -87 38 -91
c10 -2.66699 20 -2.33398 30 0.999023c9.33301 3.33301 18 8.33301 26 15c16.667 14 31 33.667 43 59c12 24.667 22 49.334 30 74.001c4 12.667 7.66699 24.667 11 36c2.66699 11.333 5 21 7 29c9.33301 1.33301 16 2.33301 20 3c4.66699 0 10 -1.66699 16 -5
c-2 -7.33301 -4.66699 -17 -8 -29c-2.66699 -11.333 -6.33398 -24 -11.001 -38c-8 -25.333 -18.667 -52.333 -32 -81c-14 -28 -30.667 -51.333 -50 -70c-12.667 -12.667 -26.667 -22 -42 -28c-10 -4 -20.333 -6 -31 -6c-6.66699 0 -13.667 1 -21 3c-32 6 -58 27.333 -78 64
c-20.667 36 -36.667 79 -48 129c-6 26 -11 53 -15 81s-7.33301 56 -10 84c-4 50.667 -6 98 -6 142s1 76.667 3 98c-1.33301 -4.66699 -3 -12.667 -5 -24c-2.66699 -11.333 -6 -25 -10 -41c-7.33301 -30 -17 -66.333 -29 -109c-11.333 -42 -24.333 -84 -39 -126
c-18 -52.667 -37.333 -99 -58 -139c-20.667 -40.667 -41 -62.334 -61 -65.001c-15.333 -2.66699 -29.666 -1 -42.999 5c-12.667 6 -24.667 15.333 -36 28c-20.667 23.333 -38.334 56 -53.001 98s-27.334 87.333 -38.001 136c-12 60 -22 120.333 -30 181
c-1.33301 8.66699 -2.33301 17 -3 25c-1.33301 -10.667 -2.66602 -21.667 -3.99902 -33c-7.33301 -56.667 -17 -117 -29 -181c-7.33301 -42 -16.333 -84.333 -27 -127c-10 -42 -21.333 -82.667 -34 -122l-8 -24c-22 -61.333 -48 -114 -78 -158c-34 -50 -74 -75.667 -120 -77
c-1.33301 -0.666992 -2.66602 -1 -3.99902 -1c-21.333 0 -41 7.33301 -59 22c-18.667 14.667 -34.334 34 -47.001 58c-19.333 36 -30.666 77 -33.999 123v18c0 38.667 8.66699 72.667 26 102c11.333 18.667 26.333 34 45 46c19.333 12 43 19 71 21
c19.333 -4 30.333 -18.667 33 -44c2 -26 -3.66699 -42.667 -17 -50c-20.667 8 -38.334 10.333 -53.001 7s-26.334 -10.666 -35.001 -21.999c-10.667 -13.333 -17.334 -30.666 -20.001 -51.999c-2.66699 -22 -2.33398 -44.333 0.999023 -67
c4.66699 -34 15.334 -65 32.001 -93c17.333 -28 38 -41.333 62 -40c12 0 24 5 36 15c12 9.33301 23.667 22.333 35 39c20.667 30.667 40 71.667 58 123s34.333 107 49 167c10.667 39.333 20.334 79.333 29.001 120s16.667 80.667 24 120c14 72.667 25.667 138 35 196
c4.66699 27.333 8.66699 50.666 12 69.999c-1.33301 10.667 -3 20.334 -5 29.001c-2.66699 14.667 -5.66699 23.667 -9 27c2.66699 12.667 18.334 19.667 47.001 21h5c26 0 48.333 -7.33301 67 -22c6.66699 -5.33301 12 -11.666 16 -18.999
c4.66699 -8 7.33398 -16.667 8.00098 -26z" />
    <glyph glyph-name="N" unicode="N" horiz-adv-x="858" 
d="M656 -8c-36 8 -59.667 34.3301 -71 78.9971c-10.667 44 -15 96.333 -13 157c1.33301 32.667 3.66602 66.334 6.99902 101.001c4 35.333 8 70.333 12 105c3.33301 28 6.66602 55.333 9.99902 82c2.66699 26.667 5 52 7 76c4 44 4.33301 80.333 1 109
c-3.33301 29.333 -13.333 45.333 -30 48c-22 4.66699 -43.667 -4 -65 -26s-41 -51 -59 -87c-10 -18.667 -19.333 -39 -28 -61c-9.33301 -22 -17.666 -44 -24.999 -66c-14.667 -42.667 -27 -83.667 -37 -123c-9.33301 -39.333 -15.666 -70.666 -18.999 -93.999
c-3.33301 -26 -9.66602 -66.333 -18.999 -121c-8.66699 -54.667 -23.334 -105.667 -44.001 -153c-14 -31.333 -31 -58 -51 -80s-44 -34 -72 -36h-11c-16.667 0 -32 2.66699 -46 8c-16.667 6.66699 -31.334 16 -44.001 28s-23.334 26.667 -32.001 44
c-8 17.333 -14 35.666 -18 54.999c-3.33301 16 -5 32 -5 48c0 19.333 2.33301 38.666 7 57.999c8.66699 36 24.667 62.667 48 80c12 8.66699 26 14.334 42 17.001s33.667 0.666992 53 -6c5.33301 -1.33301 9.66602 -3.66602 12.999 -6.99902
c2.66699 -3.33301 4.66699 -7.33301 6 -12c4.66699 -13.333 3 -28 -5 -44c-7.33301 -16 -14.333 -22.667 -21 -20c-12 14 -23 23 -33 27c-10.667 4 -19.667 4.33301 -27 1c-16 -6 -27 -22.333 -33 -49c-6 -27.333 -6.66699 -56 -2 -86c2 -16 6 -31.333 12 -46
c6 -15.333 13.667 -28.333 23 -39s20.333 -19 33 -25c12 -6 26 -8.33301 42 -7c10.667 0.666992 20.334 5.66699 29.001 15c8.66699 8.66699 16.667 21 24 37c12.667 28.667 23 66.667 31 114s14 98 18 152c2.66699 36 4.33398 72.333 5.00098 109
c0.666992 36 0.666992 71.333 0 106c-1.33301 63.333 -4.66602 119 -9.99902 167s-12 77.667 -20 89c12.667 21.333 33.334 35.333 62.001 42c28 6 48 1.66699 60 -13c1.33301 -15.333 2.33301 -31.666 3 -48.999l2 -54c0.666992 -33.333 0.666992 -64.333 0 -93
c0 -28.667 -0.333008 -47.667 -1 -57c2 6.66699 4.66699 16.667 8 30c4 13.333 9 28.333 15 45c10.667 31.333 25 65 43 101c18 36.667 39.667 66.334 65 89.001c12.667 11.333 26.334 20.333 41.001 27c12 4.66699 24.333 7 37 7c3.33301 0 7 -0.333008 11 -1
c33.333 -3.33301 59 -16.666 77 -39.999s30.667 -53 38 -89c8 -37.333 11 -79.666 9 -126.999c-1.33301 -47.333 -5 -95.333 -11 -144c-4 -31.333 -8.33301 -62.333 -13 -93s-9.33398 -60 -14.001 -88c-8 -51.333 -13.333 -94 -16 -128
c-3.33301 -34.667 0.666992 -53.667 12 -57c10 -2.66699 20 -2.33398 30 0.999023s19.333 8.66602 28 15.999c9.33301 8 18.333 18 27 30c8 11.333 15.667 24 23 38c14 24.667 25.333 50 34 76c8.66699 25.333 14.667 44.666 18 57.999c8 -0.666992 14.333 -0.666992 19 0
s10 -0.666016 16 -3.99902c-0.666992 -6 -2.66699 -14.667 -6 -26c-2.66699 -10.667 -6.66699 -23 -12 -37c-8.66699 -24.667 -20.667 -51.334 -36 -80.001c-14.667 -28.667 -32.667 -52.667 -54 -72c-14 -12.667 -29 -22 -45 -28c-16.667 -6.66699 -34.334 -8 -53.001 -4z
" />
    <glyph glyph-name="O" unicode="O" horiz-adv-x="790" 
d="M521 95c26.667 -5.33301 50.9961 -5.99707 72.9961 -1.99707s41.667 10.667 59 20c32 18 56.333 41 73 69c17.333 27.333 27.333 46.666 30 57.999h36c-2.66699 -14 -14 -38 -34 -72c-19.333 -34 -48.666 -62 -87.999 -84c-21.333 -12 -46 -20.667 -74 -26
c-27.333 -4.66699 -58 -3.66699 -92 3c-7.33301 1.33301 -14.333 3 -21 5l-3 -3c-24.667 -26 -52 -46.333 -82 -61c-28.667 -14 -60 -21 -94 -21h-6c-31.333 1.33301 -59.666 7.66602 -84.999 18.999c-26 11.333 -49 26.666 -69 45.999c-38 36 -66.333 82.333 -85 139
c-18.667 56 -28 114.333 -28 175v4c0 63.333 10.667 124.666 32 183.999c21.333 60 53.333 109 96 147c26.667 24 57.667 42 93 54c28 10 58.333 15 91 15c11.333 10.667 24 20 38 28c22 12 48.333 18 79 18h3c22.667 0 42.667 -6 60 -18
c18 -11.333 33.333 -26.666 46 -45.999c24.667 -36.667 41 -84.667 49 -144c8.66699 -59.333 9.33398 -121.333 2.00098 -186c-7.33301 -66.667 -22.666 -131.667 -45.999 -195c-18 -47.333 -40 -88.333 -66 -123c4.66699 -1.33301 9 -2.33301 13 -3zM257.996 702.003
c-30 -25.333 -54.666 -59.665 -73.999 -102.998c-10.667 -22.667 -19.667 -47.334 -27 -74.001s-13 -54 -17 -82c-4.66699 -34.667 -7 -69.667 -7 -105c0 -36 2.33301 -70.333 7 -103c9.33301 -60.667 27.333 -112.667 54 -156
c27.333 -42.667 63.666 -65.334 108.999 -68.001c16.667 -0.666992 32.334 3 47.001 11c15.333 8.66699 29.666 20.667 42.999 36c10.667 13.333 20.667 28.333 30 45c-10 8.66699 -19.333 18.667 -28 30c-29.333 36 -54 80.667 -74 134
c-20.667 53.333 -35 108.666 -43 165.999c-8 58 -8.66699 114.667 -2 170c6 50.667 20 93.334 42 128.001c-22 -4 -42 -13.667 -60 -29zM455.997 175.004c18 48.667 32.6631 100.998 43.9961 156.998c6.66699 36.667 12 73.667 16 111c4 38 6.33301 74 7 108
c0.666992 64 -5 118.333 -17 163c-11.333 44 -29.666 66.667 -54.999 68c-18 0.666992 -34 -4.33301 -48 -15c-13.333 -10.667 -24.666 -25.667 -33.999 -45c-18 -35.333 -29 -81.666 -33 -138.999c-3.33301 -56.667 -0.666016 -115 8.00098 -175c4 -26 9 -51.667 15 -77
c6.66699 -25.333 14.334 -49.666 23.001 -72.999c15.333 -42.667 35 -78.667 59 -108c1.33301 -2 2.33301 -3.66699 3 -5z" />
    <glyph glyph-name="P" unicode="P" horiz-adv-x="631" 
d="M168 15c3.33301 2 6.66602 9.00488 9.99902 21.0049c4 12 7.66699 27.333 11 46c6.66699 35.333 13 80.333 19 135c6 54 11.667 108.667 17 164c6 69.333 10.667 132.333 14 189c3.33301 56 4.33301 88.667 3 98c6 18.667 18.667 28 38 28h6c23.333 -2 39 -10.333 47 -25
c-4.66699 -2.66699 -9 -23 -13 -61c-4.66699 -38 -8.66699 -84.333 -12 -139c-2 -29.333 -4 -60 -6 -92c-2 -26 -3.66699 -52 -5 -78c18.667 2 43 6 73 12c39.333 8.66699 72 28 98 58c14.667 16.667 25.334 37.334 32.001 62.001c7.33301 24 8.33301 53.333 3 88
c-8 52.667 -22.667 96.667 -44 132s-46 62 -74 80c-18.667 12 -38 20.667 -58 26c-20 4.66699 -40.333 6 -61 4c-38 -2.66699 -73.667 -17.334 -107 -44.001c-33.333 -26 -59 -62.667 -77 -110c-5.33301 -15.333 -8.33301 -29.666 -9 -42.999
c-1.33301 -14 -0.666016 -27 2.00098 -39c5.33301 -20.667 15.666 -36 30.999 -46c15.333 -9.33301 32 -9.33301 50 0c2.66699 -14.667 4.66699 -31.334 6 -50.001s-2.66699 -33.334 -12 -44.001c-4.66699 -5.33301 -11.667 -9 -21 -11s-21.333 -1 -36 3
c-30.667 12.667 -55.667 42.667 -75 90c-8 20.667 -12 43 -12 67c-0.666992 31.333 6.33301 65.333 21 102c12.667 31.333 30.334 58 53.001 80c23.333 21.333 49.666 38 78.999 50c37.333 14.667 77.333 22 120 22c19.333 0 39.666 -1.33301 60.999 -4
c65.333 -10.667 121.666 -36.334 168.999 -77.001c24 -20.667 44.333 -45.334 61 -74.001s27.334 -61.334 32.001 -98.001c2 -14.667 3 -28.667 3 -42c0 -22 -2.66699 -42.333 -8 -61c-9.33301 -30 -23 -56 -41 -78c-34.667 -40 -78.667 -67 -132 -81
c-34.667 -8.66699 -66.667 -13 -96 -13c-12 0 -23.333 0.666992 -34 2c-4 -68.667 -7.33301 -131.334 -10 -188.001c-2 -28.667 -3.66699 -52 -5 -70c-2 -21.333 -4 -35.333 -6 -42c-9.33301 -6.66699 -19.666 -10 -30.999 -10c-9.33301 0 -20 2.66699 -32 8
c-24 10 -38 27.667 -42 53z" />
    <glyph glyph-name="Q" unicode="Q" horiz-adv-x="1009" 
d="M303 277c-38 -26.667 -77.6689 -33.6621 -119.002 -20.9951s-74.666 38 -99.999 76c-14 20.667 -25 44 -33 70c-6 21.333 -9 43.666 -9 66.999c0 6 0.333008 12 1 18c2.66699 51.333 18.334 100.666 47.001 147.999c28 46.667 65.333 84 112 112
c25.333 14.667 52.666 25.334 81.999 32.001c21.333 5.33301 43.666 8 66.999 8c9.33301 0 18.333 -0.333008 27 -1c59.333 -4.66699 106 -19.667 140 -45s58 -57 72 -95c16 -45.333 19.333 -97 10 -155c-8.66699 -58 -26.334 -115.333 -53.001 -172
c-13.333 -30 -28.666 -59 -45.999 -87c-18 -28.667 -37 -55.334 -57 -80.001c-25.333 -31.333 -52 -59 -80 -83c34.667 -28.667 69.334 -60.667 104.001 -96c42.667 -44.667 84.334 -90.334 125.001 -137.001s78.334 -84 113.001 -112c18.667 -16 36.334 -28 53.001 -36
s32 -10.667 46 -8c14 2 27 6.66699 39 14c11.333 6.66699 21 15 29 25c20 24 30.333 51.667 31 83c0.666992 32 -11 57 -35 75c9.33301 10 23 19.333 41 28c18.667 8.66699 38.667 4.66699 60 -12c9.33301 -21.333 14 -42 14 -62c0 -16 -2.66699 -31.333 -8 -46
c-12.667 -34.667 -33 -64 -61 -88c-15.333 -12.667 -32 -23.334 -50 -32.001s-36.333 -14.667 -55 -18c-14 -2 -27.667 -3 -41 -3c-28.667 0 -56.334 5 -83.001 15c-38 15.333 -74 37 -108 65c-51.333 42 -98 92.333 -140 151c-42.667 58 -82.334 108 -119.001 150l-6 6
c-39.333 -23.333 -77.333 -35.333 -114 -36c-23.333 0 -42.333 3 -57 9c-15.333 6 -26.666 14 -33.999 24c-18 22 -17.333 47 2 75c18.667 28.667 50.667 42.334 96 41.001c36.667 -0.666992 75 -14.667 115 -42c22 25.333 43.333 54.666 64 87.999
c15.333 26 30 53.333 44 82c13.333 28.667 25.333 58 36 88c20 57.333 33 114 39 170c6 55.333 1.33301 102.666 -14 141.999c-10 24 -24.333 43.667 -43 59c-19.333 16 -44 25.333 -74 28c-48 4.66699 -90 -6.66602 -126 -33.999s-64.333 -61 -85 -101
c-10.667 -21.333 -19.334 -43 -26.001 -65c-6 -22.667 -9.66699 -44.334 -11 -65.001c-2 -42.667 4.66699 -81.667 20 -117c15.333 -36 36.333 -58.333 63 -67c14 -4.66699 29.333 -4.33398 46 0.999023s34 17.333 52 36c10.667 -9.33301 14 -21.666 10 -36.999
c-4 -14.667 -8.33301 -25.667 -13 -33zM194.998 24.0049c28 0.666992 56.667 13.666 86 38.999l-20 16c-18.667 14 -37 21.333 -55 22c-26 0.666992 -47 -6.33301 -63 -21c-16 -15.333 -19 -28.666 -9 -39.999c4 -4.66699 11 -8.66699 21 -12c10 -2.66699 23.333 -4 40 -4z
" />
    <glyph glyph-name="R" unicode="R" horiz-adv-x="775" 
d="M118 38c8 4 16.6641 32.6621 25.9971 85.9951c7.33301 44 14.333 93.333 21 148c-2 0.666992 -3.66699 1 -5 1c-31.333 2.66699 -48.666 16 -51.999 40v9c-0.666992 19.333 8 34.666 26 45.999c6.66699 4.66699 15 8.33398 25 11.001
c5.33301 0.666992 11.333 1.33398 18 2.00098l2 17c2.66699 30 5.33398 59 8.00098 87c4 52 7 97 9 135c2.66699 38 3.33398 60.333 2.00098 67c8 18 21.333 27.333 40 28c2.66699 0 5.66699 -0.333008 9 -1c22.667 -3.33301 36.334 -12.333 41.001 -27
c-2 -1.33301 -4 -8 -6 -20c-2 -12.667 -4.33301 -29 -7 -49c-4 -37.333 -8.33301 -85 -13 -143c-2.66699 -38 -5.66699 -76.667 -9 -116c7.33301 -4 14.333 -8.66699 21 -14c8 -6.66699 15.667 -14 23 -22c16.667 4 35 9.66699 55 17
c26.667 9.33301 50.334 23.333 71.001 42c18 16 32 35.667 42 59c10 22.667 13.333 50.334 10 83.001c-4.66699 49.333 -16.334 91 -35.001 125s-40.667 60 -66 78c-31.333 22 -65.333 33 -102 33s-70.667 -10.667 -102 -32c-17.333 -11.333 -33 -25.666 -47 -42.999
c-14 -18 -26 -38.667 -36 -62c-17.333 -39.333 -17.666 -72.666 -0.999023 -99.999s38 -34.666 64 -21.999c2 -13.333 3.33301 -28.666 4 -45.999c0.666992 -18 -3.66602 -31.667 -12.999 -41c-4.66699 -4.66699 -11.334 -8 -20.001 -10c-8.66699 -1.33301 -20 0 -34 4
c-28 13.333 -50 42.666 -66 87.999c-6 17.333 -9 35.333 -9 54c0 31.333 8 65.666 24 102.999c24 53.333 63 90.333 117 111c36.667 14 74.334 21 113.001 21c18 0 36 -1.66699 54 -5c31.333 -5.33301 61.333 -14.666 90 -27.999c29.333 -13.333 55.333 -30.666 78 -51.999
c21.333 -20.667 39.333 -44.667 54 -72c14 -27.333 22.667 -58 26 -92c0.666992 -7.33301 1 -14.333 1 -21c0 -23.333 -4 -44.333 -12 -63c-10 -24.667 -24.333 -46.334 -43 -65.001c-14.667 -14.667 -31.667 -27.667 -51 -39c-18.667 -11.333 -38 -21 -58 -29
c-28.667 -11.333 -56.334 -19.666 -83.001 -24.999c7.33301 -9.33301 14.666 -19.333 21.999 -30c22 -34.667 42 -73.667 60 -117s35 -87.333 51 -132c10 -29.333 20 -58 30 -86c9.33301 -28 18.666 -54.667 27.999 -80c16.667 -46.667 33.667 -85.334 51 -116.001
c16.667 -30.667 35 -46.334 55 -47.001c16.667 -1.33301 32.667 7 48 25c16 18 23 36 21 54c-0.666992 6 -2.66699 11.333 -6 16c-3.33301 5.33301 -8 10 -14 14c4 12.667 10 23.667 18 33s18.667 11.333 32 6c10.667 -12.667 16.334 -27 17.001 -43v-7
c0 -13.333 -2.33301 -27 -7 -41c-8.66699 -23.333 -23.667 -44 -45 -62c-20 -17.333 -42 -26 -66 -26h-3c-36.667 0.666992 -68.334 11.334 -95.001 32.001s-50 47.334 -70 80.001c-21.333 34 -39.666 73 -54.999 117s-29.333 88.667 -42 134
c-8.66699 29.333 -16.667 58.333 -24 87c-8 28.667 -16 55.667 -24 81c-12.667 38 -26.334 71.333 -41.001 100c-4.66699 -1.33301 -9.66699 -3 -15 -5c-5.33301 -68 -10 -130.667 -14 -188c-3.33301 -36.667 -6.33301 -64.667 -9 -84
c-1.33301 -12.667 -2.66602 -21.667 -3.99902 -27c-8.66699 -5.33301 -18.334 -8 -29.001 -8s-22 3 -34 9c-24 11.333 -37.333 29.666 -40 54.999zM169.997 308.995l4 45.001c-24 -0.666992 -36.333 -9 -37 -25c-0.666992 -18.667 10 -29.334 32 -32.001z" />
    <glyph glyph-name="S" unicode="S" horiz-adv-x="615" 
d="M532 471c-24.667 -19.333 -50.6689 -21.9971 -78.002 -7.99707c-28 13.333 -42.667 32.666 -44 57.999c16 4 29.667 10 41 18c11.333 8.66699 20.666 18 27.999 28c6.66699 11.333 11.334 23.333 14.001 36c2.66699 13.333 3 26.666 1 39.999c-3.33301 24 -14 46 -32 66
c-17.333 20.667 -40.666 33.667 -69.999 39c-49.333 8.66699 -92.666 -1.66602 -129.999 -30.999s-56 -76.333 -56 -141c0 -20 4.66699 -38 14 -54c8.66699 -16.667 20.667 -32 36 -46c27.333 -26.667 61.666 -51.667 102.999 -75c40.667 -24 78.334 -51 113.001 -81
c28.667 -24.667 52.334 -53.334 71.001 -86.001c16.667 -28.667 25 -62.667 25 -102c0 -4.66699 -0.333008 -9.33398 -1 -14.001c-1.33301 -35.333 -7.66602 -65.666 -18.999 -90.999c-12 -26 -27 -48.333 -45 -67c-34 -33.333 -76.333 -54.666 -127 -63.999
c-26.667 -5.33301 -53 -8 -79 -8c-24 0 -47.333 2 -70 6c-36 6.66699 -68 21.334 -96 44.001c-28.667 22.667 -51.334 49.334 -68.001 80.001c-21.333 38 -32 78 -32 120c0 8.66699 0.333008 17.334 1 26.001c5.33301 51.333 32 90.666 80 117.999
c28.667 5.33301 48 -5.66699 58 -33s10 -54.333 0 -81c-30 10.667 -48.667 0.333984 -56 -30.999c-8 -31.333 -5 -65.333 9 -102c4.66699 -12.667 10.667 -24.667 18 -36c6.66699 -12 14.667 -22.667 24 -32c10 -10 20.667 -18.333 32 -25
c12 -6.66699 25 -11.334 39 -14.001c36 -6.66699 70.667 -3.33398 104 9.99902s61 35 83 65c11.333 16 20.666 34 27.999 54c6.66699 20.667 10.667 42.667 12 66c1.33301 31.333 -7 59 -25 83c-18.667 23.333 -41.667 45.666 -69 66.999c-18 13.333 -37 27 -57 41
c-20 13.333 -39.667 27.333 -59 42c-35.333 27.333 -66.333 58.666 -93 93.999c-26 35.333 -38 79 -36 131c1.33301 48 15.666 88 42.999 120s60.666 55 99.999 69c20.667 7.33301 42.667 12 66 14c6.66699 0.666992 13.334 1 20.001 1c16 0 32 -1.66699 48 -5
c49.333 -8.66699 88 -30 116 -64c28 -33.333 44 -71 48 -113c2 -22 0.333008 -44.333 -5 -67s-14.666 -44.334 -27.999 -65.001z" />
    <glyph glyph-name="T" unicode="T" horiz-adv-x="917" 
d="M868 784c-8 5.33301 -19.665 8.33496 -34.998 9.00195c-14.667 1.33301 -32.334 1.33301 -53.001 0c-37.333 -3.33301 -82 -10.333 -134 -21s-106 -22 -162 -34c-68.667 -14.667 -136 -27.334 -202 -38.001c-45.333 -7.33301 -85.666 -11 -120.999 -11
c-16.667 0 -32.334 1 -47.001 3c-24.667 2.66699 -45.334 8.33398 -62.001 17.001c-16.667 8 -27.667 20.333 -33 37c-2 5.33301 -3 10.666 -3 15.999c0 9.33301 2.66699 19.333 8 30c8 17.333 24.333 25.666 49 24.999c9.33301 -0.666992 13 -4.66699 11 -12
s-6.66699 -12.666 -14 -15.999c-8 5.33301 -16 4.33301 -24 -3c-7.33301 -8 -7 -17.667 1 -29c7.33301 -10.667 33.333 -12.667 78 -6c45.333 6 99 16 161 30c34 8 69 16.667 105 26c36.667 8.66699 73 17.667 109 27c68.667 17.333 132.667 33 192 47s103 21.667 131 23h4
c7.33301 0 14 -1.33301 20 -4c7.33301 -2.66699 13.333 -6.33398 18 -11.001c15.333 -14 23 -32.667 23 -56v-1c0 -24 -6.66699 -40 -20 -48zM358.002 52.002c11.333 0 20.332 25.9971 26.999 77.9971c7.33301 52 13.333 112.333 18 181
c3.33301 54.667 5.66602 109.334 6.99902 164.001s2.33301 100.667 3 138v50c-0.666992 13.333 -1 21.333 -1 24c6.66699 8 16.667 16 30 24c8.66699 4.66699 18.334 7 29.001 7c6 0 12.333 -0.666992 19 -2c-2.66699 -8 -4 -41.333 -4 -100s0.666992 -125 2 -199
c0.666992 -59.333 1.33398 -118.333 2.00098 -177c1.33301 -59.333 2 -109.666 2 -150.999v-1c0 -21.333 -0.333008 -39.333 -1 -54c0 -15.333 -0.666992 -25.666 -2 -30.999c-12 -13.333 -28 -20.333 -48 -21h-6c-18 0 -34 4.66699 -48 14c-8 6 -14.667 13.667 -20 23
s-8.33301 20.333 -9 33z" />
    <glyph glyph-name="U" unicode="U" horiz-adv-x="900" 
d="M47 381c11.333 -3.33301 19.3242 -8.99805 23.9912 -16.998c4 -8 4.66699 -13.667 2 -17c-16 -5.33301 -27.333 -17.333 -34 -36c-7.33301 -18.667 -7 -35.667 1 -51c2.66699 -6.66699 7.33398 -12.334 14.001 -17.001c6 -5.33301 14 -9 24 -11
c15.333 -3.33301 31 -2.66602 47 2.00098c15.333 4 30.666 11.333 45.999 22c6.66699 4.66699 13.667 9.66699 21 15c-4.66699 32 -8 65 -10 99c-1.33301 40 -0.666016 80 2.00098 120c2.66699 40.667 7.33398 79 14.001 115c13.333 67.333 34 123 62 167
c25.333 39.333 56.333 59 93 59c4.66699 0 9 -0.333008 13 -1c27.333 -3.33301 46.333 -18.666 57 -45.999s14.334 -61.333 11.001 -102c-1.33301 -22 -4.66602 -45 -9.99902 -69c-5.33301 -24.667 -12.333 -49.334 -21 -74.001c-10 -30.667 -22.333 -61.334 -37 -92.001
s-31 -59.334 -49 -86.001c-12.667 -19.333 -26.334 -37.333 -41.001 -54c0.666992 -12 1.66699 -23.667 3 -35c5.33301 -64 14.333 -118.667 27 -164c13.333 -45.333 31 -69.666 53 -72.999c14 -1.33301 27.333 0.666992 40 6c12.667 6 25.334 14.667 38.001 26
c22 21.333 42.333 50 61 86s35.334 74 50.001 114c14 40.667 25.667 80 35 118s15 68.667 17 92c4.66699 44 9 88 13 132l12 132c7.33301 12 19.333 19 36 21c16 1.33301 31.667 -1.33398 47 -8.00098c10 -4.66699 19 -10.667 27 -18c8 -8 13.333 -17 16 -27
c-10 -10.667 -18.667 -46.334 -26 -107.001c-6.66699 -60 -11 -127 -13 -201c-2 -58 -2 -115.333 0 -172c2 -56 6 -102 12 -138c3.33301 -19.333 7.33301 -34.666 12 -45.999s10 -17.333 16 -18c18.667 -1.33301 35.667 10.667 51 36s28.333 53 39 83
c6.66699 19.333 12.667 38.333 18 57c4.66699 18 8.33398 31.667 11.001 41h35c-3.33301 -16 -10.666 -42.667 -21.999 -80s-26 -71.666 -44 -102.999c-12.667 -21.333 -26.667 -39 -42 -53c-14 -12.667 -29 -19 -45 -19h-4c-15.333 0.666992 -29.333 5 -42 13
c-13.333 8 -25 18 -35 30c-20.667 24.667 -37 54.667 -49 90c-11.333 35.333 -19.666 68 -24.999 98c-2.66699 16 -4.66699 30.333 -6 43c-1.33301 12 -1.66602 21.333 -0.999023 28c-3.33301 -11.333 -9.66602 -31.333 -18.999 -60c-10 -28.667 -23 -58.334 -39 -89.001
c-8.66699 -16.667 -18.334 -33 -29.001 -49s-22 -30.333 -34 -43c-15.333 -16 -31.666 -28.333 -48.999 -37c-18 -9.33301 -37 -13.333 -57 -12s-38.333 7.33301 -55 18c-16.667 11.333 -31.667 26.333 -45 45c-24.667 34 -43.667 78.333 -57 133
c-3.33301 13.333 -6.33301 26.666 -9 39.999c-40 -27.333 -82 -36 -126 -26c-16.667 3.33301 -30.667 9.33301 -42 18c-12 8.66699 -21.333 18.334 -28 29.001c-9.33301 16 -14.333 32.667 -15 50c0 10 1.66699 20 5 30c9.33301 28 27.666 42.333 54.999 43z
M319.991 453.002c24.667 51.333 44.333 103.332 59 155.999c14 52.667 20.333 96.334 19 131.001c0 18.667 -3 34 -9 46c-5.33301 12 -14 18.667 -26 20c-8 1.33301 -15.667 -2 -23 -10s-14 -19.333 -20 -34c-12 -28.667 -21.333 -67 -28 -115
c-7.33301 -48.667 -12.333 -100.667 -15 -156c-2 -36.667 -2.66699 -73.667 -2 -111v-9c16 26 31 53.333 45 82z" />
    <glyph glyph-name="V" unicode="V" horiz-adv-x="791" 
d="M204 759c-24 1.33301 -44.335 -12.0029 -61.002 -40.0029s-27.667 -59 -33 -93c-3.33301 -22.667 -3.66602 -45 -0.999023 -67c3.33301 -21.333 10 -38.666 20 -51.999c8.66699 -11.333 20.334 -18.666 35.001 -21.999c14.667 -4 32.667 -1.66699 54 7
c13.333 -7.33301 18.666 -24 15.999 -50c-2 -26 -13 -40.667 -33 -44c-28 1.33301 -51.333 8.33301 -70 21c-19.333 12 -34.666 27.333 -45.999 46c-16.667 28.667 -25 62 -25 100c0 6 0.333008 12.333 1 19c3.33301 46 14.666 86.667 33.999 122
c12.667 23.333 28.667 42.333 48 57c18.667 14.667 39.334 21.667 62.001 21c37.333 -1.33301 68.666 -22 93.999 -62c26 -40 48 -89.333 66 -148c10 -31.333 18.667 -64 26 -98c8 -34 15.333 -68 22 -102c5.33301 -27.333 10.333 -54 15 -80s9.33398 -50.667 14.001 -74
c8 -43.333 16 -78.666 24 -105.999c8 -28 17 -42.667 27 -44c2.66699 0 5.66699 4.33301 9 13c2.66699 8.66699 5.66699 20.667 9 36c5.33301 28.667 11.333 67 18 115c7.33301 48 14.666 99.667 21.999 155c9.33301 67.333 20 135.333 32 204
c11.333 68 23.666 125.333 36.999 172c7.33301 24.667 15 45.334 23 62.001c8 16 16.667 26.333 26 31c4.66699 2 9.33398 3 14.001 3h1c5.33301 0 10.333 -1 15 -3c13.333 -6.66699 24.333 -19 33 -37c5.33301 -12.667 8 -23.334 8 -32.001
c0 -4.66699 -0.666992 -8.66699 -2 -12c-11.333 -2 -21.666 -10.333 -30.999 -25s-18 -34 -26 -58c-15.333 -44.667 -29.333 -101.334 -42 -170.001c-12.667 -68 -25.667 -136.333 -39 -205c-10.667 -56 -22.334 -108.667 -35.001 -158
c-12 -49.333 -26 -88.666 -42 -117.999c-8 -16 -16.667 -28.333 -26 -37s-19.333 -13 -30 -13h-1c-36.667 1.33301 -65.334 23.333 -86.001 66c-21.333 43.333 -38 96.333 -50 159c-6 33.333 -11.667 68.333 -17 105c-4.66699 37.333 -9 74 -13 110
c-3.33301 30 -7 59 -11 87c-3.33301 28 -7 54.667 -11 80c-7.33301 46 -16.666 83.667 -27.999 113c-11.333 30 -26.666 45.333 -45.999 46z" />
    <glyph glyph-name="W" unicode="W" horiz-adv-x="1044" 
d="M174 750c-24 2 -44.9971 -9.66211 -62.9971 -34.9951s-30 -53.666 -36 -84.999c-4 -21.333 -5 -41.666 -3 -60.999c2 -20 8 -36 18 -48c8.66699 -10.667 20 -17.667 34 -21c14.667 -3.33301 32.667 -1.33301 54 6c13.333 -7.33301 18.333 -24 15 -50
c-3.33301 -25.333 -15 -39.666 -35 -42.999c-28 2.66699 -51.333 10 -70 22s-33 27 -43 45c-14.667 25.333 -22 54 -22 86c0 8.66699 0.333008 17.667 1 27c5.33301 42.667 18.333 80 39 112c13.333 22 29.666 39.667 48.999 53c19.333 12.667 40.333 18.334 63 17.001
c30.667 -2 56 -17.333 76 -46s36.667 -64.667 50 -108c6.66699 -23.333 12.667 -48.333 18 -75c5.33301 -26 10 -53 14 -81c4.66699 -34 8.66699 -68 12 -102s6.66602 -66.667 9.99902 -98c5.33301 -58 10.666 -107 15.999 -147c6 -40.667 15 -61.334 27 -62.001
c9.33301 -0.666992 20 18.333 32 57c12.667 38.667 25.334 83.667 38.001 135c10 40.667 19.333 82 28 124c8.66699 41.333 16 76.333 22 105c2.66699 14.667 5.33398 27.334 8.00098 38.001c2 10 3 16.333 3 19c11.333 20 30 26 56 18c25.333 -8 40 -21 44 -39
c1.33301 -6.66699 2.66602 -16.334 3.99902 -29.001c2 -13.333 4 -28.333 6 -45c4 -31.333 9 -67.333 15 -108c5.33301 -40.667 11.666 -80.334 18.999 -119.001c8.66699 -49.333 18 -92 28 -128c10 -35.333 20 -53.333 30 -54c9.33301 0 18 15.667 26 47
c7.33301 31.333 15.333 71.666 24 120.999c4.66699 26.667 9.33398 55 14.001 85c4 30.667 8.66699 62 14 94c11.333 72 24.333 144 39 216c14 72 30.667 131.333 50 178c10.667 25.333 22 45.666 34 60.999c12 14.667 25 22.667 39 24h1c15.333 0 28.333 -6.66699 39 -20
c4.66699 -6 7 -14.333 7 -25c0 -13.333 -4 -30.333 -12 -51c-26 7.33301 -48.333 -9.33398 -67 -50.001c-18 -40.667 -34 -92.667 -48 -156c-7.33301 -34.667 -14.666 -70.667 -21.999 -108c-6.66699 -38 -13.667 -76 -21 -114c-5.33301 -30.667 -11 -60.667 -17 -90
c-6 -30 -12 -58 -18 -84c-12 -48 -25 -87.667 -39 -119c-14 -30.667 -30.667 -46 -50 -46c-15.333 0 -29 4 -41 12c-12.667 8 -24.334 18.667 -35.001 32c-14 18.667 -26.333 41.667 -37 69c-10 27.333 -18.667 55.666 -26 84.999
c-4.66699 19.333 -8.66699 38.666 -12 57.999s-6.33301 37.666 -9 54.999c-4.66699 33.333 -8 61.333 -10 84c-2 23.333 -3.66699 36.666 -5 39.999c-1.33301 -5.33301 -5.66602 -27 -12.999 -65c-6.66699 -38 -16 -80.667 -28 -128
c-4.66699 -20 -10.334 -40.333 -17.001 -61c-6 -20 -12.333 -39.333 -19 -58c-13.333 -34 -28.333 -62.667 -45 -86s-35 -35 -55 -35c-16.667 -0.666992 -31 3.33301 -43 12s-22.667 20.667 -32 36c-16 28.667 -27.667 66.667 -35 114c-7.33301 48 -12.333 99.333 -15 154
c-2 35.333 -3.66699 71.333 -5 108c-0.666992 36.667 -2 71.667 -4 105c-2.66699 62 -8.33398 114.667 -17.001 158c-8 43.333 -23.667 66 -47 68z" />
    <glyph glyph-name="X" unicode="X" horiz-adv-x="894" 
d="M319 777c8 -3.33301 16.6719 -10.3369 26.0049 -21.0039c10 -11.333 20.333 -25.333 31 -42c19.333 -32 40.666 -72 63.999 -120c18.667 -40.667 38 -82.667 58 -126c28.667 58 57.334 113.333 86.001 166c34.667 64 68.334 115.667 101.001 155
c16.667 20.667 33.334 37 50.001 49c16 11.333 31.333 17 46 17c19.333 0 31.333 -8.33301 36 -25c1.33301 -5.33301 2 -10.333 2 -15c0 -9.33301 -3.66699 -16.666 -11 -21.999c-20.667 6 -44.334 -8.33301 -71.001 -43c-26.667 -34 -55.667 -80.333 -87 -139
c-17.333 -30.667 -34.666 -64.334 -51.999 -101.001l-56 -112c-2.66699 -4.66699 -5 -9.66699 -7 -15c7.33301 -15.333 14.666 -31 21.999 -47c15.333 -35.333 30.666 -69.333 45.999 -102c28 -60 54.333 -110.333 79 -151c24.667 -41.333 45.667 -62.666 63 -63.999
c16 -1.33301 31 11.334 45 38.001s26.333 55.334 37 86.001c6.66699 20 12.334 39 17.001 57s8 31 10 39c5.33301 0.666992 11.333 1.33398 18 2.00098c7.33301 0.666992 13.333 0 18 -2c-0.666992 -6 -2.33398 -14.667 -5.00098 -26s-6 -24 -10 -38
c-7.33301 -26.667 -17 -55.667 -29 -87s-26.667 -57 -44 -77c-9.33301 -10 -19.333 -17.667 -30 -23c-8 -4.66699 -17 -7 -27 -7c-2 0 -4 0.333008 -6 1c-24.667 2.66699 -48.334 11.667 -71.001 27s-44.334 35.333 -65.001 60c-30 34.667 -58.333 75.667 -85 123
c-14 24.667 -27.333 50 -40 76l-6 -12c-23.333 -48 -47.333 -94 -72 -138c-45.333 -81.333 -91 -149.666 -137 -204.999c-44 -52.667 -86.667 -79 -128 -79h-6c-32 2 -58 19 -78 51s-32.333 68.333 -37 109c-1.33301 9.33301 -2 19 -2 29c0 16.667 1.66699 33.667 5 51
c5.33301 26.667 15 49.667 29 69c12 16.667 27.333 30 46 40c19.333 9.33301 42.333 13.666 69 12.999c17.333 -5.33301 26 -20.333 26 -45c0 -24 -6.33301 -39 -19 -45c-19.333 10 -36 14 -50 12s-25.667 -8 -35 -18c-10.667 -11.333 -18.334 -27 -23.001 -47
c-4.66699 -19.333 -6.33398 -40 -5.00098 -62c1.33301 -32.667 8.66602 -62.667 21.999 -90c13.333 -28 31.333 -42.333 54 -43c14 -1.33301 29.667 6.66699 47 24c17.333 16.667 35.666 39.667 54.999 69c36.667 55.333 76 126.666 118 213.999
c28.667 60.667 58 121.334 88 182.001c-27.333 58.667 -52.666 116 -75.999 172c-24 57.333 -46.333 103.333 -67 138c-11.333 18.667 -22 33.334 -32 44.001c-10 10 -19.333 14.667 -28 14c-3.33301 5.33301 -5 10.666 -5 15.999c0 10.667 6.66699 21.667 20 33
c14 12 28.667 18 44 18c8 0 16 -1.66699 24 -5z" />
    <glyph glyph-name="Y" unicode="Y" horiz-adv-x="834" 
d="M51 380c10 -2.66699 16.665 -9.00293 19.998 -19.0029c3.33301 -9.33301 3.66602 -15.333 0.999023 -18c-14 -5.33301 -24.333 -16.333 -31 -33c-6 -16.667 -5.66699 -32 1 -46c2.66699 -6 7 -11.333 13 -16c5.33301 -4 12.666 -7 21.999 -9
c32.667 -7.33301 65 2.66699 97 30c-6 32.667 -9.66699 66.667 -11 102c-2 35.333 -1.66699 70.666 1 105.999c2 36 6.66699 70 14 102c12 59.333 31.333 108.666 58 147.999c24 34.667 53.333 52 88 52c4 0 8.33301 -0.333008 13 -1c12.667 -1.33301 23.667 -6 33 -14
c8.66699 -8.66699 15.334 -19.667 20.001 -33c8.66699 -24.667 11 -56 7 -94c-4 -38.667 -13 -79 -27 -121c-17.333 -52 -41 -102 -71 -150c-10.667 -17.333 -22 -33.666 -34 -48.999l4 -34c5.33301 -56.667 14 -105 26 -145c12.667 -39.333 28.334 -59.666 47.001 -60.999
c34.667 -2.66699 66.667 17 96 59c30 42 55.333 89 76 141c13.333 35.333 24.333 69.333 33 102s14 59.667 16 81c4 39.333 6.33301 72 7 98s3 50.667 7 74c4 8 9 14 15 18c5.33301 4 11.333 6 18 6c15.333 0 30.333 -7.33301 45 -22c15.333 -15.333 25 -31.666 29 -48.999
c-8 -6 -14.333 -20 -19 -42c-4 -22 -7.33301 -49.333 -10 -82c-4 -60.667 -6.33301 -135 -7 -223c-0.666992 -50 -1.66699 -99.333 -3 -148l4 2c17.333 8.66699 33.666 17.667 48.999 27c24 14.667 45 32 63 52c17.333 20 29 45 35 75c8 0 19.667 -0.333008 35 -1
c-4 -22.667 -10.667 -42.667 -20 -60c-10 -17.333 -21.333 -32.666 -34 -45.999c-24.667 -25.333 -53.667 -46 -87 -62l-46 -22l-4 -79c-2 -38.667 -4.66699 -76 -8 -112s-8 -69.667 -14 -101c-10 -58.667 -25 -106.667 -45 -144c-19.333 -36.667 -45.666 -55 -78.999 -55
c-52 0 -90 21 -114 63s-33.667 90.333 -29 145c2 29.333 8.33301 59 19 89c11.333 30 26.333 57.667 45 83c22.667 30 50.334 54.333 83.001 73c18.667 10.667 37.667 20.667 57 30v18c0.666992 57.333 0.666992 107.333 0 150c-0.666992 38.667 -1 63 -1 73
c-1.33301 -5.33301 -3.66602 -12.333 -6.99902 -21c-3.33301 -10 -7.66602 -21.333 -12.999 -34c-10.667 -23.333 -24.334 -48.666 -41.001 -75.999c-16.667 -28 -36 -52 -58 -72c-14.667 -13.333 -30.334 -23.666 -47.001 -30.999c-16 -8 -33.333 -11.333 -52 -10
s-36 6.66602 -52 15.999c-16 10 -30.333 23 -43 39c-23.333 30.667 -41.666 70 -54.999 118l-6 23c-14 -8 -28.333 -14.333 -43 -19c-21.333 -6 -43.333 -6.66699 -66 -2c-12.667 3.33301 -23.667 8 -33 14s-17 13 -23 21c-12.667 16.667 -19 35 -19 55c0 8 1 16.667 3 26
c8 29.333 25.333 44.333 52 45zM510.998 -17.0029c-24.667 -16.667 -45.333 -38 -62 -64s-29 -52.667 -37 -80c-8 -26.667 -12.333 -52.667 -13 -78c-2 -46.667 6 -86.667 24 -120c18 -32.667 40 -50 66 -52c12 -0.666992 22 11.666 30 36.999
c8 24.667 14.667 57.334 20 98.001c2.66699 21.333 5 44.666 7 69.999c2 24.667 3.66699 50.334 5 77.001c1.33301 32 2.33301 64.667 3 98c0 14 0.333008 27.667 1 41c-15.333 -8 -30 -17 -44 -27zM294.999 437.997c12 24.667 22.667 49.998 32 75.998s17 51 23 75
c12 44 17 82.333 15 115c-1.33301 32 -11.666 49.667 -30.999 53c-7.33301 1.33301 -14.333 -1.66699 -21 -9c-6 -7.33301 -11.667 -17.666 -17 -30.999c-10 -24.667 -17.667 -58.667 -23 -102c-6 -42.667 -9.66699 -89 -11 -139
c-0.666992 -32 -0.333984 -64.333 0.999023 -97c11.333 18.667 22 38.334 32 59.001z" />
    <glyph glyph-name="Z" unicode="Z" horiz-adv-x="604" 
d="M67 796c2 -7.33301 7.66504 -14.0029 16.998 -20.0029c8.66699 -6 20 -11 34 -15c25.333 -8 57 -13.333 95 -16s77 -3.66699 117 -3s78.333 2.33398 115 5.00098c36 3.33301 64.333 7 85 11c21.333 -1.33301 35.333 -9.66602 42 -24.999s3 -30.333 -11 -45
c-27.333 -28 -64 -73.667 -110 -137s-95.333 -132 -148 -206l-86 -120c-29.333 -40 -57.666 -78.333 -84.999 -115c36.667 6 77.667 0.333008 123 -17s87.666 -35 126.999 -53c20.667 -9.33301 40 -17.333 58 -24c18 -7.33301 33.333 -11.333 46 -12
c12 -0.666992 20.667 2.33301 26 9c6 6.66699 8 18.667 6 36c21.333 4.66699 38.333 0.666992 51 -12c8.66699 -8.66699 13 -18.334 13 -29.001c0 -4 -0.666992 -8 -2 -12c-2 -6.66699 -5.66699 -13 -11 -19c-5.33301 -6.66699 -13 -12.334 -23 -17.001
c-21.333 -8 -42.666 -13 -63.999 -15c-13.333 -1.33301 -26.333 -2 -39 -2h-22c-38 2.66699 -74 9.33398 -108 20.001c-34 11.333 -65 21.333 -93 30c-23.333 7.33301 -44.333 12.333 -63 15c-18 3.33301 -33 1 -45 -7c-24.667 2.66699 -41.667 14.334 -51 35.001
s-4.33301 43.334 15 68.001c74 98 142 197 204 297c62.667 100 132 187.667 208 263c-50.667 -7.33301 -107 -12.333 -169 -15c-62.667 -2 -119.334 0 -170.001 6c-27.333 3.33301 -52 8.33301 -74 15c-21.333 6 -37.666 14 -48.999 24c-4 4.66699 -7 9.66699 -9 15
c-1.33301 5.33301 -2.33301 10.666 -3 15.999c-0.666992 2.66699 -1 5.33398 -1 8.00098c0.666992 19.333 7 37.333 19 54c8.66699 11.333 16.334 17 23.001 17c4 0 8 -2.66699 12 -8z" />
    <glyph glyph-name="bracketleft" unicode="[" horiz-adv-x="189" 
d="M41 872c58.667 -0.666992 102.666 -1.33105 131.999 -1.99805c2 -4.66699 3 -9.66699 3 -15s-1.33301 -11 -4 -17c-24 2.66699 -41.667 4.66699 -53 6c-10 -93.333 -16.667 -195 -20 -305s-3.66602 -218.333 -0.999023 -325c1.33301 -57.333 3.33301 -113.333 6 -168
c3.33301 -54 7.33301 -105 12 -153l63 3c2.66699 -4.66699 4 -10.334 4 -17.001v-2c0 -8 -0.333008 -13.667 -1 -17c-65.333 -0.666992 -114.333 -1.33398 -147 -2.00098c-8.66699 97.333 -14 203 -16 317c-0.666992 42 -1 84.333 -1 127c0 71.333 1 143 3 215
c2 61.333 4.66699 122 8 182s7.33301 117.667 12 173z" />
    <glyph glyph-name="backslash" unicode="\" horiz-adv-x="549" 
d="M452 -2c-2.66699 4.66699 -8.33203 15.0029 -16.999 31.0029c-8.66699 16.667 -19.334 37.667 -32.001 63c-24 46 -53.333 103 -88 171s-69.334 136.333 -104.001 205c-15.333 30 -30.333 59.333 -45 88c-15.333 28.667 -29.333 55.667 -42 81
c-24.667 47.333 -45.667 86.666 -63 117.999s-27.666 49.333 -30.999 54c13.333 8 26.333 12 39 12c3.33301 0 6.33301 -0.333008 9 -1c15.333 -2.66699 27 -6 35 -10c0.666992 -2.66699 3.33398 -9.33398 8.00098 -20.001c4.66699 -11.333 11 -25.333 19 -42
c15.333 -32 34.666 -72.667 57.999 -122c24 -48.667 49.667 -100 77 -154c33.333 -66 67 -130.667 101 -194c34 -64 63.333 -115.333 88 -154c13.333 -20.667 25 -36.667 35 -48c9.33301 -11.333 16.333 -16 21 -14c5.33301 -14.667 8 -27.334 8 -38.001
c-0.666992 -14 -5.33398 -23.667 -14.001 -29c-8 -4.66699 -16.333 -7 -25 -7c-11.333 0 -23.666 3.33301 -36.999 10z" />
    <glyph glyph-name="bracketright" unicode="]" horiz-adv-x="208" 
d="M31 871c58.667 0.666992 102.666 0.99707 131.999 0.99707c8.66699 -102.667 15 -212 19 -328c3.33301 -81.333 5 -161.666 5 -240.999c0 -34 -0.333008 -68 -1 -102c-1.33301 -60.667 -3.33301 -120 -6 -178c-2.66699 -57.333 -6.33398 -112.333 -11.001 -165
c-65.333 0.666992 -114.333 1.33398 -147 2.00098c0 4 -0.333008 9.66699 -1 17v2c0 6.66699 1.33301 12.667 4 18l63 -3c8.66699 88.667 14.667 187.334 18 296.001s3.33301 217 0 325c-1.33301 58 -3.66602 115 -6.99902 171c-3.33301 55.333 -7.66602 108 -12.999 158
c-24 -2.66699 -41.667 -4.66699 -53 -6c-3.33301 6 -5 12 -5 18c0 5.33301 1 10.333 3 15z" />
    <glyph glyph-name="asciicircum" unicode="^" horiz-adv-x="486" 
d="M247 798c47.333 -46 119 -114.999 215 -206.999v-6c0 -13.333 -9.33301 -25.333 -28 -36c-10 -5.33301 -19.333 -8 -28 -8c-10.667 0 -20.667 4.66699 -30 14c-28.667 43.333 -71.334 108.666 -128.001 195.999c-32.667 -44.667 -81.667 -111.334 -147 -200.001
c-12 -11.333 -29 -12 -51 -2c-22 10.667 -33 20.334 -33 29.001c16.667 14 37.667 33.333 63 58c26 24.667 52.667 50.667 80 78c14.667 14 29.334 28.333 44.001 43c14.667 14 29 27.667 43 41z" />
    <glyph glyph-name="underscore" unicode="_" horiz-adv-x="525" 
d="M497 58c4.66699 -7.33301 8.66699 -16.3311 12 -26.998c1.33301 -5.33301 2 -11 2 -17c0 -4.66699 -0.666992 -9.33398 -2 -14.001c-16.667 2.66699 -37 4 -61 4c-24.667 0.666992 -51.334 0.666992 -80.001 0c-53.333 -1.33301 -108.333 -3.33301 -165 -6
c-28 -1.33301 -53.333 -2 -76 -2c-24 0 -45.333 0.666992 -64 2c-17.333 7.33301 -26 16.333 -26 27v5c2.66699 12.667 13.334 22.667 32.001 30c8 -8.66699 37 -12.667 87 -12c49.333 0.666992 102 2 158 4c37.333 2 72.333 3.66699 105 5
c33.333 1.33301 59.333 1.66602 78 0.999023z" />
    <glyph glyph-name="grave" unicode="`" horiz-adv-x="147" 
d="M29 758c-5.33301 4.66699 -8.33301 13.998 -9 27.998v2c0 12.667 4 22 12 28c3.33301 2.66699 7.66602 4.33398 12.999 5.00098h2c4.66699 0 10.334 -1.66699 17.001 -5c25.333 -10.667 44 -29.667 56 -57c12 -26.667 19.333 -50.667 22 -72
c-0.666992 -4.66699 -3 -7.66699 -7 -9h-6c-2.66699 0 -5.66699 0.333008 -9 1c-6.66699 18 -21 34.667 -43 50c-21.333 14.667 -37.333 24.334 -48 29.001z" />
    <glyph glyph-name="a" unicode="a" horiz-adv-x="491" 
d="M324 310c-1.33301 -15.333 -5.00195 -27.001 -11.002 -35.001c-5.33301 -7.33301 -11.666 -12.666 -18.999 -15.999c-13.333 -4.66699 -27.666 -3.33398 -42.999 3.99902s-25.333 15 -30 23c8 4 16 13.667 24 29c7.33301 15.333 9 29 5 41c-2 5.33301 -5.33301 10 -10 14
s-11.334 6.33301 -20.001 7c-20 3.33301 -39.333 -6.66699 -58 -30c-18.667 -22.667 -34 -50.334 -46 -83.001c-14.667 -39.333 -22.334 -78.666 -23.001 -117.999c0 -39.333 11.667 -63 35 -71c14 -5.33301 28 -0.333008 42 15c14.667 15.333 27 34.333 37 57
c5.33301 12.667 10 25.667 14 39c3.33301 13.333 6 26.333 8 39c12 16 29 16.333 51 1s33.333 -29 34 -41c-6 -10.667 -10 -26.667 -12 -48c-1.33301 -20.667 0.666992 -40.334 6 -59.001c3.33301 -12.667 8.33301 -23.334 15 -32.001s15 -14 25 -16
c12.667 -2 24.334 2.66699 35.001 14c10.667 10.667 20.334 24.667 29.001 42c13.333 26.667 24 55.334 32 86.001c8.66699 30.667 14.334 52.667 17.001 66c7.33301 2.66699 14 3.66699 20 3c6 0 11.667 -1 17 -3c-2 -10.667 -6.66699 -29.667 -14 -57
s-17.333 -55.333 -30 -84c-6.66699 -15.333 -14.334 -30 -23.001 -44c-8 -14 -17 -26.333 -27 -37c-10 -10 -20.667 -17.667 -32 -23c-9.33301 -4.66699 -19.333 -7 -30 -7h-6c-14.667 1.33301 -28 5 -40 11c-11.333 6 -21.333 13.333 -30 22
c-16.667 16 -28.667 33.667 -36 53s-11.666 33 -12.999 41c-4 -15.333 -16.333 -33.666 -37 -54.999s-43 -34.333 -67 -39c-10.667 -1.33301 -21.334 -0.666016 -32.001 2.00098s-20.667 8.66699 -30 18c-29.333 28.667 -44 65.334 -44 110.001v7
c1.33301 48.667 13.333 93.667 36 135c15.333 28 34.333 51.667 57 71c22.667 20 47.334 32 74.001 36c15.333 2.66699 29.666 4 42.999 4c32.667 0 57.667 -8 75 -24c24 -22.667 34.667 -45.334 32 -68.001z" />
    <glyph glyph-name="b" unicode="b" horiz-adv-x="452" 
d="M32 633c-0.666992 13.333 10.6631 24.668 33.9961 34.001c12.667 5.33301 24.667 8 36 8c10 0 19.333 -2 28 -6c6.66699 -2.66699 12.667 -6.66699 18 -12c4.66699 -4.66699 8.33398 -11 11.001 -19c2 -7.33301 -1.33301 -37.666 -10 -90.999
c-9.33301 -54 -18 -114 -26 -180c-7.33301 -53.333 -12.333 -105.333 -15 -156c-3.33301 -51.333 -2 -93.333 4 -126c3.33301 -18 8 -32 14 -42c6.66699 -10.667 15.334 -16.334 26.001 -17.001c14.667 -0.666992 29 11 43 35c12.667 22.667 23.334 49 32.001 79
c-15.333 19.333 -27.666 40.666 -36.999 63.999c-7.33301 16.667 -12 33.334 -14 50.001c-2.66699 16.667 -2.33398 32 0.999023 46c2.66699 13.333 8.66699 24.666 18 33.999c9.33301 10 22 17 38 21c18 4 33 4 45 0c11.333 -4 20.666 -11 27.999 -21
c16 -24.667 19.667 -61 11 -109c-6 -32.667 -15.333 -63.667 -28 -93c11.333 -10 22.333 -15.333 33 -16c11.333 -1.33301 21.333 0.333984 30 5.00098c8 4.66699 15.667 11 23 19c12 14 21.333 31.333 28 52s11.667 37 15 49h36c-3.33301 -14 -9.66602 -34 -18.999 -60
s-23.333 -49 -42 -69c-10 -10 -21.667 -18 -35 -24s-28 -8.33301 -44 -7c-14.667 1.33301 -29 6.33301 -43 15l-4 -6c-16 -26.667 -34.667 -49.334 -56 -68.001c-20.667 -18.667 -42.667 -28 -66 -28h-3c-34.667 -0.666992 -62 7 -82 23c-20.667 16 -35.667 37.333 -45 64
c-10 28.667 -15 61.667 -15 99v2c0 36 2.33301 73.667 7 113c3.33301 26 7 51.667 11 77c4 26 8 51 12 75c6.66699 44 11.334 83 14.001 117s-1.33301 57 -12 69zM245.997 250.002c0.666992 33.333 -6.66797 48 -22.001 44c-8 -2 -11 -10.667 -9 -26
c2 -16 7.66699 -33.333 17 -52c2.66699 -6.66699 5.66699 -13 9 -19c2.66699 18 4.33398 35.667 5.00098 53z" />
    <glyph glyph-name="c" unicode="c" horiz-adv-x="426" 
d="M269 338c2.66699 -10.667 3.32617 -20.666 1.99316 -29.999s-4.33301 -18 -9 -26c-13.333 -22.667 -32.666 -37 -57.999 -43s-35.666 0.666992 -30.999 20c16.667 8.66699 27 24.334 31 47.001c3.33301 22 -0.333984 39 -11.001 51c-4 4 -8.33301 7.33301 -13 10
c-5.33301 2 -11.333 2.66699 -18 2c-22.667 -2.66699 -39 -18 -49 -46c-9.33301 -28 -12.666 -60 -9.99902 -96c3.33301 -43.333 15 -85 35 -125s47.667 -61.333 83 -64c18 -2 34.667 0.666992 50 8c14.667 6.66699 28 16 40 28c22.667 22 40.667 49.667 54 83
c13.333 32.667 23 61.334 29 86.001c4.66699 1.33301 10.334 2 17.001 2c6.66699 -0.666992 13 -1.33398 19 -2.00098c-6 -26 -16.667 -59.333 -32 -100c-16 -40.667 -39 -75.667 -69 -105c-16 -15.333 -34.333 -27.333 -55 -36c-17.333 -7.33301 -36.666 -11 -57.999 -11
h-12c-27.333 2 -51.666 7.66699 -72.999 17s-39.666 21.333 -54.999 36c-29.333 27.333 -49.666 59.666 -60.999 96.999c-6.66699 24 -10 47 -10 69c0 12 1 23.667 3 35c4 19.333 10 37.333 18 54c8.66699 16 18.667 30.667 30 44c22.667 25.333 49 43.333 79 54
c16 6 31.333 9.33301 46 10c12 0 23 -2 33 -6c12.667 -4.66699 24 -12 34 -22c9.33301 -10.667 16.333 -24.334 21 -41.001z" />
    <glyph glyph-name="d" unicode="d" horiz-adv-x="507" 
d="M250 394c2 26 3.66016 51.3359 4.99316 76.0029c2 46 3 87 3 123s-2.66699 61.667 -8 77c17.333 18 36.333 27 57 27c7.33301 0 14.666 -1 21.999 -3c28.667 -8 43 -25.667 43 -53c0.666992 -5.33301 0.333984 -13.333 -0.999023 -24
c-0.666992 -11.333 -2 -24.333 -4 -39c-3.33301 -28.667 -7.66602 -62.334 -12.999 -101.001s-11 -77 -17 -115c-5.33301 -38.667 -10 -74 -14 -106s-6.33301 -54.667 -7 -68c0 -8.66699 0.333008 -18.667 1 -30s1.33398 -23 2.00098 -35
c2.66699 -22 6.66699 -42.333 12 -61c5.33301 -18 12.666 -27.667 21.999 -29c12.667 -2.66699 24.334 1.66602 35.001 12.999s20.334 25.666 29.001 42.999c12.667 26 23.334 54.333 32.001 85c8 31.333 13.667 53.333 17 66c6.66699 2.66699 13.334 4 20.001 4
c6 0 11.667 -0.666992 17 -2c-1.33301 -6 -3.33301 -14.667 -6 -26c-2.66699 -10.667 -6 -23 -10 -37c-7.33301 -26.667 -17.666 -55.334 -30.999 -86.001c-12.667 -30 -28.334 -54.667 -47.001 -74c-10 -10 -20.667 -17.667 -32 -23c-10 -4.66699 -20.333 -7 -31 -7h-5
c-12.667 0.666992 -24 4 -34 10c-10 5.33301 -19 12.333 -27 21c-14 15.333 -24.667 32.333 -32 51c-6.66699 19.333 -10.667 33 -12 41c-3.33301 -6 -13.333 -20 -30 -42c-16 -21.333 -37.667 -35.333 -65 -42c-30 -7.33301 -53 -7.66602 -69 -0.999023
s-29 17.334 -39 32.001c-17.333 25.333 -26.666 50.666 -27.999 75.999c-0.666992 6.66699 -1 13.334 -1 20.001c0 17.333 1.33301 32.666 4 45.999c2 10 4.33301 19 7 27c2.66699 7.33301 4.66699 13 6 17c12.667 42 32.334 72.667 59.001 92
c27.333 19.333 46.333 30.333 57 33c42.667 12 76 12 100 0c4 -2 7.66699 -4 11 -6zM220.993 351.003c-10.667 0.666992 -20.665 -1 -29.998 -5c-9.33301 -4.66699 -18 -11.334 -26 -20.001c-8 -8 -15.333 -18 -22 -30s-12.334 -24.667 -17.001 -38
c-8.66699 -24 -14.667 -48.333 -18 -73s-3.33301 -43.667 0 -57c3.33301 -14 9.66602 -28.333 18.999 -43s22.333 -17.667 39 -9c16 9.33301 32.333 31 49 65c16 33.333 26.333 91 31 173l1 29c-8 4.66699 -16.667 7.33398 -26 8.00098z" />
    <glyph glyph-name="e" unicode="e" horiz-adv-x="399" 
d="M251 339c2.66699 -16 1.66602 -31 -3.00098 -45c-4 -14.667 -10.667 -28.334 -20 -41.001c-22 -30 -52 -53.333 -90 -70c-12.667 -6 -24.667 -10.667 -36 -14c2 -5.33301 4 -11.333 6 -18c8 -27.333 19.333 -51.666 34 -72.999c7.33301 -11.333 15.666 -21 24.999 -29
c9.33301 -7.33301 19.666 -11.333 30.999 -12c17.333 -1.33301 33.333 1.66699 48 9c14.667 6.66699 28 16.334 40 29.001c21.333 22.667 38.333 51 51 85c13.333 33.333 22.666 62 27.999 86c4.66699 1.33301 10.334 1.66602 17.001 0.999023
c6.66699 0 12.667 -0.333008 18 -1c-4.66699 -26 -14.667 -59 -30 -99c-14.667 -40.667 -36.667 -75.334 -66 -104.001c-15.333 -15.333 -33 -27.666 -53 -36.999c-17.333 -8 -36.666 -12 -57.999 -12c-3.33301 0 -6.66602 0.333008 -9.99902 1
c-48.667 2.66699 -86.667 18 -114 46c-27.333 28.667 -45.666 60.667 -54.999 96c-5.33301 18.667 -8.33301 37.667 -9 57v9c0 16 1.33301 30.667 4 44c11.333 54 30.333 91 57 111s48 32.333 64 37c11.333 3.33301 22.333 4.66602 33 3.99902c14.667 0 29 -2.66699 43 -8
c25.333 -9.33301 40.333 -26.666 45 -51.999zM110.999 210c20.667 12 38 30.001 52 54.001c14 23.333 22 41 24 53c3.33301 19.333 2 36.333 -4 51c-5.33301 14 -18.333 13.333 -39 -2c-8.66699 -6.66699 -15.667 -14.667 -21 -24c-6 -9.33301 -10.667 -19.333 -14 -30
c-6.66699 -20.667 -10.667 -40.334 -12 -59.001c-1.33301 -19.333 -2 -31.333 -2 -36s0.333008 -9.66699 1 -15c4.66699 2 9.66699 4.66699 15 8z" />
    <glyph glyph-name="f" unicode="f" horiz-adv-x="383" 
d="M40 604c3.33301 9.33301 7.33398 16.6592 12.001 21.9922c5.33301 5.33301 11.333 9.66602 18 12.999c8 3.33301 16 5 24 5c12.667 0 25.667 -4 39 -12c22.667 -13.333 34.667 -32 36 -56c4.66699 -60.667 3.66699 -134 -3 -220
c-7.33301 -85.333 -15 -171.666 -23 -258.999c26.667 0.666992 50 4.33398 70 11.001c43.333 12.667 74 32.334 92 59.001c18 27.333 29.667 51 35 71c6 0.666992 12.333 1 19 1c6 0 12 -0.666992 18 -2c-14 -56 -45.333 -101.333 -94 -136
c-44 -31.333 -92 -44.666 -144 -39.999v-5c14.667 -8.66699 29.334 -22 44.001 -40c20 -24.667 37.667 -54 53 -88c23.333 -51.333 38.333 -106.666 45 -165.999s-1.33301 -107 -24 -143c-9.33301 -15.333 -21.333 -27.666 -36 -36.999
c-15.333 -9.33301 -34 -14.666 -56 -15.999c-3.33301 -0.666992 -6.33301 -1 -9 -1c-47.333 0 -80 24.333 -98 73c-18.667 52 -29 118 -31 198c-0.666992 43.333 0.333008 89.333 3 138l5 84l-20 4c-10.667 4 -16 10.333 -16 19
c-0.666992 2.66699 -0.333984 5.33398 0.999023 8.00098c3.33301 13.333 9.66602 20 18.999 20c6.66699 -1.33301 13 -2.66602 19 -3.99902l2 16c6.66699 94.667 12 186 16 274c4 87.333 -1.33301 157 -16 209zM123.001 -145.007
c-4.66699 -76 -3.66406 -136.666 3.00293 -181.999c3.33301 -24.667 9 -43.667 17 -57c7.33301 -13.333 18 -19.333 32 -18c16 1.33301 28 23.666 36 66.999c7.33301 43.333 6.66602 92 -2.00098 146c-4.66699 29.333 -12 58.333 -22 87
c-9.33301 28.667 -22.333 54.667 -39 78c-4.66699 6.66699 -9.33398 12.667 -14.001 18c-4.66699 -48 -8.33398 -94.333 -11.001 -139z" />
    <glyph glyph-name="g" unicode="g" horiz-adv-x="499" 
d="M330 303c-0.666992 -8 -2.66406 -14.665 -5.99707 -19.998c-3.33301 -6 -7.33301 -11 -12 -15c-14 -12.667 -31.333 -18 -52 -16c-20.667 2.66699 -33 11.667 -37 27c7.33301 8 14.333 19.667 21 35s8 28.666 4 39.999c-1.33301 5.33301 -4.33301 9.66602 -9 12.999
c-4 4 -10 6.66699 -18 8c-16.667 2.66699 -34 -6.66602 -52 -27.999c-17.333 -21.333 -32.666 -47.333 -45.999 -78c-16.667 -38 -27.667 -75.667 -33 -113c-6 -38 -2 -61.667 12 -71s30.333 -9 49 1c18.667 10.667 35 26.334 49 47.001c8 10.667 14.667 22 20 34
c5.33301 12.667 9 25.334 11 38.001c3.33301 12 11.666 19.333 24.999 22s26.333 2.33398 39 -0.999023c10.667 -2.66699 19 -7.33398 25 -14.001c6 -6 7 -13.333 3 -22c-6 -11.333 -10.667 -45.333 -14 -102l-2 -30c16 12 31.333 24 46 36c25.333 20 47.333 42 66 66
s31.667 51.667 39 83c6.66699 2.66699 13 3.66699 19 3s11.667 -2 17 -4c-7.33301 -34.667 -20.666 -65 -39.999 -91s-41.666 -49.667 -66.999 -71c-16.667 -13.333 -34.334 -26.333 -53.001 -39l-30 -20c-2.66699 -38 -6.33398 -78.333 -11.001 -121
c-3.33301 -29.333 -7.33301 -58.333 -12 -87c-4 -29.333 -9 -57.333 -15 -84c-11.333 -49.333 -26 -90.666 -44 -123.999s-41 -50.333 -69 -51h-3c-36.667 -0.666992 -66.334 15.666 -89.001 48.999c-22.667 34 -34.334 74 -35.001 120c0 24.667 3.66699 50 11 76
c6.66699 25.333 18 49.666 34 72.999c10.667 16 23.334 31 38.001 45c14 14 29.667 27.333 47 40c20 16 40.667 31 62 45c2 24 3.66699 46 5 66c2 33.333 2.66699 52.666 2 57.999c-4.66699 -12.667 -11.334 -25 -20.001 -37s-18.334 -22.333 -29.001 -31
c-20.667 -17.333 -43.334 -28 -68.001 -32c-25.333 -4 -48.333 4 -69 24c-24.667 22 -37 52.667 -37 92c0 4.66699 0.333008 9.66699 1 15c3.33301 46 15.666 89.667 36.999 131c14.667 27.333 32.334 51 53.001 71s42.667 32.333 66 37c18.667 4 35.334 6 50.001 6
c5.33301 0 10.333 -0.333008 15 -1c18.667 -2 34.667 -6 48 -12c24 -11.333 39.667 -26.333 47 -45c8 -18.667 11.667 -32.334 11 -41.001zM179.003 -64.998c-32 -23.333 -57.999 -51.001 -77.999 -83.001c-10 -16 -16.333 -35.667 -19 -59s-2.33398 -47 0.999023 -71
c4 -36.667 12.667 -69.667 26 -99c13.333 -30 28.333 -45 45 -45c8.66699 0 17 22.333 25 67s15.333 96.334 22 155.001c2.66699 25.333 5 51 7 77c2.66699 26 5 51 7 75v10c-12 -8.66699 -24 -17.667 -36 -27z" />
    <glyph glyph-name="h" unicode="h" horiz-adv-x="482" 
d="M130 644c1.33301 -12 1.00098 -33.3281 -0.999023 -63.9951c-1.33301 -30.667 -3.33301 -64.667 -6 -102c-1.33301 -19.333 -2.66602 -39 -3.99902 -59c-2 -20 -3.66699 -39.333 -5 -58c-3.33301 -34.667 -6 -65 -8 -91c-2.66699 -25.333 -4 -41.333 -4 -48
c2 6.66699 10.333 25 25 55c14.667 30.667 33.667 55.334 57 74.001c8 6.66699 16.333 12 25 16c8.66699 3.33301 17.667 5 27 5c15.333 0 27.666 -5 36.999 -15c10 -9.33301 17.667 -22 23 -38c6 -16 10 -34.667 12 -56s3.66699 -42.666 5 -63.999
c1.33301 -40.667 2.33301 -78 3 -112s7.33398 -52 20.001 -54c16.667 -3.33301 32.334 7.66699 47.001 33c14 24.667 26.333 51.667 37 81c6.66699 19.333 12.334 37.666 17.001 54.999s7.66699 29.666 9 36.999c5.33301 3.33301 11.666 4.66602 18.999 3.99902
c7.33301 0 13 -1.66699 17 -5c-2 -8 -4.33301 -17.667 -7 -29s-6 -23.666 -10 -36.999c-7.33301 -24.667 -17.333 -50.667 -30 -78c-12 -27.333 -26.667 -50.333 -44 -69c-11.333 -12 -24 -21.333 -38 -28c-14.667 -6 -30.334 -8 -47.001 -6
c-18.667 3.33301 -33.667 10.333 -45 21s-20 24 -26 40c-4.66699 14 -8 29.333 -10 46c-2 17.333 -3 35 -3 53c0 41.333 1 79.666 3 114.999s-6 53.666 -24 54.999c-10.667 0.666992 -22.667 -9 -36 -29c-14 -20 -26.333 -42 -37 -66c-7.33301 -16 -13.333 -31.333 -18 -46
c-5.33301 -14.667 -8.33301 -26.334 -9 -35.001c-2 -28 -2.66699 -52.333 -2 -73c0 -20.667 -0.666992 -43.334 -2 -68.001c-6.66699 -16 -23.667 -26 -51 -30c-4.66699 -0.666992 -9 -1 -13 -1c-19.333 0 -29.333 8.66699 -30 26c3.33301 18.667 6.66602 55 9.99902 109
s6.33301 112.667 9 176c1.33301 50 2.33301 99 3 147c0 48 -1 88 -3 120c-0.666992 17.333 -2 31.666 -4 42.999s-4.33301 18.333 -7 21c1.33301 12.667 11.666 25.667 30.999 39c15.333 10.667 30.333 16 45 16c4 0 8 -0.666992 12 -2c6 -0.666992 11.667 -3 17 -7
s10 -9.66699 14 -17z" />
    <glyph glyph-name="i" unicode="i" horiz-adv-x="278" 
d="M120 379c-2 -22 -5.00391 -46 -9.00391 -72c-3.33301 -26 -7 -51.667 -11 -77c-6 -48.667 -8.33301 -92.334 -7 -131.001c1.33301 -38 14 -59.333 38 -64c16 -3.33301 31 7.33398 45 32.001c14 24 26 50.667 36 80c6.66699 19.333 12.334 37.333 17.001 54
c4.66699 17.333 8 30 10 38c5.33301 0.666992 11.333 1.33398 18 2.00098c7.33301 0 13.333 -0.666992 18 -2c-2 -10.667 -6.33301 -29.667 -13 -57c-7.33301 -27.333 -16.666 -55 -27.999 -83c-6.66699 -14.667 -14 -29 -22 -43c-7.33301 -13.333 -15.666 -25 -24.999 -35
s-19.333 -17.333 -30 -22c-8 -4 -16.333 -6 -25 -6c-2.66699 0 -5.33398 0.333008 -8.00098 1c-32.667 3.33301 -57.667 12.333 -75 27s-29.666 32.667 -36.999 54c-6 16.667 -9.33301 35 -10 55v14c0 15.333 1 30.666 3 45.999c3.33301 38 8.33301 73.333 15 106
s6.33398 55 -0.999023 67c6.66699 14 23.667 24.333 51 31c8 1.33301 15 2 21 2c15.333 0 25 -5.66699 29 -17zM33.9961 536c2 12 -0.000976562 23.001 -6.00098 33.001c-4.66699 6.66699 -7 16 -7 28c0 4.66699 0.333008 9.66699 1 15c2.66699 18 14.334 29.333 35.001 34
c10.667 2.66699 19.667 4 27 4s13.333 -1 18 -3c12 -6 21.667 -17 29 -33c4.66699 -10.667 7 -21 7 -31c0 -6 -0.666992 -11.667 -2 -17c-4 -16.667 -20 -28 -48 -34c-11.333 -2.66699 -21.333 -4.33398 -30 -5.00098c-11.333 0 -19.333 3 -24 9z" />
    <glyph glyph-name="j" unicode="j" horiz-adv-x="485" 
d="M180 348c2.66699 6.66699 6.00195 12 10.002 16c4 3.33301 8.66699 6 14 8c4 0.666992 8 1 12 1c12.667 0 25.667 -4.66699 39 -14c18 -12 27.333 -26 28 -42c-4 -2.66699 -7 -9.33398 -9 -20.001c-2.66699 -10.667 -4.33398 -24.334 -5.00098 -41.001
c-2.66699 -32 -4 -72.333 -4 -121c0 -32 -0.333008 -65 -1 -99c30 22 59.667 44.333 89 67c46.667 36.667 77 83.334 91 140.001c6.66699 2.66699 13 4 19 4c6 -0.666992 11.667 -2 17 -4c-4.66699 -22 -12 -42.333 -22 -61s-21.333 -36 -34 -52
c-24.667 -30 -53.667 -56.667 -87 -80c-24.667 -17.333 -49.334 -34.333 -74.001 -51v-17c-1.33301 -36 -3.33301 -71.667 -6 -107s-6.33398 -69.333 -11.001 -102c-10 -60 -25.333 -110 -46 -150c-20.667 -39.333 -50.334 -59.333 -89.001 -60h-3
c-20.667 0.666992 -38 6 -52 16c-13.333 10.667 -24 24.334 -32 41.001c-9.33301 20 -14 43.333 -14 70c0 14.667 1.66699 30.667 5 48c7.33301 46.667 26 91.334 56 134.001c17.333 24.667 38 47 62 67c12.667 11.333 26 22 40 32l1 18
c0.666992 35.333 1.33398 69.666 2.00098 102.999c1.33301 61.333 2 116 2 164c0.666992 47.333 1.33398 78 2.00098 92zM161.002 -78c-24.667 -20.667 -45.6689 -44.333 -63.002 -71c-10 -15.333 -17.667 -34.333 -23 -57s-8.33301 -45.667 -9 -69c-2 -34.667 1 -66 9 -94
s20.667 -42.333 38 -43c6 0 11.333 4 16 12s9 19.333 13 34c7.33301 26.667 13 62.334 17 107.001c4.66699 44.667 8.33398 92.667 11.001 144c0.666992 15.333 1 30.666 1 45.999c-3.33301 -2.66699 -6.66602 -5.66699 -9.99902 -9zM193 522.001
c2.66699 12 0.666016 23 -6.00098 33c-4.66699 6.66699 -7 16 -7 28c0 4.66699 0.333008 10 1 16c2.66699 17.333 14.334 28.333 35.001 33c10.667 2.66699 19.667 4 27 4s13.333 -1 18 -3c12 -6 21.667 -17 29 -33c4.66699 -10 7 -20.333 7 -31
c0 -6 -0.666992 -11.667 -2 -17c-3.33301 -16 -19.333 -27.333 -48 -34c-11.333 -2.66699 -21 -4 -29 -4c-12 -0.666992 -20.333 2 -25 8z" />
    <glyph glyph-name="k" unicode="k" horiz-adv-x="485" 
d="M130 635c1.33301 -12 0.998047 -32.665 -1.00195 -61.998c-1.33301 -28.667 -3.33301 -60.334 -6 -95.001c-2.66699 -34 -5.66699 -68 -9 -102c-2.66699 -34.667 -5.33398 -64 -8.00098 -88c-0.666992 -12.667 -1.66699 -23.667 -3 -33c-0.666992 -8 -1 -13.667 -1 -17
c1.33301 4 6 14.333 14 31c8 17.333 18.333 35.333 31 54c6.66699 10.667 14 20.667 22 30s16.333 17 25 23c8.66699 6.66699 17.667 11.334 27 14.001c10 3.33301 20 4 30 2c12 -2.66699 21.667 -7 29 -13c8 -6.66699 14 -14.334 18 -23.001
c4 -9.33301 6.33301 -19.666 7 -30.999c0 -11.333 -1.66699 -23 -5 -35c-5.33301 -22 -16 -42.667 -32 -62c-16 -20 -35.333 -33.667 -58 -41c16 -8.66699 29 -24.667 39 -48c10 -22.667 21.333 -44 34 -64c7.33301 -10.667 15 -19.667 23 -27c8.66699 -8 18.667 -13 30 -15
c16.667 -3.33301 32.334 7.66699 47.001 33c14 24.667 26.333 51.667 37 81c6.66699 19.333 12.334 37.666 17.001 54.999s7.66699 29.666 9 36.999c5.33301 3.33301 11.666 4.66602 18.999 3.99902c7.33301 0 13 -1.66699 17 -5
c-3.33301 -14.667 -8.66602 -34.667 -15.999 -60c-6.66699 -26 -16 -52 -28 -78c-6 -14 -13 -27.333 -21 -40c-8 -13.333 -16.667 -25 -26 -35c-11.333 -12 -24 -21.333 -38 -28c-14.667 -6 -30.334 -8 -47.001 -6c-12 2 -23 7 -33 15
c-10 7.33301 -19.667 16.666 -29 27.999c-21.333 25.333 -40 53.333 -56 84s-31.667 46.667 -47 48c-2 2 -2.33301 5.33301 -1 10c0.666992 4 2 8 4 12c11.333 2.66699 22.666 10.334 33.999 23.001c10.667 12.667 20 27 28 43c10 19.333 16.333 37.666 19 54.999
c3.33301 17.333 0.333008 27.333 -9 30c-10 2.66699 -23 -6 -39 -26c-16 -20.667 -30.667 -43.667 -44 -69c-8.66699 -16.667 -16 -32.667 -22 -48s-9.33301 -27.333 -10 -36c-2 -28 -3 -54 -3 -78c-0.666992 -23.333 -1.66699 -47.333 -3 -72
c-6 -15.333 -22.333 -24.666 -49 -27.999c-3.33301 -0.666992 -6.66602 -1 -9.99902 -1c-20 0 -30.667 9.33301 -32 28c2.66699 14 5.33398 39.333 8.00098 76c2.66699 37.333 5 79 7 125c0.666992 25.333 1.33398 51 2.00098 77l2 78c0.666992 59.333 -0.333008 112 -3 158
c-2 46.667 -6 73.667 -12 81c1.33301 12.667 12 26 32 40c16 10.667 31.667 16 47 16c4 0 8 -0.333008 12 -1c6 -1.33301 11.667 -3.66602 17 -6.99902c5.33301 -4 10 -9.66699 14 -17z" />
    <glyph glyph-name="l" unicode="l" horiz-adv-x="304" 
d="M147 601c-2 -27.333 -5.66406 -64.334 -10.9971 -111.001c-5.33301 -46 -10.333 -94 -15 -144c-2.66699 -26.667 -5 -53 -7 -79c-1.33301 -26 -2.33301 -51 -3 -75c-1.33301 -43.333 0.333984 -80 5.00098 -110c5.33301 -30.667 15 -47.334 29 -50.001
c16 -2.66699 31 8.33301 45 33c14.667 24.667 27 51.667 37 81c6.66699 19.333 12.334 37.666 17.001 54.999c5.33301 17.333 9 30 11 38c4.66699 0.666992 10.667 1.33398 18 2.00098c7.33301 0 13.333 -0.666992 18 -2c-1.33301 -6 -3.33301 -14.333 -6 -25
c-2 -11.333 -5 -24 -9 -38c-7.33301 -25.333 -17 -53 -29 -83c-12.667 -29.333 -27.667 -53.333 -45 -72c-8.66699 -9.33301 -18.334 -16.666 -29.001 -21.999c-8 -4 -16.667 -6 -26 -6c-2.66699 0 -5.33398 0.333008 -8.00098 1c-30.667 3.33301 -55 14.333 -73 33
s-31.333 42.334 -40 71.001c-10 30 -15.667 64 -17 102v39c0 25.333 0.666992 51 2 77c2 25.333 4.33301 50.666 7 75.999c2.66699 26 5 50.333 7 73c4.66699 43.333 7.66699 81 9 113c2 32 -1.66699 53.333 -11 64c5.33301 14.667 18.666 23.334 39.999 26.001h10
c17.333 0 32.666 -5.33301 45.999 -16c7.33301 -5.33301 13.333 -12.333 18 -21c5.33301 -8 8.66602 -18 9.99902 -30z" />
    <glyph glyph-name="m" unicode="m" horiz-adv-x="727" 
d="M118 264c4 9.33301 10.6641 23.668 19.9971 43.001c9.33301 20 21.666 38 36.999 54c8 8.66699 17 16.334 27 23.001c10 6 21 9.66699 33 11c13.333 1.33301 25 -0.666992 35 -6c9.33301 -5.33301 17.666 -12.333 24.999 -21c12.667 -17.333 21.334 -37.333 26.001 -60
c5.33301 -23.333 8.33301 -40 9 -50c2.66699 9.33301 10.334 27 23.001 53c12.667 27.333 29.667 50.666 51 69.999c8.66699 8 18.334 14.333 29.001 19c9.33301 4.66699 19.666 7 30.999 7h2c14.667 0 27 -5.33301 37 -16s18.333 -24.334 25 -41.001
c6 -18 10.667 -38.333 14 -61c4 -22.667 7 -46 9 -70c3.33301 -44 6.33301 -84.667 9 -122c2.66699 -36.667 10.334 -56 23.001 -58c16.667 -3.33301 32.334 7.33398 47.001 32.001c14.667 25.333 27 52.666 37 81.999c6.66699 19.333 12.334 37.666 17.001 54.999
c4.66699 16.667 7.66699 29 9 37c5.33301 0.666992 11.666 1.33398 18.999 2.00098c7.33301 1.33301 13 0 17 -4c-3.33301 -14 -8.66602 -33.667 -15.999 -59c-7.33301 -26 -16.666 -52 -27.999 -78c-6.66699 -14 -13.667 -27.333 -21 -40c-8 -13.333 -16.667 -25 -26 -35
c-11.333 -12 -24 -21.333 -38 -28s-29.667 -8.66699 -47 -6c-18.667 3.33301 -34 10.666 -46 21.999c-11.333 12 -20.333 26.333 -27 43c-7.33301 18.667 -12.333 39 -15 61s-4.33398 44.333 -5.00098 67c-1.33301 42 -2.33301 80 -3 114
c-1.33301 33.333 -10 50.666 -26 51.999c-11.333 0.666992 -23.333 -8.33301 -36 -27s-24 -40 -34 -64c-6.66699 -15.333 -12 -30.666 -16 -45.999c-4.66699 -15.333 -7.33398 -28 -8.00098 -38c-2 -23.333 -3 -43.666 -3 -60.999c0 -16.667 -0.333008 -31.667 -1 -45
c-4 -11.333 -16.667 -15.666 -38 -12.999s-33.666 11.667 -36.999 27c2 18.667 3 38.667 3 60c0 20.667 -1 41.334 -3 62.001c-3.33301 38 -9.33301 71 -18 99c-8 28 -18.333 41.333 -31 40c-10.667 -2 -22.334 -11 -35.001 -27c-12 -16.667 -23 -35.334 -33 -56.001
c-6 -14 -11 -27.333 -15 -40c-4 -13.333 -6.33301 -25 -7 -35c-1.33301 -34 -0.666016 -69.333 2.00098 -106c2.66699 -36 3.33398 -60 2.00098 -72c-10 -8.66699 -25.333 -15.667 -46 -21c-5.33301 -2 -10.333 -3 -15 -3c-13.333 0 -23.333 5.66699 -30 17
c-0.666992 12 -0.333984 38 0.999023 78c0.666992 39.333 0.333984 79.666 -0.999023 120.999c-1.33301 33.333 -4 63 -8 89s-10.333 41.333 -19 46v5c0 18 11 34 33 48c25.333 16 41.666 15 48.999 -3c10 -24 17.333 -49 22 -75c5.33301 -26 8.33301 -43.333 9 -52z" />
    <glyph glyph-name="n" unicode="n" horiz-adv-x="492" 
d="M74 392c2.66699 -6 4.99512 -13.332 6.99512 -21.999s3.66699 -18 5 -28c2.66699 -18 4.66699 -36.333 6 -55c1.33301 -18 2.33301 -29.667 3 -35c2.66699 8.66699 10.334 26.334 23.001 53.001c12.667 27.333 29.667 50.666 51 69.999
c8.66699 8 18.334 14.333 29.001 19c9.33301 4.66699 19.666 7 30.999 7h2c14.667 0 27 -5.33301 37 -16s18 -24.334 24 -41.001c6.66699 -18 11.667 -38.333 15 -61c4 -22.667 6.66699 -46 8 -70c4 -44 7.33301 -84.667 10 -122c2.66699 -36.667 10.334 -56 23.001 -58
c16.667 -3.33301 32.334 7.66699 47.001 33c14 24.667 26.333 51.667 37 81c6.66699 19.333 12.334 37.666 17.001 54.999c4.66699 16.667 7.66699 29 9 37c5.33301 2.66699 11.666 4 18.999 4s13 -1.66699 17 -5c-2 -8 -4.33301 -17.667 -7 -29s-6 -23.666 -10 -36.999
c-7.33301 -24.667 -17 -50.667 -29 -78s-27 -50.333 -45 -69c-11.333 -12 -24 -21.333 -38 -28s-29.667 -8.66699 -47 -6c-18.667 3.33301 -34 10.666 -46 21.999c-11.333 12 -20.333 26.667 -27 44c-7.33301 18 -12.333 38 -15 60c-2.66699 22.667 -4.33398 45 -5.00098 67
c-1.33301 42 -2.66602 80 -3.99902 114c-0.666992 34 -9 51.333 -25 52c-11.333 0.666992 -23.666 -8.33301 -36.999 -27s-25.333 -39.667 -36 -63c-6.66699 -16 -12 -31.667 -16 -47s-5.66699 -28 -5 -38c0.666992 -23.333 0.333984 -50.333 -0.999023 -81
c-2 -30 -3.33301 -58 -4 -84c-6 -15.333 -19.333 -23.666 -40 -24.999c-2 -0.666992 -4 -1 -6 -1c-17.333 0 -28.666 6 -33.999 18c2.66699 16 4.66699 37 6 63c1.33301 26.667 1.66602 54.667 0.999023 84c-0.666992 44 -3 86.333 -7 127c-4 41.333 -9.66699 69 -17 83
c2 16.667 12.333 28.667 31 36s33 6.33301 43 -3z" />
    <glyph glyph-name="o" unicode="o" horiz-adv-x="479" 
d="M186 410c12.667 -2 19.3301 -7.66797 19.9971 -17.001s-2 -18.333 -8 -27c-11.333 0.666992 -21.333 -1.66602 -30 -6.99902s-16.334 -13 -23.001 -23c-12.667 -18.667 -22 -42.667 -28 -72c-5.33301 -30 -7 -60.333 -5 -91c2 -38.667 9.33301 -73 22 -103
c13.333 -29.333 32 -44 56 -44c14.667 0.666992 28 14.667 40 42c9.33301 24 17.333 50.333 24 79c-16.667 22 -30 46.333 -40 73c-10 23.333 -16.333 46.666 -19 69.999c-3.33301 23.333 -2 43.666 4 60.999c4 10.667 10 19.667 18 27c8 8 18.667 13.667 32 17
c40 9.33301 68 -2 84 -34c15.333 -32.667 21.333 -72 18 -118c-1.33301 -19.333 -4.33301 -39.333 -9 -60c-4.66699 -19.333 -10.334 -37.666 -17.001 -54.999c9.33301 -7.33301 18 -11.333 26 -12c10.667 -1.33301 20.334 0.333984 29.001 5.00098s16.667 11 24 19
c12 14.667 21.333 32 28 52c6.66699 20.667 11.667 37 15 49h36c-3.33301 -14 -9.66602 -34 -18.999 -60s-23.666 -48.667 -42.999 -68c-10 -10.667 -21.333 -19 -34 -25c-13.333 -6 -28.333 -8.33301 -45 -7c-10.667 0.666992 -21.667 4.33398 -33 11.001
c-11.333 -22 -24.666 -41.333 -39.999 -58c-23.333 -24.667 -49.666 -37 -78.999 -37h-3c-31.333 0 -58.333 5.66699 -81 17c-23.333 12 -42.333 27.667 -57 47c-10.667 14.667 -19 30.667 -25 48s-10 35.666 -12 54.999c-0.666992 8.66699 -1 17.667 -1 27
c0 26 3.66699 52.333 11 79c10 35.333 26.333 65 49 89c14.667 16.667 31.667 29.667 51 39c18 8.66699 37.667 13 59 13c2 0 3.66699 -0.333008 5 -1zM265.996 283.999c-2 37.333 -10.668 54 -26.001 50c-8.66699 -2 -11 -12.667 -7 -32c3.33301 -18.667 10 -39.667 20 -63
c3.33301 -8.66699 7 -17 11 -25c2.66699 24 3.33398 47.333 2.00098 70z" />
    <glyph glyph-name="p" unicode="p" horiz-adv-x="511" 
d="M510 236c-5.33301 -22.667 -15.3311 -42.668 -29.998 -60.001c-14 -17.333 -31 -32.666 -51 -45.999c-30 -20.667 -61.667 -37 -95 -49l-2 -4c-9.33301 -17.333 -20.666 -32.333 -33.999 -45c-12.667 -12 -27 -21 -43 -27c-16 -6.66699 -33.667 -9.66699 -53 -9
c-24.667 0.666992 -34 11.334 -28 32.001s22.667 36 50 46c6.66699 2.66699 16 6 28 10c9.33301 36.667 15.666 75.334 18.999 116.001c2 35.333 1.33301 67 -2 95c-4 27.333 -12 41.333 -24 42c-6.66699 0 -14 -3 -22 -9c-8.66699 -5.33301 -17.334 -13.333 -26.001 -24
c-15.333 -20 -29.333 -48.667 -42 -86c-12 -36.667 -17.333 -80.334 -16 -131.001c0.666992 -26.667 1 -57.334 1 -92.001c-0.666992 -34.667 -1.33398 -70.667 -2.00098 -108c-0.666992 -24.667 -1.66699 -49 -3 -73c-0.666992 -24 -1.66699 -47.333 -3 -70
c-2 -41.333 -4 -77.666 -6 -108.999c-2.66699 -31.333 -4.66699 -52.333 -6 -63c-9.33301 -17.333 -26.333 -27 -51 -29c-2 -0.666992 -4 -1 -6 -1c-21.333 0 -38.333 7.66699 -51 23c-6 7.33301 -10 16.666 -12 27.999c-1.33301 4.66699 -2 9.66699 -2 15
c0 7.33301 1 15.333 3 24c5.33301 0 10.666 5 15.999 15c4.66699 10.667 9 25 13 43c8 33.333 14 77.333 18 132c4.66699 54 7.33398 110.333 8.00098 169c1.33301 74 -0.666992 143.667 -6 209c-6 65.333 -15.667 110.333 -29 135c0 10.667 2 20 6 28
c4 7.33301 9.33301 13.333 16 18c12 9.33301 26 14 42 14h3c14.667 0 25.334 -2 32.001 -6c4 -15.333 7.33301 -37.333 10 -66c2.66699 -28 4.33398 -50.333 5.00098 -67c2 4 7.66699 17.333 17 40c10 22.667 23.667 42.667 41 60c7.33301 7.33301 15.666 13 24.999 17
c8.66699 4.66699 18 7 28 7c18.667 -0.666992 35 -4.66699 49 -12c13.333 -7.33301 25 -17.333 35 -30c19.333 -24.667 30.666 -56 33.999 -94c4 -38 1 -75.333 -9 -112c-1.33301 -3.33301 -2.33301 -6.66602 -3 -9.99902c18 9.33301 35.333 19.666 52 30.999
c17.333 11.333 32.333 24 45 38c12.667 13.333 21 28.333 25 45h36zM236.002 49.999c-14 -5.33301 -24 -11.667 -30 -19c-6.66699 -7.33301 -4.66699 -11.333 6 -12c11.333 -1.33301 21.333 9.66699 30 33z" />
    <glyph glyph-name="q" unicode="q" horiz-adv-x="347" 
d="M313 286c-4 -19.333 -15.667 -33.332 -35 -41.999c-20 -8.66699 -38.333 -5.66699 -55 9c3.33301 12.667 8 29.667 14 51c6 22 6.66699 39.333 2 52c-1.33301 4.66699 -3.66602 8.33398 -6.99902 11.001s-7.66602 4.33398 -12.999 5.00098
c-15.333 2 -31.666 -9 -48.999 -33c-16.667 -23.333 -31.667 -51 -45 -83c-16.667 -39.333 -28.667 -78 -36 -116c-7.33301 -37.333 -4.66602 -59 8.00098 -65c19.333 -9.33301 42 -1.33301 68 24c26.667 25.333 43.667 57.666 51 96.999c6 19.333 23.333 24.333 52 15
s42 -20.333 40 -33c-9.33301 -7.33301 -16.333 -36.666 -21 -87.999c-4.66699 -50.667 -6.66699 -107 -6 -169c0 -26.667 0.666992 -53 2 -79c1.33301 -26.667 3.33301 -51.667 6 -75c4 -44 9.66699 -79.667 17 -107c7.33301 -28 16.666 -40 27.999 -36v-2
c0 -8.66699 -1.33301 -16.334 -4 -23.001c-2.66699 -7.33301 -6.33398 -14 -11.001 -20c-14 -16 -33 -24 -57 -24h-1c-24 0 -41.333 9.33301 -52 28c-4.66699 30 -8 63.667 -10 101c-2 38 -3 77 -3 117c0 25.333 0.333008 50.666 1 75.999s1.66699 49.333 3 72
c2 42.667 4 79 6 109s3 48 3 54c-2.66699 -6 -9.33398 -17.333 -20.001 -34c-12 -17.333 -28 -31.333 -48 -42c-10.667 -6 -22.334 -9.66699 -35.001 -11c-12.667 -2 -26 -0.333008 -40 5c-38 13.333 -59 42.333 -63 87c-0.666992 7.33301 -1 14.666 -1 21.999
c0 37.333 8 75 24 113c12.667 30 29.334 57.333 50.001 82c20.667 25.333 43.667 43.333 69 54c21.333 8.66699 41 13 59 13c11.333 0 22 -1.66699 32 -5c26.667 -8.66699 46.667 -22.667 60 -42c7.33301 -10 12.666 -21 15.999 -33c2.66699 -12 3 -23.667 1 -35z" />
    <glyph glyph-name="r" unicode="r" horiz-adv-x="401" 
d="M71 376c23.333 0 49.3369 2.66602 78.0039 7.99902c28 5.33301 50 5.33301 66 0c6.66699 -2 11.667 -6 15 -12c3.33301 -5.33301 4.33301 -12.666 3 -21.999c-4 -24 -6.66699 -49 -8 -75c-0.666992 -25.333 -0.666992 -50 0 -74
c1.33301 -44.667 5.66602 -83.334 12.999 -116.001c7.33301 -32 16 -48.667 26 -50c13.333 -1.33301 26.333 10.334 39 35.001c12 24 22.667 50 32 78c6 19.333 11.333 37.333 16 54c4 16.667 7 28.667 9 36c5.33301 1.33301 11.666 2.33301 18.999 3
c6.66699 0 12.667 -0.666992 18 -2c-2.66699 -10.667 -7.33398 -29.667 -14.001 -57s-16 -55.333 -28 -84c-6 -15.333 -13 -30 -21 -44c-8 -14.667 -16.333 -27 -25 -37c-9.33301 -10.667 -19 -18.667 -29 -24c-8.66699 -4.66699 -17.667 -7 -27 -7h-5
c-30 2 -57.333 11.333 -82 28c-24.667 17.333 -39 37 -43 59c-2.66699 18 -4 36.667 -4 56s1 38.666 3 57.999c2.66699 34.667 6 65.667 10 93c4 26.667 3.66699 42 -1 46c-8 1.33301 -19.667 3.66602 -35 6.99902c-16 2.66699 -26.667 4 -32 4l-10 -45
c-4.66699 -23.333 -8.66699 -43 -12 -59c-5.33301 -1.33301 -11 -1.66602 -17 -0.999023c-6.66699 0.666992 -13 1.33398 -19 2.00098c3.33301 16 7.66602 36.333 12.999 61c5.33301 25.333 8.33301 41.333 9 48c-14.667 7.33301 -26.334 17.666 -35.001 30.999
c-8.66699 12.667 -13 24.334 -13 35.001v3c0 19.333 3.66699 35.333 11 48c8 12.667 16 20 24 22c3.33301 0 6.33301 0.333008 9 1c4 0 8 -1 12 -3c6 -2 11 -5.66699 15 -11c10 -12 16 -28 18 -48c2.66699 -20 3.33398 -35 2.00098 -45z" />
    <glyph glyph-name="s" unicode="s" horiz-adv-x="408" 
d="M80 356c12 -6 25 -13.665 39 -22.998c13.333 -9.33301 27 -20 41 -32c25.333 -22 48.333 -47 69 -75s33 -56.667 37 -86c0.666992 -4.66699 1 -9 1 -13c23.333 14.667 44 31 62 49c21.333 21.333 34.333 42.666 39 63.999c7.33301 2 13.666 3.33301 18.999 4
c6 0.666992 12 0 18 -2c-2.66699 -16.667 -9.33398 -33 -20.001 -49c-10 -16 -22.333 -31 -37 -45c-24 -23.333 -50.333 -43.333 -79 -60c-0.666992 -11.333 -1.66699 -21.666 -3 -30.999c-4 -23.333 -10.667 -43 -20 -59c-17.333 -28.667 -40.666 -46 -69.999 -52
c-12 -2.66699 -23.333 -4 -34 -4c-15.333 0 -29 2.33301 -41 7c-22 9.33301 -33 23 -33 41c0 18.667 8 36.667 24 54c8.66699 8.66699 19.667 16.667 33 24c8 4.66699 17 8.66699 27 12c0.666992 3.33301 1.33398 7 2.00098 11c1.33301 13.333 1 27.666 -1 42.999
c-2.66699 15.333 -6.33398 30.666 -11.001 45.999c-9.33301 28 -21 54 -35 78c-14.667 23.333 -27.334 38.666 -38.001 45.999c-2 -6.66699 -4 -16.667 -6 -30c-1.33301 -14 -4.33301 -29.333 -9 -46c-5.33301 -1.33301 -11.333 -1.66602 -18 -0.999023l-18 2
c4 16.667 8.33301 34.667 13 54s7.33398 32.666 8.00098 39.999c-28.667 22.667 -45 46 -49 70c-0.666992 6 -1 11.667 -1 17c0 16 4 28 12 36c4.66699 6 10.334 10.667 17.001 14c5.33301 2.66699 11 4 17 4h3c24 -2 38 -13.667 42 -35
c3.33301 -21.333 3.33301 -45.666 0 -72.999zM110 11.002c-8.66699 -18 -8 -28.668 2 -32.001c11.333 -5.33301 20.333 5.33398 27 32.001c2.66699 10 5 20 7 30c-18.667 -7.33301 -30.667 -17.333 -36 -30z" />
    <glyph glyph-name="t" unicode="t" horiz-adv-x="409" 
d="M6 487l-1.99707 0.000976562c-5.33301 0 -8.33301 6.33301 -9 19v1c0 12.667 2.66699 20.334 8 23.001c11.333 5.33301 35.666 12.666 72.999 21.999c1.33301 0 3 0.333008 5 1c0.666992 16 1.33398 31 2.00098 45c0.666992 32.667 -3.66602 54 -12.999 64
c6 14.667 19.333 23.334 40 26.001c3.33301 0.666992 7 1 11 1c16.667 0 32 -5.33301 46 -16c6.66699 -6 12.667 -13 18 -21c4.66699 -8.66699 7.66699 -19 9 -31c-2 -11.333 -3.66699 -24 -5 -38c23.333 6.66699 44 13.667 62 21c19.333 7.33301 31.666 14.333 36.999 21
c21.333 -2 32 -11.333 32 -28v-4c-2 -19.333 -11.333 -33 -28 -41c-11.333 -6 -35 -11.667 -71 -17l-37 -6c-0.666992 -6.66699 -1 -13.334 -1 -20.001c-3.33301 -46.667 -5.33301 -96 -6 -148c-0.666992 -27.333 -0.666992 -54.333 0 -81c0.666992 -27.333 2 -53 4 -77
c3.33301 -45.333 9 -83.666 17 -114.999s19.333 -48.333 34 -51c10.667 -2 20.667 -1.33301 30 2s18.333 9 27 17c16 14.667 29.667 34.334 41 59.001c11.333 25.333 20.666 49 27.999 71c3.33301 12 6.33301 22.667 9 32s4.66699 16.666 6 21.999
c5.33301 1.33301 11.333 2 18 2c7.33301 0.666992 13.333 0 18 -2c-2 -10 -6.33301 -27 -13 -51c-6.66699 -24.667 -16 -50 -28 -76c-6.66699 -14 -14.334 -27.667 -23.001 -41c-8 -13.333 -17.333 -25.333 -28 -36c-12.667 -12.667 -26.667 -22.334 -42 -29.001
c-12 -5.33301 -24.667 -8 -38 -8h-14c-32.667 4 -59.334 15.667 -80.001 35c-20 19.333 -35.667 43.666 -47 72.999c-12 31.333 -19.667 66.333 -23 105c-2.66699 30.667 -4 62 -4 94v24c0.666992 26.667 2 53 4 79c1.33301 25.333 3 50 5 74
c0.666992 9.33301 1 18.333 1 27c-10.667 -2.66699 -21 -5 -31 -7c-20 -4.66699 -34 -10 -42 -16z" />
    <glyph glyph-name="u" unicode="u" horiz-adv-x="511" 
d="M351 -8c-14.667 2 -27.001 6.66699 -37.001 14c-10 6.66699 -18.333 15 -25 25c-13.333 18.667 -22 38.667 -26 60c-4.66699 21.333 -8 37.333 -10 48c-3.33301 -7.33301 -9.66602 -21.333 -18.999 -42c-10 -22 -23.667 -42 -41 -60c-9.33301 -10 -20 -18.333 -32 -25
c-11.333 -6 -24.333 -9.33301 -39 -10c-17.333 0 -32.333 4.33301 -45 13c-12 9.33301 -22 21.666 -30 36.999c-8 16 -14 34.333 -18 55c-4.66699 21.333 -8 43.333 -10 66c-3.33301 41.333 -5 81 -5 119c0 37.333 -3 61.333 -9 72c2.66699 8 6.33398 14.333 11.001 19
c5.33301 5.33301 11 9 17 11s12 3 18 3c9.33301 0 19.333 -2.33301 30 -7c16.667 -7.33301 28.667 -18 36 -32c-1.33301 -20.667 -3.33301 -43 -6 -67l-6 -72c-4 -44 -5.33301 -83 -4 -117c2 -34 12.333 -51.333 31 -52c32.667 -1.33301 59 24.667 79 78
c19.333 53.333 32.333 120.333 39 201c2.66699 8 6.33398 14.333 11.001 19s9.66699 8 15 10c17.333 7.33301 36 5.66602 56 -5.00098c19.333 -10.667 29.333 -22.667 30 -36c-5.33301 -8 -10.666 -25.333 -15.999 -52c-4.66699 -26 -8.33398 -54.333 -11.001 -85
c-2.66699 -37.333 -2.33398 -72 0.999023 -104c2.66699 -32 10.334 -49 23.001 -51c7.33301 -1.33301 14.333 -0.666016 21 2.00098c6.66699 2 13.334 6 20.001 12c8 7.33301 15.667 17.333 23 30c7.33301 12 14 25 20 39c11.333 26.667 20 53.334 26 80.001
c6.66699 26.667 11 44.667 13 54c5.33301 -0.666992 11 -1 17 -1c6 0.666992 12.333 0.666992 19 0c-1.33301 -8.66699 -5.33301 -26.667 -12 -54c-6.66699 -28 -16.334 -56.667 -29.001 -86c-6.66699 -16 -14.334 -31.333 -23.001 -46
c-8.66699 -14 -18.334 -26.333 -29.001 -37c-10.667 -10 -22 -17.333 -34 -22c-8.66699 -3.33301 -18 -5 -28 -5c-4 0 -8 0.333008 -12 1z" />
    <glyph glyph-name="v" unicode="v" horiz-adv-x="492" 
d="M104 385c5.33301 -18.667 9.99707 -43.668 13.9971 -75.001s8.33301 -63.666 13 -96.999c6.66699 -50 15.334 -95 26.001 -135c11.333 -39.333 28.666 -56 51.999 -50c11.333 2.66699 21.666 8 30.999 16s17.333 17.667 24 29c10.667 16.667 18.667 36.334 24 59.001
c-23.333 26.667 -42 57 -56 91c-9.33301 22.667 -15.666 45.334 -18.999 68.001s-1.66602 42.334 5.00098 59.001c3.33301 10.667 9.33301 20 18 28c8 7.33301 18.667 12.666 32 15.999c35.333 8.66699 59.333 -1.66602 72 -30.999
c13.333 -29.333 17.666 -65.333 12.999 -108c-3.33301 -34 -11.333 -69 -24 -105l-1 -1c14.667 -16.667 28.667 -25.334 42 -26.001c10 -0.666992 19.333 1 28 5c8.66699 4.66699 16.334 11 23.001 19c12.667 14 22.334 31.333 29.001 52c7.33301 20 12.333 36 15 48
c8 0 20.333 0.333008 37 1c-3.33301 -14 -9.66602 -34 -18.999 -60c-10 -26.667 -24.333 -49.667 -43 -69c-10 -10.667 -21.333 -19 -34 -25c-13.333 -6 -28.333 -8.33301 -45 -7c-16 1.33301 -32.333 8.66602 -49 21.999c-9.33301 -19.333 -19.666 -36.666 -30.999 -51.999
c-10.667 -14 -22 -25.667 -34 -35c-12.667 -9.33301 -25.667 -15.666 -39 -18.999c-9.33301 -2.66699 -18.333 -4 -27 -4c-9.33301 0 -18.333 1.66699 -27 5c-16 5.33301 -30 14.666 -42 27.999c-24 26 -42.667 61.333 -56 106c-12.667 44.667 -23.334 87 -32.001 127
c-4 21.333 -8 40.666 -12 57.999s-8 30.666 -12 39.999c8.66699 16 23.667 29 45 39c7.33301 3.33301 14.333 5 21 5c13.333 0 26 -7.33301 38 -22zM298.997 204.999c1.33301 35.333 -1.66699 66 -9 92c-7.33301 26.667 -17.666 38 -30.999 34
c-8.66699 -2 -11.334 -12 -8.00098 -30s10.333 -38.333 21 -61c7.33301 -17.333 16 -34 26 -50c0.666992 4.66699 1 9.66699 1 15z" />
    <glyph glyph-name="w" unicode="w" horiz-adv-x="677" 
d="M113 383c5.33301 -18.667 8.66211 -43.002 9.99512 -73.002c0.666992 -30 1.33398 -61 2.00098 -93c0.666992 -48 4 -92 10 -132c5.33301 -39.333 20 -58.666 44 -57.999c19.333 0 35.666 15 48.999 45c10 24.667 16.333 49.334 19 74.001
c-6.66699 31.333 -10.334 63 -11.001 95c-0.666992 16.667 -1 31.334 -1 44.001c0 18 0.666992 32.667 2 44c8 16 25 25.667 51 29c26.667 3.33301 42 -5 46 -25c-2.66699 -16.667 -4.66699 -38.334 -6 -65.001s-1.33301 -54 0 -82c1.33301 -42 6 -80 14 -114
c8.66699 -33.333 22.334 -48 41.001 -44c29.333 6.66699 51 29.667 65 69c4 12.667 7.66699 25.667 11 39c-22 26 -39.667 55 -53 87c-9.33301 22.667 -15.666 45.334 -18.999 68.001s-2 42.667 4 60c4 10 10 19 18 27c8.66699 7.33301 19.334 12.666 32.001 15.999
c8 2 15.667 3 23 3c23.333 0 40 -11.333 50 -34c13.333 -30 18 -66.667 14 -110c-2 -18.667 -5.33301 -37.667 -10 -57c-4 -16 -9 -31.667 -15 -47c14 -16.667 27.333 -25.334 40 -26.001c10.667 -0.666992 20.334 1 29.001 5c8.66699 4.66699 16.334 11 23.001 19
c12 14 21.667 31.333 29 52c6.66699 20 11.667 36 15 48c8 0.666992 20 1 36 1c-2.66699 -13.333 -9 -33.333 -19 -60c-9.33301 -26.667 -23.333 -49.667 -42 -69c-10 -10 -21.667 -18.333 -35 -25c-12.667 -6 -27.334 -8.33301 -44.001 -7
c-16 1.33301 -32.333 8.33301 -49 21c-10 -21.333 -22 -40.666 -36 -57.999c-20 -26 -42.667 -41.667 -68 -47c-7.33301 -1.33301 -14.333 -2 -21 -2c-9.33301 0 -18 1.33301 -26 4c-13.333 4.66699 -25.333 12.667 -36 24c-10.667 12 -20 26.667 -28 44
c-2 4 -4 8.33301 -6 13c-3.33301 -8.66699 -7 -17 -11 -25c-3.33301 -6 -7 -11.667 -11 -17c-20 -27.333 -40 -42.333 -60 -45c-5.33301 -0.666992 -10.666 -1 -15.999 -1c-18 0 -34 4.33301 -48 13c-16.667 10.667 -31 25.334 -43 44.001
c-9.33301 15.333 -17.333 33 -24 53c-6.66699 19.333 -12 39.666 -16 60.999c-8.66699 38.667 -15 76 -19 112c-4 36.667 -9.66699 63 -17 79c8.66699 16 25.334 29.333 50.001 40c8 3.33301 15.333 5 22 5c15.333 0 29 -7.33301 41 -22zM469.996 215.998
c0.666992 33.333 -2.33203 61.667 -8.99902 85s-16.334 33.666 -29.001 30.999c-10 -2.66699 -11.333 -17 -4 -43c6.66699 -25.333 17.667 -51.666 33 -78.999l8 -14z" />
    <glyph glyph-name="x" unicode="x" horiz-adv-x="462" 
d="M313 403c10 15.333 20.3359 23.002 31.0029 23.002c2 0 4 -0.333008 6 -1c13.333 -4 22.333 -10.333 27 -19c-10.667 -54.667 -35 -105.334 -73 -152.001c-18 -22 -35.667 -43.333 -53 -64c12 -34 23 -65.667 33 -95c11.333 -36.667 23 -56 35 -58
c16 -2.66699 31 8 45 32s26 50.667 36 80c6.66699 18.667 12.334 36.334 17.001 53.001c4.66699 17.333 8 30 10 38c5.33301 0.666992 11.333 1.33398 18 2.00098c7.33301 0.666992 13.333 0 18 -2c-0.666992 -6 -2.33398 -14.333 -5.00098 -25
c-2.66699 -11.333 -6 -24 -10 -38c-7.33301 -25.333 -17 -53 -29 -83c-12 -29.333 -27 -53.333 -45 -72c-8.66699 -9.33301 -18.334 -16.333 -29.001 -21c-8 -4 -16.333 -6 -25 -6c-2.66699 0 -5.33398 0.333008 -8.00098 1c-20.667 2.66699 -39.334 10 -56.001 22
c-16.667 11.333 -31.667 25.666 -45 42.999c-10.667 14 -20.667 29 -30 45c-12.667 -16.667 -24 -32.667 -34 -48c-14 -20.667 -23.333 -41 -28 -61c-6.66699 -4.66699 -13 -7 -19 -7c-2 0 -4.33301 0.333008 -7 1c-7.33301 3.33301 -12.333 11.666 -15 24.999
c8.66699 17.333 23.334 39.666 44.001 66.999c14 17.333 28.667 35.666 44 54.999c-8 17.333 -15.333 35 -22 53c-15.333 43.333 -27.333 82 -36 116c-8 34 -14.333 51 -19 51c-7.33301 0.666992 -14.333 -6 -21 -20s-12.334 -29.667 -17.001 -47
c-2.66699 -10 -5.33398 -19.667 -8.00098 -29c-2 -9.33301 -4 -17.666 -6 -24.999c-6 -1.33301 -12 -1.66602 -18 -0.999023c-5.33301 0 -11.666 0.333008 -18.999 1c2.66699 9.33301 6 21.333 10 36s8.33301 29.334 13 44.001c8 23.333 17.333 44 28 62
c11.333 18 24.666 27.333 39.999 28h1c17.333 -0.666992 33.333 -6.33398 48 -17.001s28 -24.334 40 -41.001c12.667 -18 24 -38.667 34 -62c8.66699 -18 16.334 -36.667 23.001 -56l20 28c21.333 30 37.333 57 48 81c6 12.667 9.66699 24.334 11 35.001
c2 11.333 1 20.666 -3 27.999z" />
    <glyph glyph-name="y" unicode="y" horiz-adv-x="526" 
d="M110 379c5.33301 -11.333 8.99023 -29.335 10.9902 -54.002c1.33301 -24.667 2 -51 2 -79c1.33301 -42 3.33301 -81.667 6 -119c3.33301 -37.333 13.333 -56 30 -56c18 0 34.333 15.667 49 47c14.667 32 26.667 68 36 108c4.66699 21.333 8.33398 42.666 11.001 63.999
c2.66699 22 4.33398 41.667 5.00098 59c4.66699 6.66699 13 13.334 25 20.001c12.667 6.66699 25.334 7.66699 38.001 3c6.66699 -2.66699 13 -7.66699 19 -15s11 -17.333 15 -30c-2.66699 -1.33301 -5 -6.66602 -7 -15.999c-2 -10 -3.66699 -23 -5 -39
c-3.33301 -30.667 -6.33301 -70.667 -9 -120c-2 -34 -4.33301 -69 -7 -105c22 14.667 43 30.334 63 47.001c25.333 20 47.333 42 66 66c18.667 24.667 31.334 52.334 38.001 83.001c6.66699 2.66699 13 3.66699 19 3s11.667 -2 17 -4
c-7.33301 -34.667 -20.666 -65 -39.999 -91c-18.667 -26 -41 -49.333 -67 -70c-16 -14 -33.333 -27.333 -52 -40l-47 -30c-0.666992 -5.33301 -1 -10.666 -1 -15.999c-5.33301 -68 -12.666 -135.333 -21.999 -202s-22.666 -121.334 -39.999 -164.001
c-9.33301 -22.667 -19.666 -41 -30.999 -55c-12 -13.333 -25.667 -20 -41 -20h-2c-36.667 0 -66.334 16.333 -89.001 49c-22.667 34 -34.334 74 -35.001 120c0 24.667 3.33301 50 10 76c7.33301 25.333 18.666 49.666 33.999 72.999c11.333 16 24 31 38 45
c14.667 14 30.334 27.333 47.001 40c15.333 12 31.333 23.667 48 35c2 35.333 4 66 6 92c0.666992 18 1.33398 33.333 2.00098 46c0.666992 11.333 1 18.666 1 21.999c-2 -8 -7 -23.333 -15 -46c-8.66699 -22.667 -20.667 -42.334 -36 -59.001
c-6.66699 -6.66699 -14 -12 -22 -16c-7.33301 -4.66699 -15.666 -6.66699 -24.999 -6c-17.333 0 -32.333 5 -45 15c-13.333 9.33301 -24.666 22 -33.999 38c-10 16.667 -18 36 -24 58c-6.66699 21.333 -12 43.333 -16 66c-8 42.667 -14 82.334 -18 119.001
c-3.33301 36.667 -8.66602 58.334 -15.999 65.001c8.66699 13.333 24 20 46 20h1c23.333 0 44.333 -9 63 -27zM217.99 -65.002c-32 -23.333 -58.001 -51 -78.001 -83c-10 -16 -16.333 -35.667 -19 -59s-2.66699 -47 0 -71c4 -36.667 13 -69.667 27 -99
c13.333 -29.333 28.333 -44.333 45 -45c8.66699 0 16 23.333 22 70c6.66699 46.667 12.334 101 17.001 163c4 46.667 7 94 9 142c-8 -6 -15.667 -12 -23 -18z" />
    <glyph glyph-name="z" unicode="z" horiz-adv-x="329" 
d="M70 388c6 -2 14.0039 -3.33008 24.0039 -3.99707c9.33301 -1.33301 19.666 -1.66602 30.999 -0.999023c20.667 0 42.334 2.33301 65.001 7c22.667 5.33301 40.334 13 53.001 23c11.333 4 23 0.666992 35 -10c12 -10 18.667 -24.667 20 -44
c-4.66699 -16.667 -14 -37.667 -28 -63c-14 -24.667 -30 -50.334 -48 -77.001c-26.667 -40 -53.667 -77.333 -81 -112c-28 -34.667 -46.333 -56 -55 -64c19.333 2 41.666 4.33301 66.999 7c24.667 2 45.334 7.33301 62.001 16c9.33301 4.66699 16.666 11 21.999 19
c5.33301 7.33301 7.66602 16.666 6.99902 27.999c8 2 15.667 2.33301 23 1c7.33301 -0.666992 14 -3 20 -7c18 -10.667 28.667 -27 32 -49v-8c0 -18.667 -9.66699 -31.334 -29 -38.001c-24.667 -9.33301 -53 -13.666 -85 -12.999c-32 0 -61.667 0.666992 -89 2h-41
c-12.667 -0.666992 -23.334 -2.33398 -32.001 -5.00098c-16.667 5.33301 -27 15.333 -31 30c-4.66699 14.667 -3.66699 26.667 3 36c7.33301 9.33301 18 24.666 32 45.999c14.667 21.333 30 44.666 46 69.999c24 38 47 75 69 111c22.667 36.667 36.334 59.334 41.001 68.001
c-24 -10 -51.333 -14.333 -82 -13c-30.667 0.666992 -49.667 1.66699 -57 3c-1.33301 -6.66699 -4.66602 -23 -9.99902 -49c-4.66699 -26 -8.66699 -47 -12 -63c-5.33301 -0.666992 -11 -1 -17 -1c-6.66699 0.666992 -13 1.33398 -19 2.00098
c3.33301 16 7.66602 38 12.999 66s8.33301 45.667 9 53c-14.667 7.33301 -26.334 16 -35.001 26c-8.66699 9.33301 -13 19.333 -13 30v3c0 19.333 3.66699 34.666 11 45.999c8 12 16 19 24 21c4 0.666992 7.66699 1 11 1s6.66602 -0.666992 9.99902 -2c6 -2 11 -5 15 -9
c10 -10.667 16 -24.667 18 -42c1.33301 -17.333 1.66602 -31 0.999023 -41z" />
    <glyph glyph-name="braceleft" unicode="{" horiz-adv-x="1108" 
d="M714 593c4 -10 5.6709 -19.9961 5.00391 -29.9961c-1.33301 -10.667 -4 -21 -8 -31c-10.667 -23.333 -27.667 -43.666 -51 -60.999c-8 -5.33301 -15.333 -10 -22 -14c2 -4 4.33301 -8 7 -12c9.33301 -17.333 20.333 -32.333 33 -45c6.66699 -6 13.667 -11 21 -15
c8 -4 15.667 -5.33301 23 -4c15.333 1.33301 27.666 7 36.999 17c8.66699 10 15.667 22.333 21 37c4.66699 12 8.33398 25 11.001 39c3.33301 14 6.33301 28 9 42c5.33301 26.667 12.333 51 21 73c9.33301 21.333 25.333 35 48 41c11.333 2.66699 22 4 32 4
c8.66699 0 17 -1 25 -3c17.333 -4 32.666 -11.333 45.999 -22c24.667 -20 41.667 -48.333 51 -85c5.33301 -18.667 8 -37.334 8 -56.001c-0.666992 -18.667 -3.33398 -37.334 -8.00098 -56.001c-4.66699 -20 -12.334 -39.333 -23.001 -58c-10 -18 -23.333 -35 -40 -51
c-28.667 -27.333 -71.334 -50 -128.001 -68c-56 -18 -116.333 -34.333 -181 -49c-62.667 -14 -124.667 -28 -186 -42c-60.667 -13.333 -112 -29.333 -154 -48c-22 -10 -40.333 -21.333 -55 -34c-14.667 -12 -24 -25.667 -28 -41c-6.66699 -2 -13 -3 -19 -3
c-16.667 0 -29.667 9.66699 -39 29c-6 12.667 -9 24.334 -9 35.001c0 12.667 3.66699 24.667 11 36c4.66699 7.33301 15.667 14.333 33 21c16.667 6.66699 37.667 13 63 19c47.333 11.333 105 22.666 173 33.999c68.667 11.333 136.667 23 204 35
c69.333 13.333 132.666 27.666 189.999 42.999c56.667 15.333 95.334 33 116.001 53c12 11.333 21.333 24.666 28 39.999s10.667 31.333 12 48c2 17.333 1.66699 35.333 -1 54c-2.66699 18 -6.66699 35.333 -12 52c-11.333 30.667 -26.666 56 -45.999 76
s-38.666 27.333 -57.999 22c-10 -2.66699 -18 -8.33398 -24 -17.001c-6.66699 -8 -12 -18 -16 -30c-8 -22 -14 -47.667 -18 -77c-4.66699 -30 -12.334 -57 -23.001 -81c-6.66699 -16 -16 -29.333 -28 -40c-12 -11.333 -27.333 -18 -46 -20
c-18.667 -2.66699 -35.334 -2 -50.001 2c-15.333 3.33301 -28.666 9 -39.999 17l-7 5c-2.66699 -20 -8 -38.333 -16 -55c-8.66699 -17.333 -22 -27.333 -40 -30c-12 -2 -22.667 -0.333008 -32 5s-17.333 13 -24 23c-6.66699 9.33301 -12.334 20 -17.001 32
c-4.66699 11.333 -8.66699 23.333 -12 36c-9.33301 29.333 -17.333 56.666 -24 81.999c-6 24.667 -15.333 35.667 -28 33c-6.66699 -2 -12.667 -11.333 -18 -28c-4.66699 -17.333 -8 -35.333 -10 -54c-1.33301 -13.333 -1.66602 -25.333 -0.999023 -36
c0 -11.333 0.666992 -19.666 2 -24.999c6 -19.333 11 -34.666 15 -45.999c3.33301 -12 7.33301 -26 12 -42c-0.666992 -12 -10 -22.333 -28 -31c-6.66699 -3.33301 -12.334 -5 -17.001 -5c-8 0 -13.333 4.33301 -16 13c-2.66699 10.667 -5.33398 21 -8.00098 31
c-4 -11.333 -9 -22 -15 -32c-6 -9.33301 -13 -17.333 -21 -24l-2 -2c-8.66699 -6.66699 -19 -10.667 -31 -12c-2.66699 -0.666992 -5.33398 -1 -8.00098 -1c-22 0.666992 -41 15.334 -57 44.001c-17.333 32 -32 70 -44 114c-5.33301 19.333 -10 38.666 -14 57.999
c-4 17.333 -7.66699 34 -11 50l-17 -8c-19.333 -8.66699 -36.333 -19.334 -51 -32.001c-14 -12.667 -23.667 -28 -29 -46c-14.667 -3.33301 -28 1.33398 -40 14.001c-6 6 -9 13 -9 21c0 7.33301 3 16 9 26c10 16.667 35 30.667 75 42c18 5.33301 36.333 10.333 55 15
c-4.66699 26 -9 49.333 -13 70c-4.66699 27.333 -9.66699 45 -15 53v4c0 10 7.66699 18 23 24c9.33301 4 17.333 6 24 6c5.33301 0 9.66602 -1.33301 12.999 -4c5.33301 -18 11 -44.667 17 -80c3.33301 -18.667 6.66602 -37.667 9.99902 -57
c3.33301 0.666992 6.33301 1.33398 9 2.00098c26.667 6.66699 51.334 13.667 74.001 21c-7.33301 38.667 -10.666 70.667 -9.99902 96c0.666992 20.667 4 37.334 10 50.001c6.66699 12.667 16.667 22 30 28c8.66699 4 17 6 25 6h5c9.33301 -1.33301 17.333 -4.33301 24 -9
c14 -10 23.667 -25 29 -45s4.66602 -40.667 -2.00098 -62c-4 -10.667 -9.33301 -21.334 -16 -32.001c-7.33301 -10.667 -17 -20 -29 -28c-3.33301 -2.66699 -6.66602 -5 -9.99902 -7c5.33301 -21.333 11 -42 17 -62c10 -34.667 15.667 -54.667 17 -60
c0.666992 4 2.33398 16 5.00098 36c3.33301 20 10 38.667 20 56c4 7.33301 9 14 15 20c5.33301 5.33301 11.666 9 18.999 11c10.667 3.33301 20 2.33301 28 -3c8.66699 -4.66699 16.334 -12 23.001 -22c6.66699 -10.667 13 -23.334 19 -38.001s11.333 -29.667 16 -45
c8.66699 -29.333 16.667 -56 24 -80s15.333 -35.667 24 -35c12.667 2 21.334 16.667 26.001 44c1.33301 9.33301 2 18.666 2 27.999c-9.33301 10.667 -17.333 23 -24 37c-10.667 24.667 -16 47.667 -16 69c-0.666992 38 6.66602 65.667 21.999 83c15.333 18 28 29.667 38 35
c16.667 8.66699 34.334 11.667 53.001 9c18 -3.33301 30.667 -13.333 38 -30zM306.004 487.004c-2.66699 10 -5.33203 19.667 -7.99902 29c-12 -4 -25.333 -7.66699 -40 -11c-15.333 -4 -30 -8 -44 -12c2 -8.66699 4 -17.667 6 -27l12 -62c4 -20 8 -39.333 12 -58
c8 -34 16 -62.667 24 -86s15.667 -35 23 -35c6.66699 0 12.667 2 18 6c6 3.33301 11 8.33301 15 15c13.333 18.667 21.666 43.667 24.999 75c-16 64 -30.333 119.333 -43 166zM328.006 701.004c-6 -2 -7.33301 -14.668 -4 -38.001
c2.66699 -23.333 7.33398 -49.666 14.001 -78.999c1.33301 -6.66699 2.66602 -13.667 3.99902 -21l8 6c8 5.33301 14 11.666 18 18.999c4 6.66699 6.66699 14 8 22c4.66699 22.667 0.666992 44.334 -12 65.001c-13.333 21.333 -25.333 30 -36 26zM638.006 485.003
c12 12 21.001 27 27.001 45s8.66699 31 8 39c-0.666992 14 -3.66699 25.333 -9 34c-6 9.33301 -15 7 -27 -7c-13.333 -15.333 -19 -36 -17 -62c2.66699 -26 4.66699 -41.333 6 -46l2 -10c3.33301 2 6.66602 4.33301 9.99902 7z" />
    <glyph glyph-name="bar" unicode="|" horiz-adv-x="989" 
d="M314 281c2.66699 -10 2.99121 -18.3291 0.991211 -24.9961c-2 -6 -5 -11 -9 -15c-7.33301 -6.66699 -17 -9.33398 -29 -8.00098s-20.333 4.33301 -25 9c6 6.66699 8.66699 19.334 8 38.001c-0.666992 18 -10.667 25.333 -30 22c-14 -3.33301 -24.333 -14.666 -31 -33.999
c-7.33301 -19.333 -11 -41 -11 -65c-0.666992 -29.333 3.33301 -57 12 -83c9.33301 -26 22.666 -39 39.999 -39c16 0 26.667 14.333 32 43s5 55 -1 79c4.66699 14 16 18.333 34 13c18 -4.66699 28.667 -11 32 -19c-3.33301 -14.667 -0.666016 -34.667 8.00098 -60
c8.66699 -26 22 -37.333 40 -34c9.33301 2 16.333 12 21 30c4.66699 17.333 7.33398 36.666 8.00098 57.999c0 6.66699 -0.333008 13.667 -1 21c-6.66699 17.333 -13.334 34.333 -20.001 51c-7.33301 17.333 -14.666 32.666 -21.999 45.999s-13.666 22.333 -18.999 27v7
c0 8 4 15.667 12 23c10 9.33301 19.333 12 28 8c8.66699 -8.66699 17.667 -23.667 27 -45c9.33301 -20.667 15.333 -33.667 18 -39c-0.666992 6 0.333008 19 3 39c2 20 7.33301 38.333 16 55c4 7.33301 8.66699 14 14 20c5.33301 5.33301 11.666 9.33301 18.999 12
c4 0.666992 8 1 12 1c5.33301 0 10.666 -1.33301 15.999 -4c8.66699 -4.66699 16.667 -11.667 24 -21c8.66699 -10.667 16.334 -23 23.001 -37c7.33301 -14 14.333 -28.667 21 -44c12.667 -28.667 24 -54.667 34 -78c10 -24 19.333 -35 28 -33
c11.333 1.33301 18.333 12 21 32c2 16.667 2.66699 33.334 2 50.001c-10 18 -17.333 38.667 -22 62c-6.66699 30 -6.66699 57.333 0 82c3.33301 10.667 7.66602 20.334 12.999 29.001c6 8.66699 13.333 15.667 22 21c27.333 18 51 25.333 71 22
c2.66699 -0.666992 5 -1.33398 7 -2.00098c-4 14 -7.66699 28.667 -11 44c-2.66699 10.667 -5.33398 21.667 -8.00098 33c-14 -5.33301 -29.667 -10.666 -47 -15.999c-50.667 -16 -107.334 -33 -170.001 -51c-33.333 -9.33301 -67.333 -19.333 -102 -30
s-68 -21.667 -100 -33c-62 -22 -115 -46.333 -159 -73c-44.667 -27.333 -69.667 -58 -75 -92c-8 -4 -15.667 -6 -23 -6c-6.66699 0 -13 1.66699 -19 5c-12.667 6.66699 -21.334 19.334 -26.001 38.001c-1.33301 7.33301 -2 14.666 -2 21.999c0 10.667 1.66699 20.667 5 30
c12 31.333 43.333 57.666 94 78.999c50 20.667 107.667 39 173 55c34.667 8 70.334 15.667 107.001 23c36.667 6.66699 72.334 13.334 107.001 20.001c65.333 12.667 124.333 25.667 177 39c20.667 4.66699 39 10 55 16c-0.666992 2 -1 4 -1 6
c-6.66699 40 -7.33398 76.667 -2.00098 110c4.66699 33.333 21.334 53.666 50.001 60.999c5.33301 1.33301 10.333 2 15 2c14.667 0 27.334 -6 38.001 -18c14.667 -16 20.334 -37 17.001 -63c-2 -14 -7.66699 -29 -17 -45c-8.66699 -15.333 -21.667 -31 -39 -47
c-2 -2 -4.33301 -4 -7 -6c3.33301 -16 7.33301 -32.333 12 -49c6 -22 12.333 -44.333 19 -67c6.66699 -22 13.334 -43 20.001 -63c13.333 -36.667 26.666 -67.334 39.999 -92.001c14 -24.667 25.667 -36 35 -34c12 2 20.333 12 25 30c4 18 4.66699 36.333 2 55
c-1.33301 13.333 -4.33301 25.333 -9 36c-5.33301 10.667 -11.666 18 -18.999 22c-3.33301 7.33301 -3.66602 16.666 -0.999023 27.999c2 12 9.33301 18 22 18c14 -6 24 -20 30 -42c4.66699 -16 7 -33 7 -51c0 -6 -0.333008 -12 -1 -18
c-1.33301 -13.333 -3.66602 -26.333 -6.99902 -39c-3.33301 -12 -8 -22.667 -14 -32c-4.66699 -6.66699 -9.66699 -12 -15 -16c-5.33301 -4.66699 -11.666 -8 -18.999 -10c-28.667 -7.33301 -52 -3 -70 13c-17.333 16.667 -28.333 29 -33 37
c0 -8.66699 -3.66699 -24.334 -11 -47.001c-8 -22.667 -24 -38 -48 -46c-5.33301 -2 -10.666 -3 -15.999 -3c-8.66699 0 -17 2.33301 -25 7c-8.66699 4 -16.667 10 -24 18c-2 -14 -5 -27 -9 -39c-4 -10 -9.66699 -18.667 -17 -26s-16.666 -12 -27.999 -14
c-12.667 -2.66699 -24 -1.66699 -34 3c-10 5.33301 -19 12.666 -27 21.999c-8.66699 10 -16.334 21.667 -23.001 35s-12.667 27 -18 41c-10.667 26.667 -20 50.667 -28 72c-8.66699 20.667 -18 29.667 -28 27c-7.33301 -2 -13.333 -10.333 -18 -25
c-4 -15.333 -6.66699 -31.666 -8 -48.999c-0.666992 -11.333 -0.666992 -22.333 0 -33s2.33398 -19.334 5.00098 -26.001c6 -14.667 12 -31.667 18 -51s11.667 -37.333 17 -54c-0.666992 -11.333 -7.33398 -19.666 -20.001 -24.999c-6 -2.66699 -11.333 -4 -16 -4
c-5.33301 0 -9.66602 2 -12.999 6c-2 12.667 -6.66699 29.667 -14 51c-1.33301 -20.667 -5.33301 -39 -12 -55c-4 -8 -8.66699 -15 -14 -21c-5.33301 -5.33301 -11.666 -9 -18.999 -11c-25.333 -6.66699 -46.666 -2.33398 -63.999 12.999c-16.667 16 -27 28 -31 36
c0.666992 -11.333 -3.33301 -26.333 -12 -45c-8 -18.667 -19.667 -32.334 -35 -41.001c-6.66699 -4 -13.667 -6.33301 -21 -7h-3c-6.66699 0 -13.667 1.66699 -21 5c-18.667 8.66699 -33.334 22 -44.001 40c-10 17.333 -17 37 -21 59c-1.33301 10 -2 20.333 -2 31
c0 22 3.33301 44 10 66c10.667 32.667 28.334 56 53.001 70c22.667 12 42.667 18 60 18c8.66699 0.666992 16.334 -0.666016 23.001 -3.99902c21.333 -9.33301 33.666 -22 36.999 -38zM745.991 479.004c-7.33301 -2 -13.6689 -5.66699 -19.002 -11
s-9.66602 -11.666 -12.999 -18.999c-10.667 -23.333 -14 -51.333 -10 -84s10.333 -55.334 19 -68.001c6 -9.33301 14 -18 24 -26s19.667 -6.66699 29 4c8.66699 10 14.334 29.667 17.001 59c2.66699 30 -6 78.333 -26 145c-6.66699 2 -13.667 2 -21 0zM788.988 629.004
c10 8.66699 17.332 18.333 21.999 29c4 10 6.66699 20.333 8 31c2 18.667 -1 35 -9 49c-7.33301 14 -15 20 -23 18c-11.333 -4 -14.666 -26.333 -9.99902 -67c2 -20 5 -41 9 -63z" />
    <glyph glyph-name="braceright" unicode="}" horiz-adv-x="1231" 
d="M199 422c6 -11.333 11.0049 -27.9863 15.0049 -49.9863c3.33301 -22 6.66602 -45 9.99902 -69c4.66699 -36 10.334 -69 17.001 -99s17.667 -43 33 -39c12.667 2.66699 21.334 14.334 26.001 35.001c4 20.667 4.66699 40.667 2 60c5.33301 3.33301 9.33301 3 12 -1
c2.66699 -4.66699 5.66699 -8 9 -10c0.666992 -12.667 0.333984 -24.667 -0.999023 -36c-4.66699 8.66699 -9.33398 17.667 -14.001 27c-10.667 22 -19 45.333 -25 70c-6 24 -9.66699 42.667 -11 56c2.66699 11.333 12.334 19.666 29.001 24.999
c16.667 6 27.667 2.66699 33 -10c0 -10.667 1.33301 -24.667 4 -42s6.33398 -35 11.001 -53c6 -26.667 14 -50.334 24 -71.001s20.667 -28.334 32 -23.001c18 8 28.667 27.667 32 59c1.33301 14 1.66602 27.667 0.999023 41c-6 4.66699 -12 10 -18 16
c-18 17.333 -32.667 38 -44 62s-15.333 45.333 -12 64c1.33301 8 4.33301 15 9 21c4 6 10 11 18 15c7.33301 3.33301 14 5 20 5c12.667 0 23.334 -6.66699 32.001 -20c12 -20.667 19.667 -47 23 -79c2 -22.667 2 -46 0 -70c11.333 -6.66699 22.333 -9.33398 33 -8.00098
c3.33301 0 6.66602 0.666992 9.99902 2c-1.33301 9.33301 -2 19 -2 29c-1.33301 28 -1.33301 53.333 0 76v33c0.666992 10 0 17.333 -2 22c10.667 10 23.334 15 38.001 15h1c15.333 -0.666992 25.333 -4 30 -10c0.666992 -12.667 0.666992 -29.334 0 -50.001
c-0.666992 -20 -1 -40.667 -1 -62c0 -32 2 -61 6 -87c4 -26.667 14 -40.334 30 -41.001c11.333 0 21 10 29 30c7.33301 18.667 13.333 38.334 18 59.001c-3.33301 16 -5.33301 33.667 -6 53c-2 26 -3 52.333 -3 79v33c0 16 0.333008 31.667 1 47c-30 -2.66699 -61 -5 -93 -7
c-38 -2.66699 -76.333 -5.33398 -115 -8.00098c-38.667 -3.33301 -76.334 -7 -113.001 -11c-67.333 -7.33301 -126 -17 -176 -29s-80.333 -28.333 -91 -49c-9.33301 0.666992 -18.666 8.33398 -27.999 23.001c-8 12 -12 24.667 -12 38v7c0.666992 6.66699 3 13.334 7 20.001
c3.33301 6 8.66602 11.667 15.999 17c5.33301 4 16.333 7.33301 33 10c16.667 3.33301 37.334 5.66602 62.001 6.99902c45.333 3.33301 101 5.66602 167 6.99902c66 0.666992 132.333 1.66699 199 3c51.333 0.666992 100 1.66699 146 3
c1.33301 18.667 2.66602 36.667 3.99902 54c2.66699 40.667 2.66699 66.667 0 78c1.33301 11.333 11.333 17 30 17h2c20 0 33 -3.66699 39 -11c-0.666992 -19.333 -2 -46.666 -4 -81.999c-1.33301 -17.333 -2.66602 -35 -3.99902 -53l21 1c28.667 1.33301 53.334 3 74.001 5
c2.66699 47.333 7.66699 84.666 15 111.999c9.33301 34 28.333 53.667 57 59c4.66699 0.666992 9 1 13 1c6 0 11.667 -1 17 -3c9.33301 -2.66699 16.666 -7.33398 21.999 -14.001c11.333 -13.333 17.333 -30.333 18 -51c0.666992 -21.333 -5.33301 -42 -18 -62
c-6 -10 -13.667 -19.333 -23 -28c-10 -8.66699 -22 -16 -36 -22c-3.33301 -1.33301 -7 -2.66602 -11 -3.99902c0 -23.333 0.333008 -46 1 -68c1.33301 -36 2 -57 2 -63c1.33301 5.33301 5.33301 17.666 12 36.999c6 20 16 36.667 30 50
c5.33301 5.33301 11.666 9.66602 18.999 12.999s15.666 4.33301 24.999 3c23.333 -3.33301 39.666 -23.333 48.999 -60c10 -37.333 20 -77 30 -119c5.33301 -22.667 11.666 -44.667 18.999 -66c7.33301 -20.667 17 -38.334 29 -53.001c10.667 -14 24 -24 40 -30
s35 -6.33301 57 -1c10 -4 18 -15.333 24 -34c1.33301 -4.66699 2 -9 2 -13c0 -10.667 -5.66699 -16.334 -17 -17.001c-6 -0.666992 -12 -1 -18 -1c-28 0 -52 5.33301 -72 16c-24 12.667 -44 30 -60 52c-12.667 17.333 -23.334 37 -32.001 59c-8 21.333 -14.667 43 -20 65
c-10 40.667 -17.333 77.667 -22 111c-4 32.667 -11.667 49.667 -23 51c-8.66699 1.33301 -16.667 -1.33398 -24 -8.00098c-6.66699 -6.66699 -12.667 -15.334 -18 -26.001c-8.66699 -15.333 -15 -32.666 -19 -51.999s-6 -33.333 -6 -42
c1.33301 -20 2.66602 -36.333 3.99902 -49c0.666992 -12.667 1.33398 -27.667 2.00098 -45c-4 -11.333 -16 -19.333 -36 -24c-19.333 -4 -29.666 1.33301 -30.999 16v40c-10 -16.667 -21.667 -31.334 -35 -44.001c-8.66699 -8 -18.334 -14.333 -29.001 -19
c-7.33301 -2.66699 -15 -4 -23 -4c-3.33301 0 -7 0.333008 -11 1c-11.333 1.33301 -20.666 6.33301 -27.999 15c-7.33301 7.33301 -13.333 16.666 -18 27.999c-6.66699 -18 -14.334 -33 -23.001 -45c-5.33301 -6.66699 -11.333 -12 -18 -16l-1 -1
c-6.66699 -4 -13.667 -6 -21 -6h-2c-20.667 0.666992 -37.667 5.66699 -51 15c-12.667 9.33301 -22.334 21 -29.001 35c-4 7.33301 -7.33301 15 -10 23c-4.66699 -2 -10 -3.33301 -16 -4c-11.333 -2 -23.333 -0.333008 -36 5c-0.666992 -8.66699 -2 -17 -4 -25
c-10 -42 -26.667 -68 -50 -78c-8.66699 -4 -16.667 -5.66699 -24 -5h-7c-9.33301 1.33301 -18 5 -26 11c-8.66699 6 -16.667 14 -24 24c-2 2.66699 -3.66699 5 -5 7c-2 -8.66699 -4.66699 -17.334 -8 -26.001c0 -1.33301 -0.333008 -2.33301 -1 -3
c-9.33301 -20 -20.333 -32.333 -33 -37c-6.66699 -2 -13.334 -3 -20.001 -3c-5.33301 0 -10.333 0.666992 -15 2c-10 4 -19.333 10.333 -28 19c-16 17.333 -29 42 -39 74c-10 31.333 -18.667 60.666 -26 87.999c-4 14.667 -7.66699 28 -11 40c-4 11.333 -7.66699 20 -11 26
c3.33301 10.667 12 20.667 26 30c6.66699 4.66699 13.667 7 21 7c7.33301 0.666992 14.666 -2 21.999 -8zM812.005 407.014c-0.666992 44.667 -1.00098 84.667 -1.00098 120v15c-16.667 -2.66699 -36 -5 -58 -7l-38 -4c0 -10 -0.333008 -20.333 -1 -31
c-1.33301 -20.667 -2.33301 -41.334 -3 -62.001c-1.33301 -20 -2 -39.333 -2 -58c-0.666992 -34.667 0 -63.667 2 -87c2 -24 6.66699 -36.333 14 -37c6.66699 -1.33301 13.334 -0.666016 20.001 2.00098c6 2 12 5.66699 18 11c18 14 32.667 34.667 44 62
c2 4.66699 4 8.66699 6 12c-0.666992 22.667 -1 44 -1 64zM577.004 629.014c2.66699 -11.333 1.33496 -22.333 -3.99805 -33c-4.66699 -11.333 -11.334 -19 -20.001 -23c-0.666992 0 -1.33398 -0.333008 -2.00098 -1c-2.66699 -0.666992 -6.33398 -1 -11.001 -1
c-5.33301 0 -11.666 0.666992 -18.999 2c-14 3.33301 -22 11.333 -24 24c-0.666992 4 -1 7.66699 -1 11c0 8 1.66699 14.333 5 19c4.66699 7.33301 6 15.333 4 24c3.33301 4 9.33301 5.66699 18 5c5.33301 0 12 -0.666992 20 -2c20 -4.66699 31.333 -13 34 -25z
M886.005 719.014c-6.66699 -0.666992 -11.333 -13 -14 -37c-3.33301 -24 -5 -51.667 -5 -83c0 -7.33301 -0.333008 -14.333 -1 -21c3.33301 1.33301 6.33301 2.66602 9 3.99902c10 5.33301 18.333 12 25 20c6 8.66699 10.333 17.334 13 26.001
c6.66699 21.333 6.66699 42.333 0 63c-7.33301 20 -16.333 29.333 -27 28zM434.006 345.014c-4 24.667 -9.66699 45.668 -17 63.001c-8 17.333 -16 24.333 -24 21c-4.66699 -2.66699 -5 -10 -1 -22c4 -12.667 10.667 -26.334 20 -41.001
c6.66699 -11.333 14.667 -22.333 24 -33z" />
    <glyph glyph-name="asciitilde" unicode="~" horiz-adv-x="453" 
d="M375 415c6.66699 -2 15.666 -12.335 26.999 -31.002c9.33301 -17.333 14 -36 14 -56v-8c-0.666992 -12.667 -4 -25 -10 -37c-6 -12.667 -16 -23.667 -30 -33c-11.333 -8.66699 -24 -12.667 -38 -12c-13.333 0 -28 2.33301 -44 7
c-28.667 8.66699 -58.334 21.334 -89.001 38.001c-30 16.667 -57.333 26.334 -82 29.001c-16 2 -29.667 -1.33301 -41 -10c-12 -8 -20.333 -24.333 -25 -49c-4.66699 2 -9.66699 10 -15 24c-5.33301 14.667 -8.66602 31 -9.99902 49c-0.666992 4.66699 -1 9 -1 13
c0 5.33301 0.333008 11 1 17c1.33301 9.33301 3.66602 18.333 6.99902 27c4 8.66699 9 16 15 22c6.66699 6.66699 15 11.667 25 15c8.66699 2.66699 17.334 4 26.001 4c4.66699 0 9.33398 -0.333008 14.001 -1c14 -2 28 -6 42 -12c27.333 -10.667 54.333 -23.667 81 -39
c26 -15.333 49.667 -23 71 -23c14 -0.666992 26.333 4 37 14s19 27.333 25 52z" />
    <glyph glyph-name="exclamdown" unicode="&#xa1;" horiz-adv-x="156" 
d="M21 45c10.667 4.66699 18.002 27.335 22.002 68.002s6 86.334 6 137.001c0 22 -0.333008 44 -1 66s-1.33398 43.333 -2.00098 64c-1.33301 37.333 -2.66602 69.666 -3.99902 96.999c-1.33301 26.667 -2 41.667 -2 45c4.66699 11.333 13.334 19.666 26.001 24.999
c6.66699 2.66699 13 4 19 4c5.33301 0 10.666 -1.33301 15.999 -4c-0.666992 -13.333 0.666016 -39 3.99902 -77c2.66699 -38 5.66699 -80.667 9 -128c2 -24.667 4 -49.667 6 -75c1.33301 -25.333 2.66602 -50 3.99902 -74c2.66699 -45.333 4.33398 -85 5.00098 -119v-10
c0 -28.667 -1.66699 -47.334 -5 -56.001c-2.66699 -11.333 -10.334 -17 -23.001 -17c-7.33301 0 -16.333 1.66699 -27 5c-30 10.667 -47.667 27 -53 49zM119.002 761.001c1.33301 -4.66699 2.00098 -9.33398 2.00098 -14.001c0 -8 -2 -16.333 -6 -25
c-6 -13.333 -14 -22.333 -24 -27c-4 -1.33301 -8.66699 -2 -14 -2c-6.66699 0 -14.334 0.666992 -23.001 2c-16.667 4 -26 13.333 -28 28c-0.666992 4.66699 -1 9 -1 13c0 9.33301 1.66699 17 5 23c5.33301 8 7 17 5 27c4 4.66699 11 7 21 7
c6.66699 0 14.667 -1.33301 24 -4c23.333 -5.33301 36.333 -14.666 39 -27.999z" />
    <glyph glyph-name="sterling" unicode="&#xa3;" horiz-adv-x="574" 
d="M388 419c13.333 -10 20.666 -20.667 21.999 -32v-5c0 -9.33301 -3 -18 -9 -26c-44 4.66699 -88 5.33398 -132 2.00098c-1.33301 -17.333 -3 -34.666 -5 -51.999c-4.66699 -42.667 -12.334 -81 -23.001 -115c-2 -5.33301 -3.66699 -10.333 -5 -15l4 -2
c28.667 -14.667 57 -30.334 85 -47.001c28 -17.333 54.667 -31 80 -41c21.333 -8 41 -11.667 59 -11s34 8.33398 48 23.001c13.333 -12.667 20 -26.334 20 -41.001c0 -8.66699 -2 -17.667 -6 -27c-11.333 -24.667 -30.666 -37 -57.999 -37h-1c-42 0 -80.333 15 -115 45
s-69 59.333 -103 88c-8.66699 6.66699 -17.667 13.334 -27 20.001c-7.33301 -13.333 -15.333 -25.333 -24 -36c-17.333 -22 -40.333 -34.667 -69 -38c-18.667 -2.66699 -34.334 -2.33398 -47.001 0.999023c-13.333 3.33301 -24 8.33301 -32 15
c-13.333 11.333 -20 25.333 -20 42v9c2.66699 20.667 13.334 37.667 32.001 51c10 7.33301 22.333 12.666 37 15.999s31.334 3.66602 50.001 0.999023c8.66699 -2 17.667 -4.33301 27 -7c4.66699 27.333 8 59 10 95c0.666992 18.667 1 38 1 58h-20
c-24.667 0 -49.667 1 -75 3c-18 6.66699 -27 16.334 -27 29.001c0 2 0.333008 4 1 6c2.66699 15.333 13.334 27 32.001 35c8 -9.33301 29 -14 63 -14h28l2 30c2 42 5.66699 83 11 123c4.66699 40 13.334 75.333 26.001 106c12 29.333 28.667 52.666 50 69.999
c19.333 16.667 45 25 77 25h5c18.667 -0.666992 34.667 -4.33398 48 -11.001s24.333 -15.334 33 -26.001c16.667 -20.667 24.667 -45.667 24 -75s-8.33398 -54.666 -23.001 -75.999c-8 -12 -17.667 -21.667 -29 -29c-12 -7.33301 -25.333 -11.666 -40 -12.999
c-15.333 -0.666992 -29.333 2 -42 8c-12 6 -16.333 18.667 -13 38c14.667 -2 28 0.333008 40 7c11.333 6.66699 21.333 16 30 28c12 16.667 19.667 36.334 23 59.001c2.66699 22 -1.33301 39.667 -12 53c-4.66699 6 -10.334 10.667 -17.001 14s-15 5 -25 5
c-23.333 0.666992 -40 -13.666 -50 -42.999c-10.667 -28.667 -18 -65.667 -22 -111c-2.66699 -24 -4.66699 -49.667 -6 -77s-2.66602 -55 -3.99902 -83l-1 -19c19.333 1.33301 38.666 2.33301 57.999 3c20 1.33301 38.667 1.66602 56 0.999023zM137 186
c-26 4 -44.668 -4.00293 -56.001 -24.0029c-11.333 -19.333 -11 -34 1 -44c3.33301 -3.33301 8.33301 -5.66602 15 -6.99902c6.66699 -0.666992 15 0 25 2c12 2.66699 22 9.66699 30 21c7.33301 10.667 13.333 24.334 18 41.001c0 0.666992 0.333008 1.33398 1 2.00098
c-11.333 4.66699 -22.666 7.66699 -33.999 9z" />
    <glyph glyph-name="yen" unicode="&#xa5;" horiz-adv-x="317" 
 />
    <glyph glyph-name="section" unicode="&#xa7;" horiz-adv-x="303" 
d="M47 189c14 11.333 29.3369 13 46.0039 5c16 -7.33301 24.333 -18.333 25 -33c-9.33301 -2.66699 -17.333 -6.33398 -24 -11.001s-12 -10.334 -16 -17.001c-12.667 -18.667 -13.667 -40 -3 -64c10 -24 28 -38.333 54 -43c29.333 -5.33301 55 0.666992 77 18s33 45 33 83
c0 12 -2.66699 22.667 -8 32c-5.33301 10 -12.333 19 -21 27c-16 16 -36.333 31 -61 45c-24 14 -46.333 29.667 -67 47c-16.667 14.667 -30.667 31.667 -42 51c-10 17.333 -14.667 37.666 -14 60.999v8c0.666992 20.667 4.66699 38.667 12 54
c6.66699 14.667 15.667 27.334 27 38.001c20.667 19.333 45.667 31.666 75 36.999h3c-22.667 14.667 -43.667 30.667 -63 48c-16 14.667 -29.333 31.334 -40 50.001c-10.667 17.333 -16 37.666 -16 60.999v5c1.33301 43.333 19.666 75 54.999 95c25.333 14 52 21 80 21
c10 0 20 -0.666992 30 -2c44 -8.66699 73.667 -32 89 -70c14.667 -38.667 10.667 -75 -12 -109c-14.667 -11.333 -30 -13.333 -46 -6c-16 8 -24.667 19.333 -26 34c10 2.66699 18.333 6.33398 25 11.001s12 10.334 16 17.001c12 18.667 13 40 3 64s-28.333 38.333 -55 43
c-28.667 5.33301 -54.334 -0.666992 -77.001 -18c-22 -17.333 -33 -45 -33 -83c0 -12 2.66699 -22.667 8 -32c5.33301 -10 12.666 -19.333 21.999 -28c16 -15.333 36 -30 60 -44s46.333 -29.667 67 -47c17.333 -15.333 31.333 -32.333 42 -51
c10 -17.333 15 -37.666 15 -60.999v-8c-2 -38.667 -13.667 -67.667 -35 -87c-20.667 -20 -45 -33.333 -73 -40c-4 -1.33301 -7.66699 -2.33301 -11 -3c2.66699 -2 5.33398 -3.66699 8.00098 -5c12 -8 23.667 -16.333 35 -25c21.333 -16 39.666 -34.333 54.999 -55
c14.667 -20 22 -44.333 22 -73v-5c-1.33301 -43.333 -19.333 -75 -54 -95c-26 -14.667 -52.667 -22 -80 -22c-10 0 -20 1 -30 3c-44.667 8 -74.334 31.333 -89.001 70c-14.667 38 -10.667 74.333 12 109zM151.004 322c18.667 6.66699 35.335 18.334 50.002 35.001
c15.333 16 23.666 37 24.999 63c0.666992 12 -1.33301 23 -6 33s-11 19.333 -19 28c-6 6 -12.333 12 -19 18c-6.66699 -1.33301 -13.334 -3.33301 -20.001 -6c-18.667 -6.66699 -35.667 -18.334 -51 -35.001c-15.333 -16 -23.333 -37 -24 -63
c-1.33301 -18.667 3.66699 -35 15 -49c8 -10.667 17.333 -20.667 28 -30c6.66699 1.33301 13.667 3.33301 21 6z" />
    <glyph glyph-name="dieresis" unicode="&#xa8;" horiz-adv-x="237" 
d="M225 755c-0.666992 -12.667 -5.66699 -24.334 -15 -35.001c-8.66699 -10 -18 -15.667 -28 -17h-1c-0.666992 -0.666992 -1.66699 -1 -3 -1c-8 0 -18.333 3.66699 -31 11c-12 6.66699 -18 16 -18 28v5c2 14.667 6.66699 25 14 31s11.333 14 12 24
c2.66699 1.33301 5.66699 2 9 2c8 0 18.667 -3.66699 32 -11c20 -11.333 29.667 -23.666 29 -36.999zM34 800c8.66699 -5.33301 17.3311 -7 25.998 -5c9.33301 1.33301 20.333 -1.66699 33 -9s17.334 -19 14.001 -35c-2.66699 -16.667 -7 -27.667 -13 -33
c-4.66699 -4 -10 -7 -16 -9c-4.66699 -1.33301 -10 -2 -16 -2h-2c-13.333 0 -24.666 3.33301 -33.999 10c-8 6 -12 16 -12 30c0 4.66699 0.333008 10 1 16c4 22 10.333 34.333 19 37z" />
    <glyph glyph-name="copyright" unicode="&#xa9;" horiz-adv-x="473" 
d="M255 758c63.333 0 113.667 -20.668 151 -62.001c38 -43.333 58 -95.666 60 -156.999v-7c0 -18.667 -2.33301 -37.334 -7 -56.001c-6 -20.667 -14.333 -40 -25 -58c-20 -34 -47 -61.667 -81 -83c-33.333 -22 -69 -33.333 -107 -34h-3c-37.333 0 -73 9.33301 -107 28
c-34.667 18.667 -62.667 44 -84 76c-12 16.667 -21.333 35.334 -28 56.001c-7.33301 20 -11 41 -11 63v6c0 60.667 21.333 113 64 157c44 45.333 100.333 69 169 71h9zM411.001 535.999c-0.666992 32.667 -6.66797 64.332 -18.001 94.999
c-12 30.667 -29.333 55.334 -52 74.001c-12.667 10 -27 17.667 -43 23c-14 4.66699 -29.333 7 -46 7h-8c-56 -2.66699 -98.667 -25.334 -128 -68.001c-29.333 -42 -44 -88.333 -44 -139v-2c0 -18 2.66699 -36 8 -54c4.66699 -17.333 11 -34 19 -50
c15.333 -29.333 36 -53.333 62 -72c24.667 -18 51.334 -27 80.001 -27h4c30 0.666992 57.667 11.334 83 32.001c25.333 21.333 45.333 47 60 77c8 16.667 14 33.667 18 51c4 16 5.66699 32 5 48v5zM133 572.997c4.66699 12 10.6631 23.001 17.9961 33.001
c7.33301 9.33301 15.666 17.666 24.999 24.999c22.667 18.667 47.334 28 74.001 28c4 0 8.33301 -0.333008 13 -1c30.667 -3.33301 47.334 -21.333 50.001 -54c0.666992 -7.33301 0 -14 -2 -20s-5 -11.333 -9 -16c-11.333 -13.333 -25.666 -20.333 -42.999 -21
c-16.667 -1.33301 -22.334 4 -17.001 16c16 5.33301 25.333 18.333 28 39c2.66699 21.333 -5 32.666 -23 33.999c-18.667 1.33301 -32.667 -10.667 -42 -36c-10 -24.667 -14.333 -52 -13 -82c0.666992 -24 5.66699 -46.333 15 -67c8.66699 -20 22.334 -32.333 41.001 -37
c14.667 -4 30 0.666992 46 14c15.333 13.333 22.333 26.666 21 39.999c6.66699 2.66699 12.667 5 18 7c6 2 11.667 0.333008 17 -5c-4 -26.667 -18 -49 -42 -67c-17.333 -13.333 -35.666 -20 -54.999 -20c-7.33301 0 -14.666 0.666992 -21.999 2c-32 8 -56.333 23 -73 45
c-16.667 21.333 -27 44.333 -31 69c-2 8.66699 -3 17.334 -3 26.001c0 4 0.333008 8.33301 1 13c1.33301 12.667 4 24.334 8 35.001z" />
    <glyph glyph-name="" unicode="&#xad;" horiz-adv-x="377" 
d="M38 236c8.66699 -9.33301 29.666 -13.999 62.999 -13.999s69.666 1 108.999 3c20.667 1.33301 41.334 2.33301 62.001 3c20.667 1.33301 39.334 1.66602 56.001 0.999023c13.333 -10 20.666 -20.667 21.999 -32c0.666992 -2 1 -3.66699 1 -5
c0 -9.33301 -3.33301 -18 -10 -26c-49.333 5.33301 -99.333 5.66602 -150 0.999023c-27.333 -2.66699 -55 -4 -83 -4c-24.667 0 -50 1 -76 3c-17.333 6.66699 -26 16.334 -26 29.001v6c2.66699 16 13.334 27.667 32.001 35z" />
    <glyph glyph-name="registered" unicode="&#xae;" horiz-adv-x="503" 
d="M430 606l0.00195312 -5.99609c0 -17.333 -2.33301 -34.333 -7 -51c-5.33301 -18.667 -13 -36.334 -23 -53.001c-18 -30.667 -42.333 -56 -73 -76l-10 -6c6 -12.667 12 -24.667 18 -36c12 -26 23.667 -39.333 35 -40c8 0 15.333 5.33301 22 16s5.33398 18.667 -3.99902 24
c1.33301 4.66699 3.66602 9.66699 6.99902 15c3.33301 4.66699 7.66602 6 12.999 4c4.66699 -5.33301 7 -11.333 7 -18c0 -8 -3 -17 -9 -27c-10 -18 -22.333 -27 -37 -27h-1c-13.333 0.666992 -25.333 5 -36 13c-10.667 7.33301 -20.334 17.333 -29.001 30
c-6.66699 9.33301 -13 19.666 -19 30.999c-18 -6.66699 -36.667 -10 -56 -10h-3c-17.333 0 -34.666 2.33301 -51.999 7c-18 5.33301 -35.333 12.666 -52 21.999c-30 17.333 -55 41.666 -75 72.999c-20 30.667 -30.333 64.667 -31 102v5c0 56 19.667 104 59 144
c40.667 42 92 64 154 66h9c58 0 104 -19 138 -57c35.333 -40 53.666 -88.333 54.999 -145zM156.002 475.004c2.66699 2 5.6709 12.6689 9.00391 32.002c3.33301 16.667 6 35 8 55c-0.666992 0.666992 -1.33398 1 -2.00098 1c-12.667 1.33301 -19 6.66602 -19 15.999v6
c2.66699 11.333 11 17.333 25 18h1c2 21.333 3.66699 42 5 62c2 29.333 2.66699 46 2 50c3.33301 6 8.33301 9 15 9h3c8.66699 -0.666992 13.667 -3.66699 15 -9c-1.33301 -1.33301 -3 -12.666 -5 -33.999c-2 -20.667 -4 -44.667 -6 -72
c-0.666992 -4.66699 -1 -9.66699 -1 -15c2.66699 -1.33301 5.33398 -3 8.00098 -5s5.33398 -4.33301 8.00098 -7c1.33301 0 2.66602 0.333008 3.99902 1c15.333 2.66699 28.666 9.33398 39.999 20.001c6.66699 6 11.667 13 15 21c4 8.66699 5.33301 19 4 31
c-2 18 -6.33301 33.333 -13 46c-6.66699 12 -14.667 21.333 -24 28c-17.333 12.667 -36.333 15.667 -57 9s-36.334 -22.334 -47.001 -47.001c-6 -14.667 -6 -27 0 -37c6 -9.33301 14 -11.666 24 -6.99902c0.666992 -8 0.666992 -16.667 0 -26
c-1.33301 -10 -9 -12.667 -23 -8c-10.667 4.66699 -19 15.334 -25 32.001c-2 6 -3 12.667 -3 20c0 11.333 3 23.666 9 36.999c13.333 30 38.666 46 75.999 48h8c33.333 0 61.333 -10.333 84 -31c8 -7.33301 14.667 -16 20 -26s8.66602 -21.333 9.99902 -34v-8
c0 -8 -1.33301 -15.667 -4 -23c-4 -8.66699 -9.66699 -16.334 -17 -23.001c-16 -16 -36 -26.333 -60 -31c-4 -0.666992 -7.66699 -1.33398 -11 -2.00098c4 -4.66699 7.66699 -9.33398 11 -14.001c10 -12.667 19 -27.334 27 -44.001c8.66699 -16.667 17 -33.667 25 -51
l10 -24l4 4c22 18.667 39.333 42.667 52 72c12.667 28 19 56 19 84v5c-1.33301 46 -14.333 88.333 -39 127c-23.333 36.667 -59 55 -107 55h-7c-51.333 -2 -90.333 -22.667 -117 -62c-26.667 -38 -40 -80.333 -40 -127v-2c0 -16.667 2 -33 6 -49
c4.66699 -16.667 10.667 -32 18 -46c14.667 -26.667 33.667 -48.667 57 -66c22.667 -16.667 47.334 -25 74.001 -25h3c14.667 0 28.667 3 42 9c0.666992 0 1.66699 0.333008 3 1c-4.66699 12 -9.33398 24.667 -14.001 38c-12 34.667 -24 64.334 -36 89.001
c-4 8 -8 15.333 -12 22c-2.66699 -0.666992 -5 -1.33398 -7 -2.00098c-1.33301 -18 -2.33301 -36 -3 -54c-2 -31.333 -4 -49.666 -6 -54.999c-3.33301 -2 -7 -3 -11 -3s-8.33301 0.666992 -13 2c-9.33301 4 -14.333 10.333 -15 19zM175.006 575.006l2 18.001
c-9.33301 0 -14 -3.33301 -14 -10c-0.666992 -6.66699 3.33301 -10.334 12 -11.001v3z" />
    <glyph glyph-name="macron" unicode="&#xaf;" horiz-adv-x="574" 
d="M520 790c13.333 -10.667 20.666 -21.6709 21.999 -33.0039v-5c0 -9.33301 -3.33301 -17.666 -10 -24.999c-17.333 1.33301 -39.333 2 -66 2c-26 0 -54.667 -0.333008 -86 -1c-58 -2 -117.667 -4 -179 -6c-28 -1.33301 -53.333 -2 -76 -2c-27.333 0 -51 1 -71 3
c-17.333 6.66699 -26 16.334 -26 29.001v6c2.66699 16 13.667 27.667 33 35c2.66699 -3.33301 8.33398 -6 17.001 -8c9.33301 -1.33301 21 -2.66602 35 -3.99902c25.333 -1.33301 57 -1.66602 95 -0.999023s76.667 1.66699 116 3c40 2 77.667 3.66699 113 5
c36 1.33301 63.667 2 83 2z" />
    <glyph glyph-name="degree" unicode="&#xb0;" horiz-adv-x="201" 
d="M102 829c6.66699 -1.33301 9.99805 -4.66797 9.99805 -10.001c0.666992 -4.66699 -0.666016 -9.33398 -3.99902 -14.001c-6 0.666992 -11.667 0 -17 -2c-4.66699 -2 -9 -5 -13 -9c-11.333 -11.333 -18 -28 -20 -50c-1.33301 -21.333 3.33398 -38.333 14.001 -51
c3.33301 -4.66699 7.33301 -8 12 -10c5.33301 -2.66699 11 -4.33398 17 -5.00098c4.66699 0 8.66699 1 12 3c4 2 7.33301 4.66699 10 8c10.667 12.667 14.667 30.667 12 54c-2.66699 24 -10 34.333 -22 31c-6.66699 4.66699 -9 11.334 -7 20.001s7 15 15 19
c8 0.666992 15 -0.333008 21 -3c6 -2 11.333 -5.66699 16 -11c10.667 -12 16 -28.667 16 -50v-12c-2.66699 -27.333 -12.667 -48.666 -30 -63.999c-5.33301 -5.33301 -12 -9.66602 -20 -12.999c-6.66699 -2.66699 -14 -4 -22 -4h-2c-17.333 0.666992 -32 3.66699 -44 9
s-21.667 12 -29 20c-12.667 14.667 -19 31.667 -19 51v7c2 22.667 10.333 42 25 58c8 8.66699 18 15.667 30 21c10.667 4.66699 22.667 7 36 7h3z" />
    <glyph glyph-name="acute" unicode="&#xb4;" horiz-adv-x="145" 
d="M30 693c-2.66699 -0.666992 -5.33398 -0.998047 -8.00098 -0.998047h-6c-4.66699 1.33301 -7 4.33301 -7 9c2 21.333 9 45.333 21 72c12 27.333 31 46.333 57 57c6.66699 3.33301 12.334 5 17.001 5h2c5.33301 -0.666992 9.66602 -2.33398 12.999 -5.00098
c8 -6.66699 12 -16.667 12 -30c-0.666992 -14 -4 -23.333 -10 -28c-10 -4.66699 -26 -14.334 -48 -29.001c-21.333 -15.333 -35.666 -32 -42.999 -50z" />
    <glyph glyph-name="questiondown" unicode="&#xbf;" horiz-adv-x="386" 
d="M282 291c-24.667 3.33301 -37.3379 -2.66895 -38.0049 -18.002c-1.33301 -15.333 4.33398 -30 17.001 -44c8 2.66699 15 3.33398 21 2.00098c6 -0.666992 11 -2.66699 15 -6c10.667 -8.66699 15 -23.667 13 -45c-2 -20.667 -9 -41.667 -21 -63
c-6 -11.333 -13.667 -21.666 -23 -30.999c-8.66699 -10 -19 -18.333 -31 -25c-10 -6 -20.667 -10 -32 -12c-12 -2.66699 -24.667 -2.66699 -38 0c-16.667 3.33301 -31 10 -43 20c-11.333 10.667 -20.666 23.334 -27.999 38.001c-13.333 26.667 -19.333 56.667 -18 90
c2 33.333 9.66699 60.333 23 81c12.667 17.333 25.667 33.666 39 48.999c14 14.667 27.333 29.334 40 44.001c24.667 26 45.334 53.333 62.001 82c16.667 28 22.334 64 17.001 108c-6 4 -12.667 6 -20 6c-3.33301 0 -6.66602 -0.333008 -9.99902 -1
c-11.333 -2 -19.333 -6.66699 -24 -14c3.33301 -20 3.66602 -37 0.999023 -51c-3.33301 -13.333 -9 -25.666 -17 -36.999c-15.333 -20.667 -37 -41 -65 -61s-56.667 -50.333 -86 -91c-17.333 -24 -26 -56.333 -26 -97v-1c0 -41.333 12 -79 36 -113
c12.667 -18 29 -33.333 49 -46s44.333 -21.334 73 -26.001c10 -1.33301 19.667 -2 29 -2c13.333 0 26 1.66699 38 5c20.667 4.66699 39.334 12 56.001 22c32 20 55.333 47 70 81c8.66699 19.333 13 37.666 13 54.999c0 13.333 -2.33301 26 -7 38
c-5.33301 14.667 -15 27.667 -29 39s-32.667 19.333 -56 24zM261.996 749.998c0.666992 -2.66699 1.00098 -5.33301 1.00098 -8c0 -10 -2.66699 -19.667 -8 -29c-6.66699 -12 -15 -19.667 -25 -23c-2.66699 -0.666992 -6 -1 -10 -1c-6.66699 0 -15 1.66699 -25 5
c-16 4.66699 -24.333 14 -25 28v6c0 12 2.66699 21.333 8 28c5.33301 7.33301 7.66602 15.666 6.99902 24.999c2.66699 3.33301 7.33398 5 14.001 5c7.33301 0 16.666 -1.66699 27.999 -5c22 -7.33301 33.667 -17.666 35 -30.999z" />
    <glyph glyph-name="Agrave" unicode="&#xc0;" 
d="M635 743c-1.33301 -27.333 -1.66309 -69.6719 -0.996094 -127.005c0 -58 2 -120.333 6 -187c0.666992 -13.333 1.33398 -26.333 2.00098 -39c24.667 6 41 11.333 49 16c14.667 -2 22 -10.667 22 -26v-7c-2 -19.333 -8 -29 -18 -29c-14.667 -3.33301 -30.667 -6 -48 -8
c2.66699 -33.333 6 -66 10 -98c7.33301 -62.667 17.333 -114 30 -154c6.66699 -22 14 -39.333 22 -52c8.66699 -12.667 18 -19.667 28 -21c16 -1.33301 31 12 45 40c14 27.333 26.333 57 37 89c6.66699 21.333 12.334 41 17.001 59l10 40c5.33301 1.33301 11.666 2 18.999 2
c6.66699 0.666992 12.334 0 17.001 -2c-0.666992 -6 -2.33398 -14.667 -5.00098 -26s-6 -24 -10 -38c-7.33301 -26.667 -17 -55.667 -29 -87s-26.667 -56.666 -44 -75.999c-9.33301 -10.667 -19 -18.667 -29 -24c-8.66699 -4.66699 -18 -7 -28 -7c-2 0.666992 -4 1 -6 1
c-24 2.66699 -45.333 12 -64 28s-34.667 37 -48 63c-22 41.333 -38.333 92 -49 152c-6.66699 34.667 -12.667 70.334 -18 107.001c-22 0 -44.333 1 -67 3c-20.667 2 -40.334 4.66699 -59.001 8c-3.33301 0.666992 -6.66602 1 -9.99902 1
c-6.66699 -26.667 -13.334 -53.667 -20.001 -81c-10.667 -44 -22.667 -86 -36 -126c-24 -74.667 -52 -137.667 -84 -189c-32.667 -52 -72.334 -78.667 -119.001 -80c-1.33301 -0.666992 -2.66602 -1 -3.99902 -1c-32 0.666992 -60 16.334 -84 47.001
c-24.667 32 -41.334 69 -50.001 111c-4 19.333 -6 38.666 -6 57.999c0 9.33301 0.333008 18.666 1 27.999c2.66699 28.667 10.667 54 24 76c11.333 18.667 26.333 34 45 46c19.333 12 43 19 71 21c19.333 -4 30.333 -18.667 33 -44
c2.66699 -26 -2.66602 -42.667 -15.999 -50c-21.333 8 -39.333 10.333 -54 7s-26.334 -10.666 -35.001 -21.999c-10.667 -13.333 -17.334 -30.666 -20.001 -51.999c-2.66699 -22 -2.33398 -44.333 0.999023 -67c4.66699 -34 15.667 -65 33 -93c16.667 -28 37 -41.333 61 -40
c12.667 0 24.334 5.66699 35.001 17c10.667 10.667 21 25.667 31 45c18 36 34.333 82.667 49 140c14.667 58 29.667 119.667 45 185c9.33301 42.667 19.333 85.667 30 129c10 43.333 21 85 33 125c21.333 74 46.333 136 75 186c19.333 34.667 41.666 57.334 66.999 68.001
c-0.666992 2 -1.33398 3.66699 -2.00098 5c2.66699 12.667 14 19.334 34 20.001c1.33301 0.666992 3 0.666992 5 0c18 0 34.333 -6 49 -18c7.33301 -5.33301 13.333 -12.333 18 -21s7.66699 -19 9 -31zM511.003 721.994c-13.333 -34 -26.668 -78.334 -40.001 -133.001
c-7.33301 -28.667 -14.333 -59.667 -21 -93c-7.33301 -33.333 -15 -67.666 -23 -102.999c-1.33301 -5.33301 -2.66602 -10.333 -3.99902 -15c3.33301 -0.666992 6.33301 -1 9 -1c21.333 -2.66699 43.333 -4 66 -4c16.667 0 33.334 0.666992 50.001 2l-3 33
c-2.66699 32.667 -5 65 -7 97c-1.33301 32 -2.33301 62.333 -3 91c-2 52.667 -3.66699 97.334 -5 134.001c-0.666992 9.33301 -1.33398 17.666 -2.00098 24.999c-6 -8 -11.667 -19 -17 -33zM491.001 895.993c-6.66699 4 -10.999 12.667 -12.999 26
c-0.666992 2.66699 -1 5.33398 -1 8.00098c0 9.33301 2.66699 16.666 8 21.999c3.33301 3.33301 7.66602 5.33301 12.999 6c1.33301 0.666992 3 1 5 1c4 0 8.66699 -0.666992 14 -2c25.333 -8 45.333 -24 60 -48c15.333 -24 25.333 -46.333 30 -67v-1
c0 -4 -1.66699 -6.66699 -5 -8s-7 -2 -11 -2h-3c-9.33301 16.667 -25.333 31 -48 43s-39 19.333 -49 22z" />
    <glyph glyph-name="Aacute" unicode="&#xc1;" 
d="M635 743c-1.33301 -27.333 -1.66309 -69.6719 -0.996094 -127.005c0 -58 2 -120.333 6 -187c0.666992 -13.333 1.33398 -26.333 2.00098 -39c24.667 6 41 11.333 49 16c14.667 -2 22 -10.667 22 -26v-7c-2 -19.333 -8 -29 -18 -29c-14.667 -3.33301 -30.667 -6 -48 -8
c2.66699 -33.333 6 -66 10 -98c7.33301 -62.667 17.333 -114 30 -154c6.66699 -22 14 -39.333 22 -52c8.66699 -12.667 18 -19.667 28 -21c16 -1.33301 31 12 45 40c14 27.333 26.333 57 37 89c6.66699 21.333 12.334 41 17.001 59l10 40c5.33301 1.33301 11.666 2 18.999 2
c6.66699 0.666992 12.334 0 17.001 -2c-0.666992 -6 -2.33398 -14.667 -5.00098 -26s-6 -24 -10 -38c-7.33301 -26.667 -17 -55.667 -29 -87s-26.667 -56.666 -44 -75.999c-9.33301 -10.667 -19 -18.667 -29 -24c-8.66699 -4.66699 -18 -7 -28 -7c-2 0.666992 -4 1 -6 1
c-24 2.66699 -45.333 12 -64 28s-34.667 37 -48 63c-22 41.333 -38.333 92 -49 152c-6.66699 34.667 -12.667 70.334 -18 107.001c-22 0 -44.333 1 -67 3c-20.667 2 -40.334 4.66699 -59.001 8c-3.33301 0.666992 -6.66602 1 -9.99902 1
c-6.66699 -26.667 -13.334 -53.667 -20.001 -81c-10.667 -44 -22.667 -86 -36 -126c-24 -74.667 -52 -137.667 -84 -189c-32.667 -52 -72.334 -78.667 -119.001 -80c-1.33301 -0.666992 -2.66602 -1 -3.99902 -1c-32 0.666992 -60 16.334 -84 47.001
c-24.667 32 -41.334 69 -50.001 111c-4 19.333 -6 38.666 -6 57.999c0 9.33301 0.333008 18.666 1 27.999c2.66699 28.667 10.667 54 24 76c11.333 18.667 26.333 34 45 46c19.333 12 43 19 71 21c19.333 -4 30.333 -18.667 33 -44
c2.66699 -26 -2.66602 -42.667 -15.999 -50c-21.333 8 -39.333 10.333 -54 7s-26.334 -10.666 -35.001 -21.999c-10.667 -13.333 -17.334 -30.666 -20.001 -51.999c-2.66699 -22 -2.33398 -44.333 0.999023 -67c4.66699 -34 15.667 -65 33 -93c16.667 -28 37 -41.333 61 -40
c12.667 0 24.334 5.66699 35.001 17c10.667 10.667 21 25.667 31 45c18 36 34.333 82.667 49 140c14.667 58 29.667 119.667 45 185c9.33301 42.667 19.333 85.667 30 129c10 43.333 21 85 33 125c21.333 74 46.333 136 75 186c19.333 34.667 41.666 57.334 66.999 68.001
c-0.666992 2 -1.33398 3.66699 -2.00098 5c2.66699 12.667 14 19.334 34 20.001c1.33301 0.666992 3 0.666992 5 0c18 0 34.333 -6 49 -18c7.33301 -5.33301 13.333 -12.333 18 -21s7.66699 -19 9 -31zM511.003 721.994c-13.333 -34 -26.668 -78.334 -40.001 -133.001
c-7.33301 -28.667 -14.333 -59.667 -21 -93c-7.33301 -33.333 -15 -67.666 -23 -102.999c-1.33301 -5.33301 -2.66602 -10.333 -3.99902 -15c3.33301 -0.666992 6.33301 -1 9 -1c21.333 -2.66699 43.333 -4 66 -4c16.667 0 33.334 0.666992 50.001 2l-3 33
c-2.66699 32.667 -5 65 -7 97c-1.33301 32 -2.33301 62.333 -3 91c-2 52.667 -3.66699 97.334 -5 134.001c-0.666992 9.33301 -1.33398 17.666 -2.00098 24.999c-6 -8 -11.667 -19 -17 -33zM506.001 833.993l-2.99902 -0.000976562c-4 0 -7.66699 0.333008 -11 1
c-3.33301 1.33301 -5 4 -5 8v2c4.66699 20 14.334 42.333 29.001 67c15.333 24 35.666 39.667 60.999 47c5.33301 2 10 2.66699 14 2h5c5.33301 -1.33301 9.66602 -3.33301 12.999 -6c5.33301 -6 8 -13.333 8 -22c0 -2.66699 -0.333008 -5.66699 -1 -9
c-2 -12.667 -6.33301 -21 -13 -25c-10 -3.33301 -26.333 -10.666 -49 -21.999c-22.667 -12 -38.667 -26.333 -48 -43z" />
    <glyph glyph-name="Acircumflex" unicode="&#xc2;" 
d="M635 743c-1.33301 -27.333 -1.66309 -69.6719 -0.996094 -127.005c0 -58 2 -120.333 6 -187c0.666992 -13.333 1.33398 -26.333 2.00098 -39c24.667 6 41 11.333 49 16c14.667 -2 22 -10.667 22 -26v-7c-2 -19.333 -8 -29 -18 -29c-14.667 -3.33301 -30.667 -6 -48 -8
c2.66699 -33.333 6 -66 10 -98c7.33301 -62.667 17.333 -114 30 -154c6.66699 -22 14 -39.333 22 -52c8.66699 -12.667 18 -19.667 28 -21c16 -1.33301 31 12 45 40c14 27.333 26.333 57 37 89c6.66699 21.333 12.334 41 17.001 59l10 40c5.33301 1.33301 11.666 2 18.999 2
c6.66699 0.666992 12.334 0 17.001 -2c-0.666992 -6 -2.33398 -14.667 -5.00098 -26s-6 -24 -10 -38c-7.33301 -26.667 -17 -55.667 -29 -87s-26.667 -56.666 -44 -75.999c-9.33301 -10.667 -19 -18.667 -29 -24c-8.66699 -4.66699 -18 -7 -28 -7c-2 0.666992 -4 1 -6 1
c-24 2.66699 -45.333 12 -64 28s-34.667 37 -48 63c-22 41.333 -38.333 92 -49 152c-6.66699 34.667 -12.667 70.334 -18 107.001c-22 0 -44.333 1 -67 3c-20.667 2 -40.334 4.66699 -59.001 8c-3.33301 0.666992 -6.66602 1 -9.99902 1
c-6.66699 -26.667 -13.334 -53.667 -20.001 -81c-10.667 -44 -22.667 -86 -36 -126c-24 -74.667 -52 -137.667 -84 -189c-32.667 -52 -72.334 -78.667 -119.001 -80c-1.33301 -0.666992 -2.66602 -1 -3.99902 -1c-32 0.666992 -60 16.334 -84 47.001
c-24.667 32 -41.334 69 -50.001 111c-4 19.333 -6 38.666 -6 57.999c0 9.33301 0.333008 18.666 1 27.999c2.66699 28.667 10.667 54 24 76c11.333 18.667 26.333 34 45 46c19.333 12 43 19 71 21c19.333 -4 30.333 -18.667 33 -44
c2.66699 -26 -2.66602 -42.667 -15.999 -50c-21.333 8 -39.333 10.333 -54 7s-26.334 -10.666 -35.001 -21.999c-10.667 -13.333 -17.334 -30.666 -20.001 -51.999c-2.66699 -22 -2.33398 -44.333 0.999023 -67c4.66699 -34 15.667 -65 33 -93c16.667 -28 37 -41.333 61 -40
c12.667 0 24.334 5.66699 35.001 17c10.667 10.667 21 25.667 31 45c18 36 34.333 82.667 49 140c14.667 58 29.667 119.667 45 185c9.33301 42.667 19.333 85.667 30 129c10 43.333 21 85 33 125c21.333 74 46.333 136 75 186c19.333 34.667 41.666 57.334 66.999 68.001
c-0.666992 2 -1.33398 3.66699 -2.00098 5c2.66699 12.667 14 19.334 34 20.001c1.33301 0.666992 3 0.666992 5 0c18 0 34.333 -6 49 -18c7.33301 -5.33301 13.333 -12.333 18 -21s7.66699 -19 9 -31zM511.003 721.994c-13.333 -34 -26.668 -78.334 -40.001 -133.001
c-7.33301 -28.667 -14.333 -59.667 -21 -93c-7.33301 -33.333 -15 -67.666 -23 -102.999c-1.33301 -5.33301 -2.66602 -10.333 -3.99902 -15c3.33301 -0.666992 6.33301 -1 9 -1c21.333 -2.66699 43.333 -4 66 -4c16.667 0 33.334 0.666992 50.001 2l-3 33
c-2.66699 32.667 -5 65 -7 97c-1.33301 32 -2.33301 62.333 -3 91c-2 52.667 -3.66699 97.334 -5 134.001c-0.666992 9.33301 -1.33398 17.666 -2.00098 24.999c-6 -8 -11.667 -19 -17 -33zM554.001 955.993c19.333 -16 48.3311 -39.6709 86.998 -71.0039
c1.33301 -2.66699 2 -5 2 -7c0 -7.33301 -4.33301 -14.333 -13 -21c-11.333 -8.66699 -24.666 -11.667 -39.999 -9c-8 16.667 -19.667 41.334 -35 74.001c-9.33301 -12.667 -16.666 -25.667 -21.999 -39c-5.33301 -12.667 -12 -26 -20 -40h-6c-9.33301 0 -19 2.66699 -29 8
c-12.667 6.66699 -19 15.334 -19 26.001c20 12.667 37 25.334 51 38.001s28.667 26.334 44 41.001z" />
    <glyph glyph-name="Atilde" unicode="&#xc3;" 
d="M635 743c-1.33301 -27.333 -1.66309 -69.6719 -0.996094 -127.005c0 -58 2 -120.333 6 -187c0.666992 -13.333 1.33398 -26.333 2.00098 -39c24.667 6 41 11.333 49 16c14.667 -2 22 -10.667 22 -26v-7c-2 -19.333 -8 -29 -18 -29c-14.667 -3.33301 -30.667 -6 -48 -8
c2.66699 -33.333 6 -66 10 -98c7.33301 -62.667 17.333 -114 30 -154c6.66699 -22 14 -39.333 22 -52c8.66699 -12.667 18 -19.667 28 -21c16 -1.33301 31 12 45 40c14 27.333 26.333 57 37 89c6.66699 21.333 12.334 41 17.001 59l10 40c5.33301 1.33301 11.666 2 18.999 2
c6.66699 0.666992 12.334 0 17.001 -2c-0.666992 -6 -2.33398 -14.667 -5.00098 -26s-6 -24 -10 -38c-7.33301 -26.667 -17 -55.667 -29 -87s-26.667 -56.666 -44 -75.999c-9.33301 -10.667 -19 -18.667 -29 -24c-8.66699 -4.66699 -18 -7 -28 -7c-2 0.666992 -4 1 -6 1
c-24 2.66699 -45.333 12 -64 28s-34.667 37 -48 63c-22 41.333 -38.333 92 -49 152c-6.66699 34.667 -12.667 70.334 -18 107.001c-22 0 -44.333 1 -67 3c-20.667 2 -40.334 4.66699 -59.001 8c-3.33301 0.666992 -6.66602 1 -9.99902 1
c-6.66699 -26.667 -13.334 -53.667 -20.001 -81c-10.667 -44 -22.667 -86 -36 -126c-24 -74.667 -52 -137.667 -84 -189c-32.667 -52 -72.334 -78.667 -119.001 -80c-1.33301 -0.666992 -2.66602 -1 -3.99902 -1c-32 0.666992 -60 16.334 -84 47.001
c-24.667 32 -41.334 69 -50.001 111c-4 19.333 -6 38.666 -6 57.999c0 9.33301 0.333008 18.666 1 27.999c2.66699 28.667 10.667 54 24 76c11.333 18.667 26.333 34 45 46c19.333 12 43 19 71 21c19.333 -4 30.333 -18.667 33 -44
c2.66699 -26 -2.66602 -42.667 -15.999 -50c-21.333 8 -39.333 10.333 -54 7s-26.334 -10.666 -35.001 -21.999c-10.667 -13.333 -17.334 -30.666 -20.001 -51.999c-2.66699 -22 -2.33398 -44.333 0.999023 -67c4.66699 -34 15.667 -65 33 -93c16.667 -28 37 -41.333 61 -40
c12.667 0 24.334 5.66699 35.001 17c10.667 10.667 21 25.667 31 45c18 36 34.333 82.667 49 140c14.667 58 29.667 119.667 45 185c9.33301 42.667 19.333 85.667 30 129c10 43.333 21 85 33 125c21.333 74 46.333 136 75 186c19.333 34.667 41.666 57.334 66.999 68.001
c-0.666992 2 -1.33398 3.66699 -2.00098 5c2.66699 12.667 14 19.334 34 20.001c1.33301 0.666992 3 0.666992 5 0c18 0 34.333 -6 49 -18c7.33301 -5.33301 13.333 -12.333 18 -21s7.66699 -19 9 -31zM511.003 721.994c-13.333 -34 -26.668 -78.334 -40.001 -133.001
c-7.33301 -28.667 -14.333 -59.667 -21 -93c-7.33301 -33.333 -15 -67.666 -23 -102.999c-1.33301 -5.33301 -2.66602 -10.333 -3.99902 -15c3.33301 -0.666992 6.33301 -1 9 -1c21.333 -2.66699 43.333 -4 66 -4c16.667 0 33.334 0.666992 50.001 2l-3 33
c-2.66699 32.667 -5 65 -7 97c-1.33301 32 -2.33301 62.333 -3 91c-2 52.667 -3.66699 97.334 -5 134.001c-0.666992 9.33301 -1.33398 17.666 -2.00098 24.999c-6 -8 -11.667 -19 -17 -33zM607.001 947.993c12.667 -2.66699 22.335 -11.3311 29.002 -25.998
c3.33301 -8 5 -16 5 -24c0 -7.33301 -1.33301 -14.333 -4 -21c-2.66699 -6 -6.66699 -11.667 -12 -17c-4.66699 -6 -11.334 -10.667 -20.001 -14c-5.33301 -2 -10.666 -3 -15.999 -3c-8 0 -16 2 -24 6c-13.333 8 -26 16 -38 24c-6.66699 4.66699 -13 9 -19 13
c-6 3.33301 -11.667 5.33301 -17 6c-6.66699 0.666992 -12.334 -1.33301 -17.001 -6c-4.66699 -5.33301 -8.66699 -15 -12 -29c-7.33301 3.33301 -13.333 12 -18 26c-2 6.66699 -3 13 -3 19c0 7.33301 1.33301 14.666 4 21.999s7 14 13 20s14 10.667 24 14
c3.33301 1.33301 6.66602 2 9.99902 2c2.66699 0 5.66699 -0.333008 9 -1c6 -2 12 -5 18 -9c11.333 -6.66699 22.333 -14.667 33 -24c10 -10 19.333 -15.333 28 -16c5.33301 -0.666992 10.333 1.66602 15 6.99902c4.66699 6 8.66699 16.333 12 31z" />
    <glyph glyph-name="Adieresis" unicode="&#xc4;" 
d="M635 743c-1.33301 -27.333 -1.66309 -69.6719 -0.996094 -127.005c0 -58 2 -120.333 6 -187c0.666992 -13.333 1.33398 -26.333 2.00098 -39c24.667 6 41 11.333 49 16c14.667 -2 22 -10.667 22 -26v-7c-2 -19.333 -8 -29 -18 -29c-14.667 -3.33301 -30.667 -6 -48 -8
c2.66699 -33.333 6 -66 10 -98c7.33301 -62.667 17.333 -114 30 -154c6.66699 -22 14 -39.333 22 -52c8.66699 -12.667 18 -19.667 28 -21c16 -1.33301 31 12 45 40c14 27.333 26.333 57 37 89c6.66699 21.333 12.334 41 17.001 59l10 40c5.33301 1.33301 11.666 2 18.999 2
c6.66699 0.666992 12.334 0 17.001 -2c-0.666992 -6 -2.33398 -14.667 -5.00098 -26s-6 -24 -10 -38c-7.33301 -26.667 -17 -55.667 -29 -87s-26.667 -56.666 -44 -75.999c-9.33301 -10.667 -19 -18.667 -29 -24c-8.66699 -4.66699 -18 -7 -28 -7c-2 0.666992 -4 1 -6 1
c-24 2.66699 -45.333 12 -64 28s-34.667 37 -48 63c-22 41.333 -38.333 92 -49 152c-6.66699 34.667 -12.667 70.334 -18 107.001c-22 0 -44.333 1 -67 3c-20.667 2 -40.334 4.66699 -59.001 8c-3.33301 0.666992 -6.66602 1 -9.99902 1
c-6.66699 -26.667 -13.334 -53.667 -20.001 -81c-10.667 -44 -22.667 -86 -36 -126c-24 -74.667 -52 -137.667 -84 -189c-32.667 -52 -72.334 -78.667 -119.001 -80c-1.33301 -0.666992 -2.66602 -1 -3.99902 -1c-32 0.666992 -60 16.334 -84 47.001
c-24.667 32 -41.334 69 -50.001 111c-4 19.333 -6 38.666 -6 57.999c0 9.33301 0.333008 18.666 1 27.999c2.66699 28.667 10.667 54 24 76c11.333 18.667 26.333 34 45 46c19.333 12 43 19 71 21c19.333 -4 30.333 -18.667 33 -44
c2.66699 -26 -2.66602 -42.667 -15.999 -50c-21.333 8 -39.333 10.333 -54 7s-26.334 -10.666 -35.001 -21.999c-10.667 -13.333 -17.334 -30.666 -20.001 -51.999c-2.66699 -22 -2.33398 -44.333 0.999023 -67c4.66699 -34 15.667 -65 33 -93c16.667 -28 37 -41.333 61 -40
c12.667 0 24.334 5.66699 35.001 17c10.667 10.667 21 25.667 31 45c18 36 34.333 82.667 49 140c14.667 58 29.667 119.667 45 185c9.33301 42.667 19.333 85.667 30 129c10 43.333 21 85 33 125c21.333 74 46.333 136 75 186c19.333 34.667 41.666 57.334 66.999 68.001
c-0.666992 2 -1.33398 3.66699 -2.00098 5c2.66699 12.667 14 19.334 34 20.001c1.33301 0.666992 3 0.666992 5 0c18 0 34.333 -6 49 -18c7.33301 -5.33301 13.333 -12.333 18 -21s7.66699 -19 9 -31zM511.003 721.994c-13.333 -34 -26.668 -78.334 -40.001 -133.001
c-7.33301 -28.667 -14.333 -59.667 -21 -93c-7.33301 -33.333 -15 -67.666 -23 -102.999c-1.33301 -5.33301 -2.66602 -10.333 -3.99902 -15c3.33301 -0.666992 6.33301 -1 9 -1c21.333 -2.66699 43.333 -4 66 -4c16.667 0 33.334 0.666992 50.001 2l-3 33
c-2.66699 32.667 -5 65 -7 97c-1.33301 32 -2.33301 62.333 -3 91c-2 52.667 -3.66699 97.334 -5 134.001c-0.666992 9.33301 -1.33398 17.666 -2.00098 24.999c-6 -8 -11.667 -19 -17 -33zM473.001 951.993c8 -5.33301 16.668 -7.00195 26.001 -5.00195
c8.66699 1.33301 19.667 -1.66699 33 -9c9.33301 -6 14.333 -14.667 15 -26c0 -3.33301 -0.333008 -6.66602 -1 -9.99902c-2.66699 -16 -7 -26.667 -13 -32c-8 -7.33301 -19 -11.333 -33 -12h-2c-12.667 0 -24 3.66699 -34 11c-8 6 -12 16 -12 30
c0 4.66699 0.666992 9.66699 2 15c3.33301 22.667 9.66602 35.334 18.999 38.001zM664.002 906.991c-1.33301 -12.667 -6.33398 -24.333 -15.001 -35c-9.33301 -10 -19 -16 -29 -18h-3c-8 0 -18.333 3.66699 -31 11c-12.667 6.66699 -19 16 -19 28c0 1.33301 0.333008 3 1 5
c2 14.667 6.66699 25 14 31c6.66699 6 10.667 14 12 24c2 1.33301 5 2 9 2c8 0 18.667 -3.66699 32 -11c18.667 -11.333 28.334 -23 29.001 -35v-2z" />
    <glyph glyph-name="Aring" unicode="&#xc5;" 
d="M635 743c-1.33301 -27.333 -1.66309 -69.6719 -0.996094 -127.005c0 -58 2 -120.333 6 -187c0.666992 -13.333 1.33398 -26.333 2.00098 -39c24.667 6 41 11.333 49 16c14.667 -2 22 -10.667 22 -26v-7c-2 -19.333 -8 -29 -18 -29c-14.667 -3.33301 -30.667 -6 -48 -8
c2.66699 -33.333 6 -66 10 -98c7.33301 -62.667 17.333 -114 30 -154c6.66699 -22 14 -39.333 22 -52c8.66699 -12.667 18 -19.667 28 -21c16 -1.33301 31 12 45 40c14 27.333 26.333 57 37 89c6.66699 21.333 12.334 41 17.001 59l10 40c5.33301 1.33301 11.666 2 18.999 2
c6.66699 0.666992 12.334 0 17.001 -2c-0.666992 -6 -2.33398 -14.667 -5.00098 -26s-6 -24 -10 -38c-7.33301 -26.667 -17 -55.667 -29 -87s-26.667 -56.666 -44 -75.999c-9.33301 -10.667 -19 -18.667 -29 -24c-8.66699 -4.66699 -18 -7 -28 -7c-2 0.666992 -4 1 -6 1
c-24 2.66699 -45.333 12 -64 28s-34.667 37 -48 63c-22 41.333 -38.333 92 -49 152c-6.66699 34.667 -12.667 70.334 -18 107.001c-22 0 -44.333 1 -67 3c-20.667 2 -40.334 4.66699 -59.001 8c-3.33301 0.666992 -6.66602 1 -9.99902 1
c-6.66699 -26.667 -13.334 -53.667 -20.001 -81c-10.667 -44 -22.667 -86 -36 -126c-24 -74.667 -52 -137.667 -84 -189c-32.667 -52 -72.334 -78.667 -119.001 -80c-1.33301 -0.666992 -2.66602 -1 -3.99902 -1c-32 0.666992 -60 16.334 -84 47.001
c-24.667 32 -41.334 69 -50.001 111c-4 19.333 -6 38.666 -6 57.999c0 9.33301 0.333008 18.666 1 27.999c2.66699 28.667 10.667 54 24 76c11.333 18.667 26.333 34 45 46c19.333 12 43 19 71 21c19.333 -4 30.333 -18.667 33 -44
c2.66699 -26 -2.66602 -42.667 -15.999 -50c-21.333 8 -39.333 10.333 -54 7s-26.334 -10.666 -35.001 -21.999c-10.667 -13.333 -17.334 -30.666 -20.001 -51.999c-2.66699 -22 -2.33398 -44.333 0.999023 -67c4.66699 -34 15.667 -65 33 -93c16.667 -28 37 -41.333 61 -40
c12.667 0 24.334 5.66699 35.001 17c10.667 10.667 21 25.667 31 45c18 36 34.333 82.667 49 140c14.667 58 29.667 119.667 45 185c9.33301 42.667 19.333 85.667 30 129c10 43.333 21 85 33 125c21.333 74 46.333 136 75 186c19.333 34.667 41.666 57.334 66.999 68.001
c-0.666992 2 -1.33398 3.66699 -2.00098 5c2.66699 12.667 14 19.334 34 20.001c1.33301 0.666992 3 0.666992 5 0c18 0 34.333 -6 49 -18c7.33301 -5.33301 13.333 -12.333 18 -21s7.66699 -19 9 -31zM511.003 721.994c-13.333 -34 -26.668 -78.334 -40.001 -133.001
c-7.33301 -28.667 -14.333 -59.667 -21 -93c-7.33301 -33.333 -15 -67.666 -23 -102.999c-1.33301 -5.33301 -2.66602 -10.333 -3.99902 -15c3.33301 -0.666992 6.33301 -1 9 -1c21.333 -2.66699 43.333 -4 66 -4c16.667 0 33.334 0.666992 50.001 2l-3 33
c-2.66699 32.667 -5 65 -7 97c-1.33301 32 -2.33301 62.333 -3 91c-2 52.667 -3.66699 97.334 -5 134.001c-0.666992 9.33301 -1.33398 17.666 -2.00098 24.999c-6 -8 -11.667 -19 -17 -33zM549.001 975.993c7.33301 -0.666992 10.999 -4.66699 10.999 -12
c0.666992 -6.66699 -0.666016 -12 -3.99902 -16c-20.667 2 -31.334 -10.333 -32.001 -37c-1.33301 -26.667 9.66699 -39.667 33 -39c11.333 0 19.333 12.333 24 37c4 24.667 0 35.334 -12 32.001c-5.33301 1.33301 -7.66602 6.66602 -6.99902 15.999
c0.666992 10 4.33398 16.667 11.001 20h6c22 0 36 -13.667 42 -41c2 -8.66699 3 -16.667 3 -24c0 -19.333 -5.66699 -36 -17 -50c-5.33301 -6.66699 -12 -11.667 -20 -15c-8 -4 -17 -6 -27 -6h-2c-14 0.666992 -26 3 -36 7s-18.333 9.33301 -25 16
c-12.667 12.667 -19 27.667 -19 45c0 18 5.66699 33.333 17 46c6 6.66699 13.667 12 23 16s19.666 5.66699 30.999 5z" />
    </font>
</defs>
</svg>
